<?xml version="1.0" encoding="UTF-8"?><!DOCTYPE svg PUBLIC "-//W3C//DTD SVG 1.1//EN" "http://www.w3.org/Graphics/SVG/1.1/DTD/svg11.dtd"><svg xmlns="http://www.w3.org/2000/svg" xml:space="preserve" width="156.666mm" height="63.0203mm" version="1.1" style="shape-rendering:geometricPrecision; text-rendering:geometricPrecision; image-rendering:optimizeQuality; fill-rule:evenodd; clip-rule:evenodd" viewBox="0 0 386.18 155.35" xmlns:xlink="http://www.w3.org/1999/xlink" xmlns:xodm="http://www.corel.com/coreldraw/odm/2003"><defs><style type="text/css">
   <![CDATA[
    .fil2 {fill:#1D3A8B;fill-rule:nonzero}
    .fil3 {fill:#1E3480;fill-rule:nonzero}
    .fil0 {fill:#505165;fill-rule:nonzero}
    .fil1 {fill:darkorange;fill-rule:nonzero}
    .fil4 {fill:white;fill-rule:nonzero}
   ]]>
  </style></defs><g id="Layer_x0020_1"><metadata id="CorelCorpID_0Corel-Layer"/><g id="_2618290135920"><g><path class="fil0" d="M172.72 36.99l18.93 0c-1.14,-4.58 -4.23,-7.57 -9.25,-7.57 -4.67,0 -8.37,2.64 -9.69,7.57zm30.12 8.28l-30.21 0c1.41,5.2 5.55,8.28 11.36,8.28 4.84,0 8.19,-2.03 10.48,-4.84l7.49 6.96c-3.61,4.67 -9.16,8.19 -18.76,8.19 -13.21,0 -22.54,-8.89 -22.54,-22.37 0,-13.12 9.07,-22.1 21.84,-22.1 12.15,0 20.61,9.16 20.61,21.75 0,1.41 -0.18,3.43 -0.26,4.14z"/><path class="fil0" d="M210.32 19.99l11.54 0 0 5.64 0.09 0c3.43,-4.14 8.1,-6.25 12.86,-6.25 5.64,0 10.13,2.11 12.68,6.78l0.18 0c3.52,-4.49 8.89,-6.78 15.06,-6.78 9.25,0 15.15,5.55 15.15,18.76l0 24.92 -11.54 0 0 -22.19c0,-6.87 -2.11,-11.18 -7.48,-11.18 -4.84,0 -8.81,4.14 -8.81,11.89l0 21.49 -11.54 0 0 -22.19c0,-6.87 -2.29,-11.18 -7.57,-11.18 -5.2,0 -9.07,4.14 -9.07,11.89l0 21.49 -11.54 0 0 -43.06z"/><path class="fil0" d="M288 49.49l0 -19.9 -5.11 0 0 -9.6 5.11 0 0 -14 11.54 -1.23 0 15.24 11.63 0 0 9.6 -11.63 0 0 18.23c0,3.79 0.97,5.55 3.7,5.55 1.41,0 3.52,-0.53 5.46,-1.5l2.91 9.25c-2.73,1.5 -5.55,2.73 -11.36,2.73 -7.4,0 -12.24,-4.67 -12.24,-14.35z"/><path class="fil0" d="M317.94 19.99l11.54 0 0 43.06 -11.54 0 0 -43.06zm-1.41 -12.95c0,-3.88 3.08,-7.05 7.31,-7.05 4.14,0 7.31,3.17 7.31,7.05 0,3.96 -3.17,7.13 -7.31,7.13 -4.23,0 -7.31,-3.17 -7.31,-7.13z"/><path class="fil0" d="M370.86 41.74c0,-6.96 -4.76,-12.07 -10.92,-12.07 -6.25,0 -11.01,4.67 -11.01,12.07 0,6.87 4.49,11.71 11.01,11.71 5.9,0 10.92,-4.67 10.92,-11.71zm-33.64 -0.09c0,-13.03 8.72,-22.28 20.26,-22.28 5.02,0 9.6,1.94 12.68,5.64l0.18 -0.09 0 -4.93 11.54 0 0 43.06 -11.01 0 0 -5.11 -0.18 -0.09c-2.99,3.87 -7.31,5.99 -12.95,5.99 -11.8,0 -20.52,-8.89 -20.52,-22.19z"/><polygon class="fil0" points="122.3,38.64 140.52,38.64 140.52,20.43 122.3,20.43 "/><polygon class="fil0" points="132.59,17.38 145.41,17.38 145.41,4.56 132.59,4.56 "/><path class="fil1" d="M33.29 41.76c0,-7.4 -4.93,-12.06 -11.1,-12.06 -6.6,0 -11.18,5.11 -11.18,12.06 0,7.05 4.93,11.71 11.27,11.71 6.43,0 11.01,-4.84 11.01,-11.71zm-33.29 -21.75l11.54 0 0 4.93 0.18 0c3.08,-3.61 7.66,-5.55 12.95,-5.55 11.62,0 20.34,9.25 20.34,22.28 0,13.3 -8.72,22.19 -20.69,22.19 -5.37,0 -9.6,-2.03 -12.59,-5.64l-0.18 0.09 0 22.19 -11.54 0 0 -60.5z"/><path class="fil1" d="M50.55 20.01l11.54 0 0 6.25 0.18 0c3.26,-4.4 7.93,-6.87 12.95,-6.87l0.88 0 0 12.59c-1.23,-0.09 -2.38,-0.09 -3.08,-0.09 -7.13,0 -10.92,4.76 -10.92,11.27l0 19.9 -11.54 0 0 -43.06z"/><path class="fil1" d="M146.12 41.7l-2.46 0c-0.11,13.53 -11.11,24.95 -24.67,24.95 -13.63,0 -24.67,-11.05 -24.67,-24.67 0,-13.63 11.31,-24.67 24.93,-24.67l0 -2.47 0 -7.75c-19.27,0 -35.15,15.62 -35.15,34.89 0,19.27 15.62,34.89 34.89,34.89 19.2,0 34.78,-15.99 34.88,-35.17l-7.75 0z"/><polygon class="fil1" points="122.3,17.38 129.54,17.38 129.54,10.14 122.3,10.14 "/><polygon class="fil1" points="143.55,38.64 153.77,38.64 153.77,28.43 143.55,28.43 "/><polygon class="fil1" points="143.55,25.38 148.5,25.38 148.5,20.43 143.55,20.43 "/><path class="fil1" d="M140.5 41.7l-21.2 -0.07 0 -0.01 -0.06 0 0 -21.19c-0.05,-0 -0.09,-0 -0.14,-0 -11.81,0 -21.39,9.58 -21.39,21.39 0,11.81 9.58,21.39 21.39,21.39 11.81,0 21.39,-9.58 21.39,-21.39l0 -0.13z"/></g><g><path class="fil2" d="M46.69 122.21l-0.77 4.05 0.84 0 0.06 -0.13c0.19,-0.64 0.39,-1.16 0.58,-1.54 0.19,-0.39 0.32,-0.64 0.51,-0.84 0.19,-0.19 0.45,-0.32 0.71,-0.39 0.32,-0.06 0.64,-0.13 1.09,-0.13l1.48 0 0 14.52c0,0.32 0,0.58 -0.06,0.77l-0.26 0.45c-0.13,0.06 -0.32,0.19 -0.58,0.19 -0.26,0.06 -0.64,0.06 -1.09,0.13l-0.13 0 0 0.84 0.19 0c0.39,-0.06 0.77,-0.06 1.03,-0.06 0.32,-0.06 0.58,-0.06 0.77,-0.06l1.22 -0.06 1.22 0.06c0.26,0 0.45,0.06 0.77,0.06 0.32,0 0.64,0.06 1.03,0.06l0.19 0 0 -0.84 -0.13 0c-0.51,-0.06 -0.84,-0.06 -1.09,-0.13 -0.26,-0.06 -0.45,-0.13 -0.58,-0.26l-0.26 -0.45c0,-0.19 -0.06,-0.45 -0.06,-0.77l0 -14.52 1.86 0c0.39,0 0.77,0.06 1.03,0.13 0.26,0.06 0.51,0.19 0.64,0.39 0.19,0.19 0.39,0.45 0.51,0.84 0.19,0.39 0.32,0.9 0.51,1.48l0 0.13 0.84 -0 -0.77 -4.05 -11.31 0 0 0.13z"/><path class="fil2" d="M63.52 125.1c0.39,0 0.71,-0.13 0.96,-0.39 0.26,-0.26 0.39,-0.64 0.39,-1.03 0,-0.39 -0.13,-0.71 -0.39,-1.03 -0.26,-0.26 -0.58,-0.39 -0.96,-0.39 -0.39,0 -0.71,0.13 -1.03,0.39 -0.26,0.26 -0.39,0.64 -0.39,1.03 0,0.39 0.13,0.71 0.39,1.03 0.32,0.26 0.64,0.39 1.03,0.39z"/><path class="fil2" d="M68.09 125.1c0.39,0 0.71,-0.13 1.03,-0.39 0.26,-0.26 0.45,-0.64 0.45,-1.03 0,-0.39 -0.13,-0.71 -0.39,-1.03 -0.26,-0.26 -0.64,-0.39 -1.03,-0.39 -0.39,0 -0.71,0.13 -1.03,0.39 -0.26,0.26 -0.39,0.64 -0.39,1.03 0,0.39 0.13,0.71 0.39,1.03 0.26,0.26 0.58,0.39 0.96,0.39z"/><path class="fil2" d="M71.04 138.98l-0.51 -0.19 -0.19 -0.32c0,-0.19 -0.06,-0.39 -0.06,-0.64l0 -10.99 -0.19 0.06c-0.58,0.13 -1.09,0.26 -1.67,0.39 -0.51,0.06 -1.16,0.19 -1.86,0.26l-0.13 0 0 0.64 0.13 0c0.45,0 0.77,0 0.96,0.06l0.51 0.19 0.19 0.39c0,0.19 0.06,0.39 0.06,0.71l0 5.85c0,1.29 -0.26,2.18 -0.71,2.76 -0.45,0.58 -1.16,0.84 -2.12,0.84 -0.9,0 -1.48,-0.26 -1.86,-0.71 -0.39,-0.45 -0.58,-1.29 -0.58,-2.44l0 -8.87 -0.19 0.06c-0.51,0.13 -1.09,0.26 -1.67,0.39 -0.51,0.06 -1.16,0.19 -1.86,0.26l-0.13 0 0 0.64 0.13 -0c0.45,0 0.77,0 0.96,0.06l0.51 0.19 0.19 0.32c0,0.19 0.06,0.39 0.06,0.71l0 6.36c0,0.58 0,1.03 0.06,1.48 0.06,0.39 0.19,0.77 0.32,1.09 0.26,0.64 0.71,1.16 1.35,1.48 0.64,0.32 1.35,0.51 2.18,0.51 0.84,0 1.61,-0.19 2.12,-0.58 0.45,-0.32 0.9,-0.77 1.29,-1.41l0.06 2.06 0.19 -0.06c0.51,-0.13 1.03,-0.26 1.54,-0.39 0.45,-0.06 1.09,-0.19 1.8,-0.26l0.13 0 0 -0.64 -0.13 0c-0.32,-0.19 -0.64,-0.19 -0.9,-0.26z"/><path class="fil2" d="M79.98 127.03c-0.71,0 -1.41,0.26 -1.99,0.71 -0.39,0.32 -0.71,0.71 -0.9,1.22l-0.13 -1.54 -0.06 -0.58 -0.19 0.06c-0.51,0.13 -1.03,0.26 -1.48,0.39 -0.51,0.06 -1.03,0.19 -1.67,0.26l-0.13 0 0 0.64 0.51 -0c0.32,0 0.58,0.06 0.77,0.06l0.39 0.13 0.19 0.32c0,0.13 0.06,0.32 0.06,0.58l0 8.93 -0.06 0.64 -0.26 0.32 -0.45 0.19c-0.26,0.06 -0.58,0.06 -0.96,0.06l-0.13 0 0 0.77 0.19 0c0.32,-0.06 0.64,-0.06 0.9,-0.06l0.64 -0.06 0.58 0 1.16 0 0.58 0 0.71 0.06c0.26,0 0.58,0.06 0.9,0.06l0.19 0 0 -0.77 -0.13 0c-0.39,0 -0.71,-0.06 -0.9,-0.06l-0.51 -0.19 -0.19 -0.32 -0.06 -0.58 0 -5.33c0,-1.41 0.19,-2.51 0.64,-3.34 0.39,-0.77 0.9,-1.22 1.54,-1.22l0.51 0.13 0.19 0.39 0 0.13 -0.06 0.26 -0.06 0.13 0 0.13 0.26 0.71 0.06 0.06c0.19,0.19 0.51,0.32 0.84,0.32 0.39,0 0.64,-0.13 0.84,-0.39 0.19,-0.26 0.32,-0.58 0.32,-1.03 0,-0.64 -0.26,-1.16 -0.71,-1.54 -0.71,-0.45 -1.22,-0.64 -1.93,-0.64z"/><path class="fil2" d="M94.76 139.37l-0.58 -0.19 -0.39 -0.32 -0.39 -0.58 -3.79 -6.36 2.63 -2.7 0.51 -0.51 0.51 -0.32 0.64 -0.19c0.19,-0.06 0.45,-0.06 0.84,-0.13l0.13 0 0 -0.77 -0.19 0c-0.51,0.06 -0.96,0.06 -1.29,0.13 -0.32,0 -0.64,0 -1.03,0l-0.51 0 -1.03 -0.06c-0.19,0 -0.45,-0.06 -0.71,-0.06l-0.19 0 0 0.77 0.13 0c0.51,0 1.22,0.13 1.22,0.45l-0.06 0.19 -0.26 0.32 -4.37 4.5 0 -11.5 -0.19 0.06c-0.58,0.13 -1.09,0.26 -1.67,0.39 -0.51,0.06 -1.16,0.19 -1.86,0.26l-0.13 0 0 0.64 0.13 -0c0.39,0 0.77,0 0.96,0.06l0.51 0.19 0.19 0.32c0,0.19 0.06,0.39 0.06,0.71l0 13.69 -0.06 0.64 -0.19 0.32 -0.51 0.19c-0.26,0.06 -0.58,0.06 -0.96,0.06l-0.13 0 0 0.77 0.19 0c0.64,-0.06 1.16,-0.13 1.54,-0.13 0.71,0 1.61,0 2.31,0 0.39,0 0.9,0.06 1.54,0.13l0.19 0 0 -0.77 -0.13 0c-0.39,0 -0.71,-0.06 -0.9,-0.06l-0.51 -0.19 -0.26 -0.32 -0.06 -0.58 0 -3.34 1.74 -1.74 3.15 5.46 0.19 0.32 0.06 0.19 -0.19 0.26c-0.13,0 -0.32,0.06 -0.77,0.06l-0.13 0 0 0.77 0.19 0c0.26,-0.06 0.51,-0.06 0.71,-0.06l0.58 -0.06 0.58 0 0.58 0c0.39,0 0.77,0 1.09,0 0.32,0 0.77,0.06 1.35,0.13l0.19 0 0 -0.77 -0.13 0c-0.58,-0.19 -0.9,-0.26 -1.09,-0.26z"/><path class="fil2" d="M100.99 139.37l-0.51 -0.19 -0.19 -0.32 -0.06 -0.58 0 -11.37 -0.19 0.06c-0.58,0.13 -1.09,0.26 -1.67,0.39 -0.51,0.06 -1.16,0.19 -1.86,0.26l-0.13 0 0 0.64 0.13 -0c0.45,0 0.77,0 0.96,0.06l0.51 0.19 0.19 0.39c0,0.19 0.06,0.39 0.06,0.71l0 8.74 -0.06 0.64 -0.26 0.32 -0.45 0.19c-0.26,0.06 -0.58,0.06 -0.96,0.06l-0.13 0 0 0.77 0.19 0c0.32,-0.06 0.64,-0.06 0.9,-0.06l0.64 -0.06 0.58 0 1.16 -0 1.22 0.06c0.26,0 0.58,0.06 0.9,0.06l0.19 0 0 -0.77 -0.13 0c-0.45,-0.13 -0.77,-0.19 -1.03,-0.19z"/><path class="fil2" d="M99.32 125.17c0.39,0 0.71,-0.13 0.96,-0.39 0.26,-0.26 0.39,-0.64 0.39,-1.03 0,-0.39 -0.13,-0.71 -0.39,-0.96 -0.26,-0.26 -0.58,-0.39 -0.96,-0.39 -0.39,0 -0.71,0.13 -1.03,0.39 -0.26,0.26 -0.39,0.58 -0.39,0.96 0,0.39 0.13,0.71 0.39,1.03 0.26,0.26 0.64,0.39 1.03,0.39z"/><path class="fil2" d="M113.07 127.35l-0.96 0 -1.09 -0.13 0 0.77 0.13 0c0.51,0 0.9,0.06 1.09,0.13l0.26 0.39 0 0.13 -3.02 8.1 -2.83 -7.78 -0.13 -0.39 -0.06 -0.19 0.26 -0.26c0.19,-0.06 0.51,-0.13 1.03,-0.19l0.13 0 0 -0.77 -0.19 0c-0.58,0.06 -1.03,0.06 -1.35,0.13 -0.32,0 -0.71,0 -1.09,0 -0.45,0 -0.77,0 -1.09,0 -0.32,0 -0.77,-0.06 -1.35,-0.13l-0.19 0 0 0.77 0.13 0c0.39,0 0.64,0.06 0.84,0.06l0.51 0.13 0.26 0.26 0.19 0.45 3.86 10.54 -0.71 1.86c-0.32,0.84 -0.71,1.41 -1.22,1.74 -0.45,0.32 -1.09,0.51 -1.93,0.51l-0.13 0 0 1.54 0.26 0c1.03,0 1.86,-0.26 2.44,-0.71 0.58,-0.45 1.09,-1.22 1.54,-2.31l4.88 -13.24 0.19 -0.45 0.32 -0.26 0.51 -0.19c0.19,-0.06 0.51,-0.06 0.84,-0.13l0.13 0 0 -0.45 -1.41 0.06c-0.26,0 -0.64,0 -1.03,0z"/><path class="fil2" d="M125.02 135.83c-0.32,2.31 -1.35,3.41 -3.21,3.41 -1.16,0 -2.06,-0.45 -2.57,-1.41 -0.58,-0.96 -0.84,-2.44 -0.84,-4.37l7.97 0 0 -0.39c0,-1.93 -0.39,-3.41 -1.22,-4.43 -0.84,-1.03 -1.99,-1.61 -3.53,-1.61 -1.61,0 -2.89,0.64 -3.79,1.8 -0.9,1.22 -1.35,2.89 -1.35,4.95 0,2.12 0.45,3.73 1.35,4.82 0.9,1.09 2.25,1.67 3.98,1.67 1.29,0 2.38,-0.39 3.15,-1.16 0.84,-0.77 1.29,-1.93 1.41,-3.34l0 -0.19 -1.35 0 0 0.26zm-6.55 -3.66c0.19,-1.35 0.51,-2.38 1.03,-3.08 0.51,-0.71 1.16,-1.09 2.06,-1.09 1.74,0 2.7,1.35 2.89,4.18l-5.98 0z"/><path class="fil2" d="M139.8 122.28l-0.06 0c-0.26,0 -0.45,0 -0.71,0.06l-0.58 0 -1.22 0 -0.64 0c-0.19,0 -0.45,-0.06 -0.77,-0.06 -0.26,-0.06 -0.64,-0.06 -1.03,-0.13l-0.19 0 0 0.84 0.13 0c0.45,0.06 0.84,0.06 1.09,0.13 0.26,0.06 0.45,0.13 0.58,0.19l0.26 0.45c0.06,0.19 0.06,0.45 0.06,0.77l0 13.3c0,0.32 0,0.58 -0.06,0.77l-0.26 0.45c-0.13,0.06 -0.32,0.19 -0.58,0.19 -0.26,0.06 -0.64,0.06 -1.09,0.13l-0.13 0 0 0.84 0.19 0c0.39,-0.06 0.77,-0.06 1.03,-0.06 0.32,-0.06 0.58,-0.06 0.77,-0.06l1.22 -0.06 1.22 0.06c0.26,0 0.45,0.06 0.77,0.06 0.32,0 0.64,0.06 1.03,0.06l0.19 0 0 -0.84 -0.13 0c-0.51,-0.06 -0.84,-0.06 -1.09,-0.13 -0.26,-0.06 -0.45,-0.13 -0.58,-0.26l-0.26 -0.45c-0.06,-0.19 -0.06,-0.51 -0.06,-0.77l0 -13.3c0,-0.32 0,-0.58 0.06,-0.77l0.26 -0.45c0.13,-0.13 0.32,-0.19 0.58,-0.19 0.26,-0.06 0.64,-0.13 1.09,-0.13l0.13 0 0 -0.77 -0.19 0c-0.39,0.06 -0.71,0.06 -1.03,0.13z"/><path class="fil2" d="M137.88 120.48c0.39,0 0.71,-0.13 0.96,-0.39 0.26,-0.26 0.39,-0.64 0.39,-1.03 0,-0.39 -0.13,-0.71 -0.39,-1.03 -0.26,-0.26 -0.58,-0.45 -0.96,-0.45 -0.39,0 -0.71,0.13 -1.03,0.39 -0.26,0.26 -0.39,0.64 -0.39,1.03 0,0.39 0.13,0.71 0.45,1.03 0.26,0.32 0.58,0.45 0.96,0.45z"/><path class="fil2" d="M148.8 133.14l-1.16 -0.45c-0.64,-0.26 -1.09,-0.45 -1.41,-0.64 -0.32,-0.19 -0.64,-0.32 -0.84,-0.51l-0.39 -0.58c-0.06,-0.19 -0.06,-0.39 -0.06,-0.64 0,-0.64 0.26,-1.16 0.71,-1.54 0.45,-0.45 1.03,-0.64 1.74,-0.64 1.54,0 2.44,0.96 2.63,3.02l0 0.13 0.77 0 0 -4.31 -0.71 0 -0.32 0.9c-0.45,-0.26 -0.84,-0.39 -1.16,-0.51 -0.45,-0.13 -0.9,-0.19 -1.35,-0.19 -1.16,0 -2.12,0.32 -2.83,1.03 -0.71,0.71 -1.09,1.54 -1.09,2.63 0,0.39 0.06,0.77 0.13,1.09 0.13,0.32 0.26,0.58 0.45,0.84 0.19,0.26 0.51,0.45 0.84,0.71 0.39,0.19 0.77,0.39 1.29,0.64l1.29 0.51c0.58,0.26 1.09,0.51 1.48,0.71 0.39,0.19 0.64,0.32 0.84,0.45l0.39 0.58c0.06,0.19 0.06,0.39 0.06,0.64 0,0.71 -0.26,1.22 -0.77,1.74 -0.51,0.45 -1.16,0.71 -1.99,0.71 -0.9,0 -1.67,-0.26 -2.18,-0.77 -0.51,-0.51 -0.9,-1.41 -1.16,-2.57l0 -0.13 -0.84 0 0 4.56 0.64 0 0.58 -0.96c0.39,0.26 0.77,0.45 1.16,0.58 0.39,0.13 0.77,0.26 1.22,0.26l-0.96 1.86 0.26 0c0.71,0 1.22,0.13 1.48,0.32 0.26,0.19 0.39,0.39 0.39,0.71 0,0.32 -0.13,0.51 -0.32,0.71 -0.19,0.19 -0.51,0.26 -0.96,0.26l-0.51 -0.06c-0.13,0 -0.39,-0.06 -0.77,-0.19l-0.19 -0.06 0 1.09 0.13 0.06c0.39,0.13 0.71,0.26 0.96,0.32 0.32,0.06 0.64,0.13 0.96,0.13 0.77,0 1.41,-0.19 1.86,-0.58 0.45,-0.39 0.71,-0.9 0.71,-1.54 0,-0.58 -0.19,-1.03 -0.58,-1.35 -0.32,-0.26 -0.84,-0.45 -1.54,-0.58l0.58 -1.22c1.03,-0.13 1.86,-0.51 2.57,-1.22 0.71,-0.71 1.03,-1.54 1.03,-2.63 0,-0.84 -0.19,-1.48 -0.64,-1.99 -0.64,-0.45 -1.35,-0.9 -2.38,-1.28z"/><g><path class="fil2" d="M171.23 131.34c-0.32,-0.26 -0.58,-0.39 -0.9,-0.51 -0.19,-0.06 -0.45,-0.13 -0.77,-0.26 1.67,-0.84 2.51,-2.12 2.51,-3.92 0,-0.71 -0.13,-1.35 -0.39,-1.93 -0.26,-0.58 -0.64,-1.09 -1.09,-1.48 -0.45,-0.39 -0.96,-0.64 -1.54,-0.77 -0.58,-0.19 -1.29,-0.26 -2.12,-0.26l-6.81 0 0 0.84 0.13 0c0.45,0.06 0.84,0.06 1.09,0.13 0.26,0.06 0.45,0.13 0.58,0.19l0.26 0.45c0.06,0.19 0.06,0.45 0.06,0.77l0 13.11c0,0.32 0,0.58 -0.06,0.77l-0.26 0.45c-0.13,0.13 -0.32,0.19 -0.58,0.19 -0.32,0.06 -0.71,0.13 -1.16,0.13l-0.13 0 0 0.77 6.62 -0c0.51,0 0.96,0 1.35,-0.06 0.39,-0.06 0.77,-0.06 1.09,-0.19 0.32,-0.06 0.64,-0.19 0.9,-0.32 0.32,-0.13 0.58,-0.32 0.84,-0.51 0.58,-0.45 1.09,-1.09 1.48,-1.8 0.39,-0.71 0.51,-1.54 0.51,-2.31 0,-0.71 -0.13,-1.41 -0.45,-1.99 -0.19,-0.58 -0.64,-1.09 -1.16,-1.48l0 0zm-6.88 -0.06l2.57 0c0.71,0 1.29,0.06 1.67,0.19 0.45,0.13 0.77,0.32 1.09,0.64 0.32,0.32 0.51,0.71 0.71,1.22 0.19,0.51 0.26,1.09 0.26,1.67 0,1.29 -0.32,2.25 -1.03,2.96 -0.64,0.71 -1.54,1.03 -2.76,1.03l-0.96 0c-0.39,0 -0.71,0 -0.9,-0.06l-0.45 -0.19 -0.19 -0.39c0,-0.19 -0.06,-0.39 -0.06,-0.71l0 -6.36 0.06 0zm4.63 -1.93c-0.32,0.32 -0.64,0.58 -1.03,0.64 -0.39,0.13 -1.03,0.19 -1.8,0.19l-1.8 -0 0 -7 2.31 0c1.09,0 1.93,0.26 2.44,0.84 0.51,0.51 0.77,1.41 0.77,2.63 0,1.16 -0.32,2.06 -0.9,2.7z"/></g><path class="fil2" d="M184.79 139.24c-0.32,0 -0.58,-0.13 -0.71,-0.45 -0.13,-0.32 -0.26,-1.03 -0.26,-1.99l0 -5.72c0,-0.45 0,-0.84 -0.06,-1.09 -0.06,-0.32 -0.13,-0.64 -0.26,-0.9 -0.26,-0.58 -0.71,-1.09 -1.41,-1.48 -0.64,-0.39 -1.41,-0.51 -2.25,-0.51 -0.58,0 -1.09,0.06 -1.61,0.26 -0.51,0.19 -0.96,0.39 -1.35,0.71 -0.39,0.26 -0.71,0.64 -0.96,1.03 -0.26,0.39 -0.39,0.84 -0.39,1.22 0,0.58 0.32,0.9 0.9,0.9 0.39,0 0.71,-0.13 0.84,-0.32 0.13,-0.19 0.26,-0.58 0.26,-1.03l0 -0.26c0,-0.51 0.19,-0.84 0.58,-1.16 0.39,-0.32 0.96,-0.45 1.67,-0.45 0.77,0 1.29,0.19 1.61,0.58 0.32,0.39 0.51,1.09 0.51,1.99l0 1.35c-0.71,0.06 -1.35,0.19 -1.93,0.39 -0.58,0.13 -1.22,0.39 -1.8,0.64 -1.03,0.45 -1.86,0.96 -2.38,1.54 -0.51,0.58 -0.77,1.35 -0.77,2.18 0,0.51 0.06,1.03 0.26,1.41 0.19,0.45 0.45,0.77 0.77,1.09 0.32,0.32 0.77,0.58 1.22,0.77 0.45,0.19 0.96,0.26 1.48,0.26 0.9,0 1.61,-0.19 2.12,-0.51 0.45,-0.32 0.9,-0.77 1.29,-1.48 0.13,0.58 0.26,1.03 0.51,1.35 0.32,0.39 0.77,0.58 1.41,0.58l0 0 0.58 -0.06c0.19,0 0.45,-0.06 0.71,-0.06l0.13 0 0 -1.03 -0.58 0.13 -0.13 0 0 0.13zm-2.89 -6.23l0 2.06c0,1.41 -0.19,2.44 -0.64,3.02 -0.39,0.58 -1.09,0.9 -2.06,0.9 -0.71,0 -1.22,-0.19 -1.61,-0.58 -0.39,-0.39 -0.58,-0.9 -0.58,-1.61 0,-1.03 0.39,-1.8 1.16,-2.44 0.84,-0.58 2.12,-1.03 3.73,-1.35z"/><path class="fil2" d="M198.47 139.37l-0.51 -0.19 -0.19 -0.32 -0.06 -0.58 0 -6.43c0,-1.03 -0.13,-1.86 -0.39,-2.44 -0.26,-0.64 -0.77,-1.22 -1.41,-1.61 -0.64,-0.45 -1.35,-0.64 -2.18,-0.64 -0.77,0 -1.41,0.19 -2.06,0.51 -0.45,0.26 -0.9,0.71 -1.29,1.22l-0.06 -1.03c0,-0.26 -0.06,-0.58 -0.13,-0.84l0 -0.19 -0.19 0.06c-0.51,0.19 -1.03,0.39 -1.48,0.45 -0.45,0.13 -0.96,0.19 -1.67,0.32l-0.13 0 0 0.64 0.51 -0c0.45,0 0.77,0.06 0.9,0.06l0.32 0.13 0.13 0.19c0,0.06 0.06,0.26 0.06,0.64l0 8.87 -0.06 0.64 -0.26 0.32 -0.45 0.19c-0.26,0.06 -0.58,0.06 -0.96,0.06l-0.13 0 0 0.77 0.19 0c0.32,-0.06 0.64,-0.06 0.9,-0.06l0.64 -0.06 0.58 0 1.16 -0 1.22 0.06c0.26,0 0.58,0.06 0.9,0.06l0.19 0 0 -0.77 -0.13 0c-0.39,0 -0.71,-0.06 -0.96,-0.06l-0.51 -0.19 -0.19 -0.32 -0.06 -0.58 0 -6.3c0,-1.09 0.26,-1.99 0.71,-2.57 0.45,-0.58 1.16,-0.84 2.12,-0.84 0.84,0 1.41,0.26 1.8,0.71 0.39,0.51 0.58,1.35 0.58,2.57l0 6.36 -0.06 0.64 -0.26 0.32 -0.51 0.19c-0.26,0.06 -0.58,0.06 -0.96,0.06l-0.13 0 0 0.77 0.19 0c0.64,-0.06 1.16,-0.13 1.54,-0.13 0.71,0 1.54,-0.06 2.31,0 0.39,0 0.9,0.06 1.61,0.13l0.19 0 0 -0.77 -0.13 0c-0.64,-0 -0.96,-0.06 -1.22,-0.06z"/><path class="fil2" d="M212.55 139.37l-0.58 -0.19 -0.39 -0.32 -0.39 -0.58 -3.79 -6.36 2.63 -2.7 0.51 -0.51 0.51 -0.32 0.58 -0.19c0.19,-0.06 0.45,-0.06 0.84,-0.13l0.13 0 0 -0.77 -0.19 0c-0.51,0.06 -0.96,0.06 -1.29,0.13 -0.32,0 -0.64,0 -1.03,0l-0.58 0 -1.03 -0.06c-0.19,0 -0.45,-0.06 -0.71,-0.06l-0.19 0 0 0.77 0.13 0c0.58,0 1.22,0.13 1.22,0.45l-0.06 0.19 -0.26 0.32 -4.37 4.5 0 -11.5 -0.19 0.06c-0.58,0.13 -1.16,0.26 -1.67,0.39 -0.51,0.06 -1.16,0.19 -1.86,0.26l-0.13 0 0 0.64 0.13 -0c0.39,0 0.71,0 0.96,0.06l0.51 0.19 0.19 0.32c0,0.19 0.06,0.39 0.06,0.71l0 13.69 -0.06 0.64 -0.19 0.32 -0.51 0.19c-0.26,0.06 -0.51,0.06 -0.96,0.06l-0.13 0 0 0.77 0.19 0c0.64,-0.06 1.16,-0.13 1.54,-0.13 0.71,0 1.61,0 2.31,0 0.39,0 0.9,0.06 1.54,0.13l0.19 0 0 -0.77 -0.13 0c-0.39,0 -0.71,-0.06 -0.9,-0.06l-0.51 -0.19 -0.26 -0.45 -0.06 -0.58 0 -3.34 1.74 -1.74 3.15 5.46 0.19 0.32 0.06 0.19 -0.19 0.26c-0.13,0 -0.32,0.06 -0.77,0.06l-0.13 0 0 0.77 0.19 0c0.26,-0.06 0.51,-0.06 0.71,-0.06l0.58 -0.06 0.51 0 0.58 0c0.39,0 0.77,0 1.09,0 0.32,0 0.77,0.06 1.35,0.13l0.19 0 0 -0.77 -0.13 0c-0.39,-0.06 -0.71,-0.13 -0.9,-0.13z"/><path class="fil2" d="M224.18 139.24c-0.32,0 -0.58,-0.13 -0.71,-0.45 -0.13,-0.32 -0.19,-1.03 -0.19,-1.99l0 -5.72c0,-0.45 0,-0.84 -0.06,-1.09 -0.06,-0.32 -0.13,-0.64 -0.26,-0.9 -0.26,-0.58 -0.71,-1.09 -1.41,-1.48 -0.71,-0.39 -1.41,-0.51 -2.25,-0.51 -0.58,0 -1.09,0.06 -1.61,0.26 -0.51,0.19 -0.96,0.39 -1.35,0.71 -0.39,0.32 -0.71,0.64 -0.96,1.03 -0.26,0.39 -0.39,0.84 -0.39,1.22 0,0.58 0.32,0.9 0.9,0.9 0.39,0 0.71,-0.13 0.84,-0.32 0.19,-0.19 0.26,-0.58 0.26,-1.03l0 -0.26c0,-0.45 0.19,-0.84 0.58,-1.16 0.39,-0.32 0.96,-0.45 1.67,-0.45 0.77,0 1.29,0.19 1.61,0.58 0.32,0.39 0.51,1.09 0.51,1.99l0 1.35c-0.71,0.06 -1.35,0.19 -1.93,0.39 -0.58,0.13 -1.22,0.39 -1.8,0.64 -1.03,0.45 -1.86,0.96 -2.38,1.54 -0.51,0.58 -0.77,1.35 -0.77,2.18 0,0.51 0.06,0.96 0.26,1.41 0.19,0.45 0.45,0.77 0.77,1.09 0.32,0.32 0.77,0.58 1.22,0.77 0.45,0.19 0.96,0.26 1.48,0.26 0.9,0 1.54,-0.19 2.12,-0.51 0.45,-0.32 0.9,-0.77 1.29,-1.48 0.13,0.58 0.26,1.03 0.51,1.35 0.32,0.39 0.77,0.58 1.41,0.58l0 0 0.58 -0.06c0.19,0 0.45,-0.06 0.71,-0.06l0.13 0 0 -1.03 -0.58 0.13 -0.19 0 0 0.13zm-2.89 -6.23l0 2.06c0,1.41 -0.19,2.44 -0.64,3.02 -0.39,0.58 -1.09,0.9 -2.06,0.9 -0.71,0 -1.22,-0.19 -1.61,-0.58 -0.39,-0.39 -0.58,-0.96 -0.58,-1.61 0,-1.03 0.39,-1.8 1.16,-2.44 0.84,-0.58 2.06,-1.03 3.73,-1.35z"/><path class="fil2" d="M232.4 133.14l-1.16 -0.45c-0.64,-0.26 -1.09,-0.45 -1.41,-0.64 -0.32,-0.19 -0.64,-0.32 -0.84,-0.51l-0.39 -0.58c-0.06,-0.19 -0.06,-0.39 -0.06,-0.64 0,-0.64 0.26,-1.16 0.71,-1.54 0.45,-0.45 1.03,-0.64 1.74,-0.64 1.54,0 2.44,0.96 2.63,3.02l0 0.13 0.77 0 0 -4.31 -0.71 0 -0.32 0.9c-0.39,-0.26 -0.77,-0.39 -1.16,-0.51 -0.45,-0.13 -0.9,-0.19 -1.35,-0.19 -1.16,0 -2.12,0.32 -2.83,1.03 -0.71,0.71 -1.09,1.54 -1.09,2.63 0,0.39 0.06,0.77 0.13,1.09 0.06,0.32 0.26,0.58 0.45,0.84 0.26,0.26 0.51,0.45 0.84,0.71 0.32,0.19 0.77,0.39 1.29,0.64l1.29 0.51c0.58,0.26 1.09,0.51 1.48,0.71 0.39,0.19 0.64,0.32 0.84,0.45l0.39 0.58c0.06,0.19 0.06,0.39 0.06,0.64 0,0.64 -0.26,1.22 -0.77,1.74 -0.51,0.45 -1.16,0.71 -1.99,0.71 -0.9,0 -1.67,-0.26 -2.18,-0.77 -0.51,-0.51 -0.9,-1.41 -1.16,-2.57l0 -0.13 -0.84 0 0 4.56 0.64 0 0.58 -0.96c0.9,0.64 1.93,0.96 3.08,0.96 0.64,0 1.16,-0.06 1.74,-0.26 0.51,-0.19 0.96,-0.45 1.35,-0.84 0.39,-0.32 0.71,-0.77 0.9,-1.22 0.19,-0.45 0.32,-1.03 0.32,-1.54 0,-0.84 -0.19,-1.48 -0.64,-1.99 -0.51,-0.71 -1.22,-1.16 -2.31,-1.54z"/><path class="fil2" d="M241.72 139.37l-0.51 -0.19 -0.19 -0.32 -0.06 -0.58 0 -11.37 -0.19 0.06c-0.51,0.13 -1.09,0.26 -1.67,0.39 -0.51,0.06 -1.16,0.19 -1.86,0.26l-0.13 0 0 0.64 0.13 -0c0.45,0 0.77,0 0.96,0.06l0.51 0.19 0.19 0.39c0,0.19 0.06,0.39 0.06,0.71l0 8.74 -0.06 0.64 -0.26 0.32 -0.45 0.19c-0.26,0.06 -0.58,0.06 -0.96,0.06l-0.13 0 0 0.77 0.19 0c0.32,-0.06 0.64,-0.06 0.9,-0.06l0.64 -0.06 0.58 0 1.16 -0 0.58 0 0.71 0.06c0.26,0 0.58,0.06 0.9,0.06l0.19 0 0 -0.77 -0.13 0c-0.51,-0.13 -0.84,-0.19 -1.09,-0.19z"/><path class="fil2" d="M262.48 139.37l-0.58 -0.19 -0.39 -0.32 -0.39 -0.58 -3.79 -6.36 2.63 -2.7 0.51 -0.51 0.51 -0.32 0.58 -0.19c0.19,-0.06 0.45,-0.06 0.84,-0.13l0.13 0 0 -0.77 -0.19 0c-0.51,0.06 -0.96,0.06 -1.29,0.13 -0.32,0 -0.64,0 -1.03,0l-0.51 0 -1.03 -0.06c-0.19,0 -0.45,-0.06 -0.71,-0.06l-0.19 0 0 0.77 0.13 0c0.51,0 1.22,0.13 1.22,0.45l-0.06 0.19 -0.26 0.32 -4.37 4.5 0 -11.5 -0.19 0.06c-0.58,0.13 -1.09,0.26 -1.67,0.39 -0.51,0.06 -1.16,0.19 -1.86,0.26l-0.13 0 0 0.64 0.13 -0c0.39,0 0.71,0 0.96,0.06l0.51 0.19 0.19 0.32c0,0.19 0.06,0.39 0.06,0.71l0 13.69 -0.06 0.64 -0.19 0.32 -0.51 0.19c-0.26,0.06 -0.58,0.06 -0.9,0.06l-0.13 0 0 0.77 0.19 0c0.64,-0.06 1.16,-0.13 1.54,-0.13 0.39,0 0.77,0 1.16,0 0.39,0 0.77,0 1.16,0 0.39,0 0.9,0.06 1.54,0.13l0.19 0 0 -0.77 -0.13 0c-0.39,0 -0.71,-0.06 -0.9,-0.06l-0.51 -0.19 -0.26 -0.32 -0.06 -0.58 0 -3.34 1.74 -1.74 3.15 5.46 0.19 0.32 0.06 0.19 -0.19 0.26c-0.13,0 -0.32,0.06 -0.77,0.06l-0.13 0 0 0.77 0.19 0c0.26,-0.06 0.51,-0.06 0.71,-0.06l0.58 -0.06 0.58 0 0.58 0c0.39,0 0.77,0 1.09,0 0.32,0 0.77,0.06 1.35,0.13l0.19 0 0 -0.77 -0.13 0c-0.64,-0.19 -0.9,-0.26 -1.09,-0.26z"/><path class="fil2" d="M275.4 138.98l-0.51 -0.19 -0.19 -0.32c0,-0.13 -0.06,-0.39 -0.06,-0.64l0 -10.99 -0.19 0.06c-0.58,0.13 -1.09,0.26 -1.67,0.39 -0.51,0.06 -1.16,0.19 -1.86,0.26l-0.13 0 0 0.64 0.13 0c0.45,0 0.77,0 0.96,0.06l0.51 0.19 0.19 0.39c0,0.13 0.06,0.39 0.06,0.71l0 5.85c0,1.29 -0.26,2.18 -0.71,2.76 -0.45,0.58 -1.16,0.84 -2.12,0.84 -0.9,0 -1.48,-0.26 -1.86,-0.71 -0.39,-0.45 -0.58,-1.29 -0.58,-2.44l0 -8.87 -0.19 0.06c-0.51,0.13 -1.09,0.26 -1.67,0.39 -0.58,0.06 -1.16,0.19 -1.86,0.26l-0.13 0 0 0.64 0.13 -0c0.45,0 0.77,0 0.96,0.06l0.51 0.19 0.19 0.39c0,0.13 0.06,0.39 0.06,0.71l0 6.36c0,0.51 0,1.03 0.06,1.48 0.06,0.39 0.19,0.77 0.32,1.03 0.26,0.64 0.71,1.16 1.35,1.48 0.64,0.32 1.35,0.51 2.18,0.51 0.84,0 1.61,-0.19 2.12,-0.58 0.45,-0.32 0.9,-0.77 1.22,-1.41l0 0.64 0 0.45 0 0.26 0 0.26 0.06 0.45 0.19 -0.06c0.58,-0.13 1.03,-0.26 1.54,-0.39 0.45,-0.06 1.09,-0.19 1.8,-0.26l0.13 0 0 -0.64 -0.13 0c-0.26,-0.19 -0.64,-0.19 -0.84,-0.26z"/><path class="fil2" d="M284.33 127.03c-0.71,0 -1.41,0.26 -1.99,0.71 -0.39,0.32 -0.71,0.71 -0.96,1.22l-0.13 -1.54 -0.06 -0.58 -0.19 0.06c-0.51,0.13 -1.03,0.26 -1.48,0.39 -0.51,0.06 -1.03,0.19 -1.67,0.26l-0.13 0 0 0.64 0.51 -0c0.32,0 0.58,0.06 0.77,0.06l0.39 0.13 0.19 0.32c0,0.13 0.06,0.32 0.06,0.58l0 8.93 -0.06 0.64 -0.26 0.32 -0.45 0.19c-0.26,0.06 -0.58,0.06 -0.96,0.06l-0.13 0 0 0.77 0.19 0c0.32,-0.06 0.64,-0.06 0.9,-0.06l0.64 -0.06 0.58 0 1.16 0 1.22 0.06c0.26,0 0.58,0.06 0.9,0.06l0.19 0 0 -0.77 -0.13 0c-0.39,0 -0.71,-0.06 -0.9,-0.06l-0.51 -0.19 -0.19 -0.32 -0.06 -0.58 0 -5.33c0,-1.41 0.19,-2.51 0.64,-3.34 0.39,-0.77 0.9,-1.22 1.54,-1.22l0.51 0.13 0.19 0.39 0 0.13 -0.13 0.39 0 0.13 0.26 0.71 0.06 0.06c0.19,0.19 0.51,0.32 0.84,0.32 0.39,0 0.64,-0.13 0.84,-0.39 0.19,-0.26 0.32,-0.58 0.32,-1.03 0,-0.64 -0.26,-1.16 -0.71,-1.54 -0.58,-0.45 -1.16,-0.64 -1.8,-0.64z"/><path class="fil2" d="M298.59 138.98l-0.51 -0.19 -0.19 -0.32c0,-0.19 -0.06,-0.39 -0.06,-0.64l0 -10.99 -0.19 0.06c-0.58,0.13 -1.09,0.26 -1.67,0.39 -0.51,0.06 -1.16,0.19 -1.86,0.26l-0.13 0 0 0.64 0.13 0c0.45,0 0.77,0 0.96,0.06l0.51 0.19 0.19 0.32c0,0.19 0.06,0.39 0.06,0.71l0 5.85c0,1.29 -0.26,2.18 -0.71,2.76 -0.45,0.58 -1.16,0.84 -2.12,0.84 -0.9,0 -1.48,-0.26 -1.86,-0.71 -0.39,-0.45 -0.58,-1.29 -0.58,-2.44l0 -8.87 -0.19 0.06c-0.51,0.13 -1.09,0.26 -1.67,0.39 -0.58,0.06 -1.16,0.19 -1.86,0.26l-0.13 0 0 0.64 0.13 -0c0.45,0 0.77,0 0.96,0.06l0.51 0.19 0.19 0.32c0,0.19 0.06,0.39 0.06,0.71l0 6.36c0,0.58 0,1.03 0.06,1.48 0.06,0.39 0.19,0.77 0.32,1.03 0.26,0.64 0.71,1.16 1.35,1.48 0.64,0.32 1.35,0.51 2.18,0.51 0.84,0 1.54,-0.19 2.12,-0.58 0.45,-0.32 0.9,-0.77 1.22,-1.41l0 0.64 0 0.45 0 0.26 0 0.26 0.06 0.45 0.19 -0.06c0.58,-0.13 1.03,-0.26 1.54,-0.39 0.45,-0.06 1.09,-0.19 1.8,-0.26l0.13 0 0 -0.64 -0.13 0c-0.26,-0.06 -0.64,-0.06 -0.84,-0.13z"/><path class="fil2" d="M305.6 139.37l-0.51 -0.19 -0.19 -0.32 -0.06 -0.58 0 -16.26 -0.19 0.06c-0.58,0.13 -1.09,0.26 -1.67,0.39 -0.51,0.06 -1.09,0.19 -1.86,0.26l-0.13 0 0 0.64 0.13 -0c0.39,0 0.71,0 0.96,0.06l0.51 0.19 0.19 0.39c0,0.19 0.06,0.39 0.06,0.71l0 13.69 -0.06 0.64 -0.26 0.32 -0.45 0.19c-0.26,0.06 -0.58,0.06 -0.96,0.06l-0.13 0 0 0.77 0.19 0c0.32,-0.06 0.64,-0.06 0.9,-0.06l0.64 -0.06 0.58 0 1.16 0 1.22 0.06c0.26,0 0.58,0.06 0.9,0.06l0.19 0 0 -0.77 -0.13 0c-0.45,-0.19 -0.77,-0.26 -1.03,-0.26z"/><path class="fil2" d="M319.16 138.98l-0.51 -0.19 -0.19 -0.32c0,-0.19 -0.06,-0.39 -0.06,-0.64l0 -10.99 -0.19 0.06c-0.58,0.13 -1.09,0.26 -1.67,0.39 -0.51,0.06 -1.16,0.19 -1.86,0.26l-0.13 0 0 0.64 0.13 0c0.45,0 0.77,0 0.96,0.06l0.51 0.19 0.19 0.39c0,0.19 0.06,0.39 0.06,0.71l0 5.85c0,1.29 -0.26,2.18 -0.71,2.76 -0.45,0.58 -1.16,0.84 -2.12,0.84 -0.9,0 -1.48,-0.26 -1.86,-0.71 -0.39,-0.45 -0.58,-1.29 -0.58,-2.44l0 -8.87 -0.19 0.06c-0.58,0.13 -1.09,0.26 -1.67,0.39 -0.51,0.06 -1.16,0.19 -1.86,0.26l-0.13 0 0 0.64 0.13 -0c0.45,0 0.77,0 0.96,0.06l0.51 0.19 0.19 0.32c0,0.13 0.06,0.39 0.06,0.71l0 6.36c0,0.58 0,1.03 0.06,1.48 0.06,0.39 0.19,0.77 0.32,1.09 0.26,0.64 0.71,1.16 1.35,1.48 0.64,0.32 1.35,0.51 2.18,0.51 0.84,0 1.61,-0.19 2.12,-0.58 0.45,-0.32 0.84,-0.77 1.22,-1.41l0 1.09 0 0.26 0 0.26 0.06 0.45 0.19 -0.06c0.58,-0.13 1.03,-0.26 1.54,-0.39 0.51,-0.06 1.09,-0.19 1.8,-0.26l0.13 0 0 -0.64 -0.13 0c-0.26,-0.19 -0.64,-0.19 -0.84,-0.26z"/><path class="fil2" d="M327.83 133.14l-1.22 -0.45c-0.64,-0.26 -1.09,-0.45 -1.41,-0.64 -0.32,-0.19 -0.64,-0.32 -0.84,-0.51l-0.39 -0.58c-0.06,-0.19 -0.06,-0.39 -0.06,-0.64 0,-0.64 0.26,-1.16 0.71,-1.54 0.45,-0.45 1.03,-0.64 1.74,-0.64 1.54,0 2.44,0.96 2.63,3.02l0 0.13 0.77 0 0 -4.31 -0.71 0 -0.32 0.9c-0.39,-0.19 -0.77,-0.39 -1.16,-0.51 -0.45,-0.13 -0.9,-0.19 -1.35,-0.19 -1.16,0 -2.12,0.32 -2.83,1.03 -0.71,0.71 -1.09,1.54 -1.09,2.63 0,0.39 0.06,0.77 0.13,1.09 0.06,0.32 0.26,0.58 0.45,0.84 0.19,0.26 0.51,0.45 0.84,0.71 0.32,0.19 0.77,0.39 1.29,0.64l1.29 0.51c0.58,0.26 1.09,0.51 1.48,0.71 0.39,0.19 0.64,0.32 0.84,0.45l0.39 0.58c0.06,0.19 0.06,0.39 0.06,0.64 0,0.71 -0.26,1.22 -0.77,1.74 -0.51,0.45 -1.16,0.71 -1.99,0.71 -0.9,0 -1.67,-0.26 -2.18,-0.77 -0.51,-0.51 -0.9,-1.41 -1.16,-2.57l0 -0.13 -0.96 0 0 4.56 0.64 0 0.58 -0.96c0.39,0.26 0.77,0.45 1.16,0.58 0.39,0.13 0.77,0.26 1.22,0.26l-0.96 1.86 0.26 0c0.9,0.06 1.29,0.19 1.48,0.32 0.26,0.19 0.39,0.39 0.39,0.71 0,0.32 -0.13,0.58 -0.32,0.71 -0.19,0.19 -0.51,0.26 -0.96,0.26l-0.51 -0.06c-0.13,0 -0.39,-0.06 -0.77,-0.19l-0.19 -0.06 0 1.09 0.13 0.06c0.39,0.13 0.71,0.26 0.96,0.32 0.32,0.06 0.64,0.13 0.96,0.13 0.77,0 1.41,-0.19 1.86,-0.58 0.45,-0.39 0.71,-0.9 0.71,-1.54 0,-0.58 -0.19,-1.03 -0.58,-1.35 -0.32,-0.26 -0.84,-0.45 -1.54,-0.58l0.58 -1.22c1.03,-0.13 1.86,-0.51 2.57,-1.22 0.71,-0.71 1.03,-1.61 1.03,-2.63 0,-0.84 -0.19,-1.48 -0.64,-1.99 -0.45,-0.45 -1.16,-0.9 -2.18,-1.28z"/><path class="fil2" d="M343.83 138.98l-0.51 -0.19 -0.19 -0.32c0,-0.13 -0.06,-0.39 -0.06,-0.64l0 -10.99 -0.19 0.06c-0.58,0.13 -1.09,0.26 -1.67,0.39 -0.58,0.06 -1.16,0.19 -1.86,0.26l-0.13 0 0 0.64 0.13 0c0.45,0 0.77,0 0.96,0.06l0.51 0.19 0.19 0.39c0,0.13 0.06,0.39 0.06,0.71l0 5.85c0,1.29 -0.26,2.18 -0.71,2.76 -0.45,0.58 -1.16,0.84 -2.12,0.84 -0.9,0 -1.48,-0.26 -1.86,-0.71 -0.39,-0.45 -0.58,-1.29 -0.58,-2.44l0 -8.87 -0.19 0.06c-0.58,0.13 -1.09,0.26 -1.67,0.39 -0.51,0.06 -1.16,0.19 -1.86,0.26l-0.13 0 0 0.64 0.13 -0c0.45,0 0.77,0 0.96,0.06l0.51 0.19 0.19 0.39c0,0.13 0.06,0.39 0.06,0.71l0 6.36c0,0.51 0,1.03 0.06,1.48 0.06,0.39 0.19,0.77 0.32,1.03 0.26,0.64 0.71,1.16 1.35,1.48 0.64,0.32 1.35,0.51 2.18,0.51 0.84,0 1.61,-0.19 2.12,-0.58 0.45,-0.32 0.84,-0.77 1.22,-1.41l0 0.64 0 0.45 0 0.26 0 0.26 0.06 0.45 0.19 -0.06c0.51,-0.13 1.03,-0.26 1.54,-0.39 0.45,-0.06 1.09,-0.19 1.8,-0.26l0.13 0 0 -0.64 -0.13 0c-0.26,-0.19 -0.64,-0.19 -0.84,-0.26z"/><g><path class="fil2" d="M356.88 138.92l-0.32 -0.26 -0.19 -0.45c-0.06,-0.26 -0.06,-0.58 -0.06,-0.9l0 -15.42 -0.19 0.06c-0.58,0.13 -1.09,0.26 -1.67,0.39 -0.51,0.06 -1.09,0.19 -1.86,0.26l-0.13 0 0 0.64 0.13 -0c0.39,0 0.71,0 0.96,0.06l0.51 0.19 0.19 0.39c0,0.13 0.06,0.39 0.06,0.71l0 4.5c-0.39,-0.58 -0.77,-1.03 -1.16,-1.35 -0.51,-0.39 -1.16,-0.58 -1.93,-0.58 -0.71,0 -1.35,0.19 -1.99,0.51 -0.58,0.32 -1.09,0.77 -1.48,1.41 -0.39,0.58 -0.77,1.29 -0.96,2.06 -0.26,0.77 -0.32,1.67 -0.32,2.7 0,0.96 0.13,1.86 0.32,2.63 0.26,0.77 0.58,1.48 0.96,2.06 0.45,0.58 0.96,1.03 1.54,1.35 0.58,0.32 1.29,0.45 1.99,0.45 1.41,0 2.44,-0.64 3.21,-1.93 0,0.26 0.06,0.45 0.06,0.64 0.06,0.32 0.13,0.71 0.19,1.09l0.06 0.19 0.77 -0.26 0.51 -0.13 0.64 -0.13c0.19,0 0.39,-0.06 0.64,-0.06l0.84 -0.13 0 -0.64 -0.71 0c-0.32,-0 -0.51,-0 -0.64,-0.07l0 0zm-2.51 -5.01c0,1.74 -0.26,3.15 -0.77,4.05 -0.51,0.9 -1.16,1.35 -2.12,1.35 -0.96,0 -1.67,-0.45 -2.18,-1.41 -0.51,-0.96 -0.77,-2.38 -0.77,-4.18 0,-1.86 0.26,-3.28 0.77,-4.24 0.51,-0.9 1.16,-1.35 2.12,-1.35 0.96,0 1.67,0.45 2.18,1.48 0.51,0.96 0.77,2.44 0.77,4.31z"/></g><path class="fil2" d="M370.7 138.98l-0.51 -0.13 -0.19 -0.32c0,-0.19 -0.06,-0.39 -0.06,-0.64l0 -10.99 -0.19 0.06c-0.51,0.13 -1.09,0.26 -1.67,0.39 -0.51,0.06 -1.16,0.19 -1.86,0.26l-0.13 0 0 0.64 0.13 0c0.45,0 0.77,0 0.96,0.06l0.51 0.19 0.19 0.32c0,0.19 0.06,0.39 0.06,0.71l0 5.85c0,1.29 -0.26,2.18 -0.71,2.76 -0.45,0.58 -1.16,0.84 -2.12,0.84 -0.9,0 -1.48,-0.26 -1.86,-0.71 -0.39,-0.45 -0.58,-1.29 -0.58,-2.44l0 -8.87 -0.19 0.06c-0.58,0.13 -1.09,0.26 -1.67,0.39 -0.51,0.06 -1.16,0.19 -1.86,0.26l-0.13 0 0 0.64 0.13 -0c0.45,0 0.77,0 0.96,0.06l0.51 0.19 0.19 0.32c0,0.19 0.06,0.39 0.06,0.71l0 6.36c0,0.58 0,1.03 0.06,1.48 0.06,0.39 0.19,0.77 0.32,1.03 0.26,0.64 0.71,1.16 1.35,1.48 0.64,0.32 1.35,0.51 2.18,0.51 0.84,0 1.61,-0.19 2.12,-0.58 0.45,-0.32 0.84,-0.77 1.22,-1.41l0 0.64 0 0.45 0 0.26 0 0.26 0.06 0.45 0.19 -0.06c0.51,-0.13 1.03,-0.26 1.54,-0.39 0.51,-0.06 1.09,-0.19 1.8,-0.26l0.13 0 0 -0.64 -0.13 0c-0.26,-0.13 -0.64,-0.13 -0.84,-0.19z"/><path class="fil2" d="M379.63 127.03c-0.71,0 -1.41,0.26 -1.99,0.71 -0.39,0.32 -0.71,0.71 -0.9,1.22l-0.13 -1.54 -0.06 -0.58 -0.19 0.06c-0.51,0.13 -1.03,0.26 -1.48,0.39 -0.51,0.06 -1.03,0.19 -1.67,0.26l-0.13 0 0 0.64 0.51 -0c0.32,0 0.58,0.06 0.77,0.06l0.39 0.13 0.19 0.32c0,0.13 0.06,0.32 0.06,0.58l0 8.93 -0.06 0.64 -0.26 0.32 -0.45 0.19c-0.26,0.06 -0.58,0.06 -0.96,0.06l-0.13 0 0 0.77 0.19 0c0.32,-0.06 0.64,-0.06 0.9,-0.06l0.64 -0.06 0.58 0 1.16 0 1.22 0.06c0.26,0 0.58,0.06 0.9,0.06l0.19 0 0 -0.77 -0.13 0c-0.39,0 -0.71,-0.06 -0.9,-0.06l-0.51 -0.19 -0.19 -0.32 -0.06 -0.58 0 -5.33c0,-1.41 0.19,-2.51 0.64,-3.34 0.39,-0.77 0.9,-1.22 1.54,-1.22l0.51 0.13 0.19 0.39 0 0.13 -0.13 0.39 0 0.13 0.26 0.71 0.06 0.06c0.26,0.19 0.51,0.32 0.84,0.32 0.39,0 0.64,-0.13 0.84,-0.39 0.19,-0.26 0.32,-0.58 0.32,-1.03 0,-0.64 -0.26,-1.16 -0.71,-1.54 -0.64,-0.45 -1.22,-0.64 -1.86,-0.64z"/><path class="fil2" d="M385.73 137.89c-0.26,-0.32 -0.64,-0.45 -1.03,-0.45 -0.39,0 -0.71,0.13 -1.03,0.45 -0.26,0.26 -0.39,0.64 -0.39,1.03 0,0.39 0.13,0.71 0.45,1.03 0.32,0.26 0.64,0.39 1.03,0.39 0.39,0 0.71,-0.13 1.03,-0.39 0.26,-0.26 0.39,-0.64 0.39,-1.03 -0.06,-0.45 -0.19,-0.77 -0.45,-1.03z"/><path class="fil2" d="M46.69 122.21l-0.77 4.05 0.84 0 0.06 -0.13c0.19,-0.64 0.39,-1.16 0.58,-1.54 0.19,-0.39 0.32,-0.64 0.51,-0.84 0.19,-0.19 0.45,-0.32 0.71,-0.39 0.32,-0.06 0.64,-0.13 1.09,-0.13l1.48 0 0 14.52c0,0.32 0,0.58 -0.06,0.77l-0.26 0.45c-0.13,0.06 -0.32,0.19 -0.58,0.19 -0.26,0.06 -0.64,0.06 -1.09,0.13l-0.13 0 0 0.84 0.19 0c0.39,-0.06 0.77,-0.06 1.03,-0.06 0.32,-0.06 0.58,-0.06 0.77,-0.06l1.22 -0.06 1.22 0.06c0.26,0 0.45,0.06 0.77,0.06 0.32,0 0.64,0.06 1.03,0.06l0.19 0 0 -0.84 -0.13 0c-0.51,-0.06 -0.84,-0.06 -1.09,-0.13 -0.26,-0.06 -0.45,-0.13 -0.58,-0.26l-0.26 -0.45c0,-0.19 -0.06,-0.45 -0.06,-0.77l0 -14.52 1.86 0c0.39,0 0.77,0.06 1.03,0.13 0.26,0.06 0.51,0.19 0.64,0.39 0.19,0.19 0.39,0.45 0.51,0.84 0.19,0.39 0.32,0.9 0.51,1.48l0 0.13 0.84 -0 -0.77 -4.05 -11.31 0 0 0.13z"/><path class="fil2" d="M63.52 125.1c0.39,0 0.71,-0.13 0.96,-0.39 0.26,-0.26 0.39,-0.64 0.39,-1.03 0,-0.39 -0.13,-0.71 -0.39,-1.03 -0.26,-0.26 -0.58,-0.39 -0.96,-0.39 -0.39,0 -0.71,0.13 -1.03,0.39 -0.26,0.26 -0.39,0.64 -0.39,1.03 0,0.39 0.13,0.71 0.39,1.03 0.32,0.26 0.64,0.39 1.03,0.39z"/><path class="fil2" d="M68.09 125.1c0.39,0 0.71,-0.13 1.03,-0.39 0.26,-0.26 0.45,-0.64 0.45,-1.03 0,-0.39 -0.13,-0.71 -0.39,-1.03 -0.26,-0.26 -0.64,-0.39 -1.03,-0.39 -0.39,0 -0.71,0.13 -1.03,0.39 -0.26,0.26 -0.39,0.64 -0.39,1.03 0,0.39 0.13,0.71 0.39,1.03 0.26,0.26 0.58,0.39 0.96,0.39z"/><path class="fil2" d="M71.04 138.98l-0.51 -0.19 -0.19 -0.32c0,-0.19 -0.06,-0.39 -0.06,-0.64l0 -10.99 -0.19 0.06c-0.58,0.13 -1.09,0.26 -1.67,0.39 -0.51,0.06 -1.16,0.19 -1.86,0.26l-0.13 0 0 0.64 0.13 0c0.45,0 0.77,0 0.96,0.06l0.51 0.19 0.19 0.39c0,0.19 0.06,0.39 0.06,0.71l0 5.85c0,1.29 -0.26,2.18 -0.71,2.76 -0.45,0.58 -1.16,0.84 -2.12,0.84 -0.9,0 -1.48,-0.26 -1.86,-0.71 -0.39,-0.45 -0.58,-1.29 -0.58,-2.44l0 -8.87 -0.19 0.06c-0.51,0.13 -1.09,0.26 -1.67,0.39 -0.51,0.06 -1.16,0.19 -1.86,0.26l-0.13 0 0 0.64 0.13 -0c0.45,0 0.77,0 0.96,0.06l0.51 0.19 0.19 0.32c0,0.19 0.06,0.39 0.06,0.71l0 6.36c0,0.58 0,1.03 0.06,1.48 0.06,0.39 0.19,0.77 0.32,1.09 0.26,0.64 0.71,1.16 1.35,1.48 0.64,0.32 1.35,0.51 2.18,0.51 0.84,0 1.61,-0.19 2.12,-0.58 0.45,-0.32 0.9,-0.77 1.29,-1.41l0.06 2.06 0.19 -0.06c0.51,-0.13 1.03,-0.26 1.54,-0.39 0.45,-0.06 1.09,-0.19 1.8,-0.26l0.13 0 0 -0.64 -0.13 0c-0.32,-0.19 -0.64,-0.19 -0.9,-0.26z"/><path class="fil2" d="M79.98 127.03c-0.71,0 -1.41,0.26 -1.99,0.71 -0.39,0.32 -0.71,0.71 -0.9,1.22l-0.13 -1.54 -0.06 -0.58 -0.19 0.06c-0.51,0.13 -1.03,0.26 -1.48,0.39 -0.51,0.06 -1.03,0.19 -1.67,0.26l-0.13 0 0 0.64 0.51 -0c0.32,0 0.58,0.06 0.77,0.06l0.39 0.13 0.19 0.32c0,0.13 0.06,0.32 0.06,0.58l0 8.93 -0.06 0.64 -0.26 0.32 -0.45 0.19c-0.26,0.06 -0.58,0.06 -0.96,0.06l-0.13 0 0 0.77 0.19 0c0.32,-0.06 0.64,-0.06 0.9,-0.06l0.64 -0.06 0.58 0 1.16 0 0.58 0 0.71 0.06c0.26,0 0.58,0.06 0.9,0.06l0.19 0 0 -0.77 -0.13 0c-0.39,0 -0.71,-0.06 -0.9,-0.06l-0.51 -0.19 -0.19 -0.32 -0.06 -0.58 0 -5.33c0,-1.41 0.19,-2.51 0.64,-3.34 0.39,-0.77 0.9,-1.22 1.54,-1.22l0.51 0.13 0.19 0.39 0 0.13 -0.06 0.26 -0.06 0.13 0 0.13 0.26 0.71 0.06 0.06c0.19,0.19 0.51,0.32 0.84,0.32 0.39,0 0.64,-0.13 0.84,-0.39 0.19,-0.26 0.32,-0.58 0.32,-1.03 0,-0.64 -0.26,-1.16 -0.71,-1.54 -0.71,-0.45 -1.22,-0.64 -1.93,-0.64z"/><path class="fil2" d="M94.76 139.37l-0.58 -0.19 -0.39 -0.32 -0.39 -0.58 -3.79 -6.36 2.63 -2.7 0.51 -0.51 0.51 -0.32 0.64 -0.19c0.19,-0.06 0.45,-0.06 0.84,-0.13l0.13 0 0 -0.77 -0.19 0c-0.51,0.06 -0.96,0.06 -1.29,0.13 -0.32,0 -0.64,0 -1.03,0l-0.51 0 -1.03 -0.06c-0.19,0 -0.45,-0.06 -0.71,-0.06l-0.19 0 0 0.77 0.13 0c0.51,0 1.22,0.13 1.22,0.45l-0.06 0.19 -0.26 0.32 -4.37 4.5 0 -11.5 -0.19 0.06c-0.58,0.13 -1.09,0.26 -1.67,0.39 -0.51,0.06 -1.16,0.19 -1.86,0.26l-0.13 0 0 0.64 0.13 -0c0.39,0 0.77,0 0.96,0.06l0.51 0.19 0.19 0.32c0,0.19 0.06,0.39 0.06,0.71l0 13.69 -0.06 0.64 -0.19 0.32 -0.51 0.19c-0.26,0.06 -0.58,0.06 -0.96,0.06l-0.13 0 0 0.77 0.19 0c0.64,-0.06 1.16,-0.13 1.54,-0.13 0.71,0 1.61,0 2.31,0 0.39,0 0.9,0.06 1.54,0.13l0.19 0 0 -0.77 -0.13 0c-0.39,0 -0.71,-0.06 -0.9,-0.06l-0.51 -0.19 -0.26 -0.32 -0.06 -0.58 0 -3.34 1.74 -1.74 3.15 5.46 0.19 0.32 0.06 0.19 -0.19 0.26c-0.13,0 -0.32,0.06 -0.77,0.06l-0.13 0 0 0.77 0.19 0c0.26,-0.06 0.51,-0.06 0.71,-0.06l0.58 -0.06 0.58 0 0.58 0c0.39,0 0.77,0 1.09,0 0.32,0 0.77,0.06 1.35,0.13l0.19 0 0 -0.77 -0.13 0c-0.58,-0.19 -0.9,-0.26 -1.09,-0.26z"/><path class="fil2" d="M100.99 139.37l-0.51 -0.19 -0.19 -0.32 -0.06 -0.58 0 -11.37 -0.19 0.06c-0.58,0.13 -1.09,0.26 -1.67,0.39 -0.51,0.06 -1.16,0.19 -1.86,0.26l-0.13 0 0 0.64 0.13 -0c0.45,0 0.77,0 0.96,0.06l0.51 0.19 0.19 0.39c0,0.19 0.06,0.39 0.06,0.71l0 8.74 -0.06 0.64 -0.26 0.32 -0.45 0.19c-0.26,0.06 -0.58,0.06 -0.96,0.06l-0.13 0 0 0.77 0.19 0c0.32,-0.06 0.64,-0.06 0.9,-0.06l0.64 -0.06 0.58 0 1.16 -0 1.22 0.06c0.26,0 0.58,0.06 0.9,0.06l0.19 0 0 -0.77 -0.13 0c-0.45,-0.13 -0.77,-0.19 -1.03,-0.19z"/><path class="fil2" d="M99.32 125.17c0.39,0 0.71,-0.13 0.96,-0.39 0.26,-0.26 0.39,-0.64 0.39,-1.03 0,-0.39 -0.13,-0.71 -0.39,-0.96 -0.26,-0.26 -0.58,-0.39 -0.96,-0.39 -0.39,0 -0.71,0.13 -1.03,0.39 -0.26,0.26 -0.39,0.58 -0.39,0.96 0,0.39 0.13,0.71 0.39,1.03 0.26,0.26 0.64,0.39 1.03,0.39z"/><path class="fil2" d="M113.07 127.35l-0.96 0 -1.09 -0.13 0 0.77 0.13 0c0.51,0 0.9,0.06 1.09,0.13l0.26 0.39 0 0.13 -3.02 8.1 -2.83 -7.78 -0.13 -0.39 -0.06 -0.19 0.26 -0.26c0.19,-0.06 0.51,-0.13 1.03,-0.19l0.13 0 0 -0.77 -0.19 0c-0.58,0.06 -1.03,0.06 -1.35,0.13 -0.32,0 -0.71,0 -1.09,0 -0.45,0 -0.77,0 -1.09,0 -0.32,0 -0.77,-0.06 -1.35,-0.13l-0.19 0 0 0.77 0.13 0c0.39,0 0.64,0.06 0.84,0.06l0.51 0.13 0.26 0.26 0.19 0.45 3.86 10.54 -0.71 1.86c-0.32,0.84 -0.71,1.41 -1.22,1.74 -0.45,0.32 -1.09,0.51 -1.93,0.51l-0.13 0 0 1.54 0.26 0c1.03,0 1.86,-0.26 2.44,-0.71 0.58,-0.45 1.09,-1.22 1.54,-2.31l4.88 -13.24 0.19 -0.45 0.32 -0.26 0.51 -0.19c0.19,-0.06 0.51,-0.06 0.84,-0.13l0.13 0 0 -0.45 -1.41 0.06c-0.26,0 -0.64,0 -1.03,0z"/><path class="fil2" d="M125.02 135.83c-0.32,2.31 -1.35,3.41 -3.21,3.41 -1.16,0 -2.06,-0.45 -2.57,-1.41 -0.58,-0.96 -0.84,-2.44 -0.84,-4.37l7.97 0 0 -0.39c0,-1.93 -0.39,-3.41 -1.22,-4.43 -0.84,-1.03 -1.99,-1.61 -3.53,-1.61 -1.61,0 -2.89,0.64 -3.79,1.8 -0.9,1.22 -1.35,2.89 -1.35,4.95 0,2.12 0.45,3.73 1.35,4.82 0.9,1.09 2.25,1.67 3.98,1.67 1.29,0 2.38,-0.39 3.15,-1.16 0.84,-0.77 1.29,-1.93 1.41,-3.34l0 -0.19 -1.35 0 0 0.26zm-6.55 -3.66c0.19,-1.35 0.51,-2.38 1.03,-3.08 0.51,-0.71 1.16,-1.09 2.06,-1.09 1.74,0 2.7,1.35 2.89,4.18l-5.98 0z"/><path class="fil2" d="M139.8 122.28l-0.06 0c-0.26,0 -0.45,0 -0.71,0.06l-0.58 0 -1.22 0 -0.64 0c-0.19,0 -0.45,-0.06 -0.77,-0.06 -0.26,-0.06 -0.64,-0.06 -1.03,-0.13l-0.19 0 0 0.84 0.13 0c0.45,0.06 0.84,0.06 1.09,0.13 0.26,0.06 0.45,0.13 0.58,0.19l0.26 0.45c0.06,0.19 0.06,0.45 0.06,0.77l0 13.3c0,0.32 0,0.58 -0.06,0.77l-0.26 0.45c-0.13,0.06 -0.32,0.19 -0.58,0.19 -0.26,0.06 -0.64,0.06 -1.09,0.13l-0.13 0 0 0.84 0.19 0c0.39,-0.06 0.77,-0.06 1.03,-0.06 0.32,-0.06 0.58,-0.06 0.77,-0.06l1.22 -0.06 1.22 0.06c0.26,0 0.45,0.06 0.77,0.06 0.32,0 0.64,0.06 1.03,0.06l0.19 0 0 -0.84 -0.13 0c-0.51,-0.06 -0.84,-0.06 -1.09,-0.13 -0.26,-0.06 -0.45,-0.13 -0.58,-0.26l-0.26 -0.45c-0.06,-0.19 -0.06,-0.51 -0.06,-0.77l0 -13.3c0,-0.32 0,-0.58 0.06,-0.77l0.26 -0.45c0.13,-0.13 0.32,-0.19 0.58,-0.19 0.26,-0.06 0.64,-0.13 1.09,-0.13l0.13 0 0 -0.77 -0.19 0c-0.39,0.06 -0.71,0.06 -1.03,0.13z"/><path class="fil2" d="M137.88 120.48c0.39,0 0.71,-0.13 0.96,-0.39 0.26,-0.26 0.39,-0.64 0.39,-1.03 0,-0.39 -0.13,-0.71 -0.39,-1.03 -0.26,-0.26 -0.58,-0.45 -0.96,-0.45 -0.39,0 -0.71,0.13 -1.03,0.39 -0.26,0.26 -0.39,0.64 -0.39,1.03 0,0.39 0.13,0.71 0.45,1.03 0.26,0.32 0.58,0.45 0.96,0.45z"/><path class="fil2" d="M148.8 133.14l-1.16 -0.45c-0.64,-0.26 -1.09,-0.45 -1.41,-0.64 -0.32,-0.19 -0.64,-0.32 -0.84,-0.51l-0.39 -0.58c-0.06,-0.19 -0.06,-0.39 -0.06,-0.64 0,-0.64 0.26,-1.16 0.71,-1.54 0.45,-0.45 1.03,-0.64 1.74,-0.64 1.54,0 2.44,0.96 2.63,3.02l0 0.13 0.77 0 0 -4.31 -0.71 0 -0.32 0.9c-0.45,-0.26 -0.84,-0.39 -1.16,-0.51 -0.45,-0.13 -0.9,-0.19 -1.35,-0.19 -1.16,0 -2.12,0.32 -2.83,1.03 -0.71,0.71 -1.09,1.54 -1.09,2.63 0,0.39 0.06,0.77 0.13,1.09 0.13,0.32 0.26,0.58 0.45,0.84 0.19,0.26 0.51,0.45 0.84,0.71 0.39,0.19 0.77,0.39 1.29,0.64l1.29 0.51c0.58,0.26 1.09,0.51 1.48,0.71 0.39,0.19 0.64,0.32 0.84,0.45l0.39 0.58c0.06,0.19 0.06,0.39 0.06,0.64 0,0.71 -0.26,1.22 -0.77,1.74 -0.51,0.45 -1.16,0.71 -1.99,0.71 -0.9,0 -1.67,-0.26 -2.18,-0.77 -0.51,-0.51 -0.9,-1.41 -1.16,-2.57l0 -0.13 -0.84 0 0 4.56 0.64 0 0.58 -0.96c0.39,0.26 0.77,0.45 1.16,0.58 0.39,0.13 0.77,0.26 1.22,0.26l-0.96 1.86 0.26 0c0.71,0 1.22,0.13 1.48,0.32 0.26,0.19 0.39,0.39 0.39,0.71 0,0.32 -0.13,0.51 -0.32,0.71 -0.19,0.19 -0.51,0.26 -0.96,0.26l-0.51 -0.06c-0.13,0 -0.39,-0.06 -0.77,-0.19l-0.19 -0.06 0 1.09 0.13 0.06c0.39,0.13 0.71,0.26 0.96,0.32 0.32,0.06 0.64,0.13 0.96,0.13 0.77,0 1.41,-0.19 1.86,-0.58 0.45,-0.39 0.71,-0.9 0.71,-1.54 0,-0.58 -0.19,-1.03 -0.58,-1.35 -0.32,-0.26 -0.84,-0.45 -1.54,-0.58l0.58 -1.22c1.03,-0.13 1.86,-0.51 2.57,-1.22 0.71,-0.71 1.03,-1.54 1.03,-2.63 0,-0.84 -0.19,-1.48 -0.64,-1.99 -0.64,-0.45 -1.35,-0.9 -2.38,-1.28z"/><g><path class="fil2" d="M171.23 131.34c-0.32,-0.26 -0.58,-0.39 -0.9,-0.51 -0.19,-0.06 -0.45,-0.13 -0.77,-0.26 1.67,-0.84 2.51,-2.12 2.51,-3.92 0,-0.71 -0.13,-1.35 -0.39,-1.93 -0.26,-0.58 -0.64,-1.09 -1.09,-1.48 -0.45,-0.39 -0.96,-0.64 -1.54,-0.77 -0.58,-0.19 -1.29,-0.26 -2.12,-0.26l-6.81 0 0 0.84 0.13 0c0.45,0.06 0.84,0.06 1.09,0.13 0.26,0.06 0.45,0.13 0.58,0.19l0.26 0.45c0.06,0.19 0.06,0.45 0.06,0.77l0 13.11c0,0.32 0,0.58 -0.06,0.77l-0.26 0.45c-0.13,0.13 -0.32,0.19 -0.58,0.19 -0.32,0.06 -0.71,0.13 -1.16,0.13l-0.13 0 0 0.77 6.62 -0c0.51,0 0.96,0 1.35,-0.06 0.39,-0.06 0.77,-0.06 1.09,-0.19 0.32,-0.06 0.64,-0.19 0.9,-0.32 0.32,-0.13 0.58,-0.32 0.84,-0.51 0.58,-0.45 1.09,-1.09 1.48,-1.8 0.39,-0.71 0.51,-1.54 0.51,-2.31 0,-0.71 -0.13,-1.41 -0.45,-1.99 -0.19,-0.58 -0.64,-1.09 -1.16,-1.48l0 0zm-6.88 -0.06l2.57 0c0.71,0 1.29,0.06 1.67,0.19 0.45,0.13 0.77,0.32 1.09,0.64 0.32,0.32 0.51,0.71 0.71,1.22 0.19,0.51 0.26,1.09 0.26,1.67 0,1.29 -0.32,2.25 -1.03,2.96 -0.64,0.71 -1.54,1.03 -2.76,1.03l-0.96 0c-0.39,0 -0.71,0 -0.9,-0.06l-0.45 -0.19 -0.19 -0.39c0,-0.19 -0.06,-0.39 -0.06,-0.71l0 -6.36 0.06 0zm4.63 -1.93c-0.32,0.32 -0.64,0.58 -1.03,0.64 -0.39,0.13 -1.03,0.19 -1.8,0.19l-1.8 -0 0 -7 2.31 0c1.09,0 1.93,0.26 2.44,0.84 0.51,0.51 0.77,1.41 0.77,2.63 0,1.16 -0.32,2.06 -0.9,2.7z"/></g><path class="fil2" d="M184.79 139.24c-0.32,0 -0.58,-0.13 -0.71,-0.45 -0.13,-0.32 -0.26,-1.03 -0.26,-1.99l0 -5.72c0,-0.45 0,-0.84 -0.06,-1.09 -0.06,-0.32 -0.13,-0.64 -0.26,-0.9 -0.26,-0.58 -0.71,-1.09 -1.41,-1.48 -0.64,-0.39 -1.41,-0.51 -2.25,-0.51 -0.58,0 -1.09,0.06 -1.61,0.26 -0.51,0.19 -0.96,0.39 -1.35,0.71 -0.39,0.26 -0.71,0.64 -0.96,1.03 -0.26,0.39 -0.39,0.84 -0.39,1.22 0,0.58 0.32,0.9 0.9,0.9 0.39,0 0.71,-0.13 0.84,-0.32 0.13,-0.19 0.26,-0.58 0.26,-1.03l0 -0.26c0,-0.51 0.19,-0.84 0.58,-1.16 0.39,-0.32 0.96,-0.45 1.67,-0.45 0.77,0 1.29,0.19 1.61,0.58 0.32,0.39 0.51,1.09 0.51,1.99l0 1.35c-0.71,0.06 -1.35,0.19 -1.93,0.39 -0.58,0.13 -1.22,0.39 -1.8,0.64 -1.03,0.45 -1.86,0.96 -2.38,1.54 -0.51,0.58 -0.77,1.35 -0.77,2.18 0,0.51 0.06,1.03 0.26,1.41 0.19,0.45 0.45,0.77 0.77,1.09 0.32,0.32 0.77,0.58 1.22,0.77 0.45,0.19 0.96,0.26 1.48,0.26 0.9,0 1.61,-0.19 2.12,-0.51 0.45,-0.32 0.9,-0.77 1.29,-1.48 0.13,0.58 0.26,1.03 0.51,1.35 0.32,0.39 0.77,0.58 1.41,0.58l0 0 0.58 -0.06c0.19,0 0.45,-0.06 0.71,-0.06l0.13 0 0 -1.03 -0.58 0.13 -0.13 0 0 0.13zm-2.89 -6.23l0 2.06c0,1.41 -0.19,2.44 -0.64,3.02 -0.39,0.58 -1.09,0.9 -2.06,0.9 -0.71,0 -1.22,-0.19 -1.61,-0.58 -0.39,-0.39 -0.58,-0.9 -0.58,-1.61 0,-1.03 0.39,-1.8 1.16,-2.44 0.84,-0.58 2.12,-1.03 3.73,-1.35z"/><path class="fil2" d="M198.47 139.37l-0.51 -0.19 -0.19 -0.32 -0.06 -0.58 0 -6.43c0,-1.03 -0.13,-1.86 -0.39,-2.44 -0.26,-0.64 -0.77,-1.22 -1.41,-1.61 -0.64,-0.45 -1.35,-0.64 -2.18,-0.64 -0.77,0 -1.41,0.19 -2.06,0.51 -0.45,0.26 -0.9,0.71 -1.29,1.22l-0.06 -1.03c0,-0.26 -0.06,-0.58 -0.13,-0.84l0 -0.19 -0.19 0.06c-0.51,0.19 -1.03,0.39 -1.48,0.45 -0.45,0.13 -0.96,0.19 -1.67,0.32l-0.13 0 0 0.64 0.51 -0c0.45,0 0.77,0.06 0.9,0.06l0.32 0.13 0.13 0.19c0,0.06 0.06,0.26 0.06,0.64l0 8.87 -0.06 0.64 -0.26 0.32 -0.45 0.19c-0.26,0.06 -0.58,0.06 -0.96,0.06l-0.13 0 0 0.77 0.19 0c0.32,-0.06 0.64,-0.06 0.9,-0.06l0.64 -0.06 0.58 0 1.16 -0 1.22 0.06c0.26,0 0.58,0.06 0.9,0.06l0.19 0 0 -0.77 -0.13 0c-0.39,0 -0.71,-0.06 -0.96,-0.06l-0.51 -0.19 -0.19 -0.32 -0.06 -0.58 0 -6.3c0,-1.09 0.26,-1.99 0.71,-2.57 0.45,-0.58 1.16,-0.84 2.12,-0.84 0.84,0 1.41,0.26 1.8,0.71 0.39,0.51 0.58,1.35 0.58,2.57l0 6.36 -0.06 0.64 -0.26 0.32 -0.51 0.19c-0.26,0.06 -0.58,0.06 -0.96,0.06l-0.13 0 0 0.77 0.19 0c0.64,-0.06 1.16,-0.13 1.54,-0.13 0.71,0 1.54,-0.06 2.31,0 0.39,0 0.9,0.06 1.61,0.13l0.19 0 0 -0.77 -0.13 0c-0.64,-0 -0.96,-0.06 -1.22,-0.06z"/><path class="fil2" d="M212.55 139.37l-0.58 -0.19 -0.39 -0.32 -0.39 -0.58 -3.79 -6.36 2.63 -2.7 0.51 -0.51 0.51 -0.32 0.58 -0.19c0.19,-0.06 0.45,-0.06 0.84,-0.13l0.13 0 0 -0.77 -0.19 0c-0.51,0.06 -0.96,0.06 -1.29,0.13 -0.32,0 -0.64,0 -1.03,0l-0.58 0 -1.03 -0.06c-0.19,0 -0.45,-0.06 -0.71,-0.06l-0.19 0 0 0.77 0.13 0c0.58,0 1.22,0.13 1.22,0.45l-0.06 0.19 -0.26 0.32 -4.37 4.5 0 -11.5 -0.19 0.06c-0.58,0.13 -1.16,0.26 -1.67,0.39 -0.51,0.06 -1.16,0.19 -1.86,0.26l-0.13 0 0 0.64 0.13 -0c0.39,0 0.71,0 0.96,0.06l0.51 0.19 0.19 0.32c0,0.19 0.06,0.39 0.06,0.71l0 13.69 -0.06 0.64 -0.19 0.32 -0.51 0.19c-0.26,0.06 -0.51,0.06 -0.96,0.06l-0.13 0 0 0.77 0.19 0c0.64,-0.06 1.16,-0.13 1.54,-0.13 0.71,0 1.61,0 2.31,0 0.39,0 0.9,0.06 1.54,0.13l0.19 0 0 -0.77 -0.13 0c-0.39,0 -0.71,-0.06 -0.9,-0.06l-0.51 -0.19 -0.26 -0.45 -0.06 -0.58 0 -3.34 1.74 -1.74 3.15 5.46 0.19 0.32 0.06 0.19 -0.19 0.26c-0.13,0 -0.32,0.06 -0.77,0.06l-0.13 0 0 0.77 0.19 0c0.26,-0.06 0.51,-0.06 0.71,-0.06l0.58 -0.06 0.51 0 0.58 0c0.39,0 0.77,0 1.09,0 0.32,0 0.77,0.06 1.35,0.13l0.19 0 0 -0.77 -0.13 0c-0.39,-0.06 -0.71,-0.13 -0.9,-0.13z"/><path class="fil2" d="M224.18 139.24c-0.32,0 -0.58,-0.13 -0.71,-0.45 -0.13,-0.32 -0.19,-1.03 -0.19,-1.99l0 -5.72c0,-0.45 0,-0.84 -0.06,-1.09 -0.06,-0.32 -0.13,-0.64 -0.26,-0.9 -0.26,-0.58 -0.71,-1.09 -1.41,-1.48 -0.71,-0.39 -1.41,-0.51 -2.25,-0.51 -0.58,0 -1.09,0.06 -1.61,0.26 -0.51,0.19 -0.96,0.39 -1.35,0.71 -0.39,0.32 -0.71,0.64 -0.96,1.03 -0.26,0.39 -0.39,0.84 -0.39,1.22 0,0.58 0.32,0.9 0.9,0.9 0.39,0 0.71,-0.13 0.84,-0.32 0.19,-0.19 0.26,-0.58 0.26,-1.03l0 -0.26c0,-0.45 0.19,-0.84 0.58,-1.16 0.39,-0.32 0.96,-0.45 1.67,-0.45 0.77,0 1.29,0.19 1.61,0.58 0.32,0.39 0.51,1.09 0.51,1.99l0 1.35c-0.71,0.06 -1.35,0.19 -1.93,0.39 -0.58,0.13 -1.22,0.39 -1.8,0.64 -1.03,0.45 -1.86,0.96 -2.38,1.54 -0.51,0.58 -0.77,1.35 -0.77,2.18 0,0.51 0.06,0.96 0.26,1.41 0.19,0.45 0.45,0.77 0.77,1.09 0.32,0.32 0.77,0.58 1.22,0.77 0.45,0.19 0.96,0.26 1.48,0.26 0.9,0 1.54,-0.19 2.12,-0.51 0.45,-0.32 0.9,-0.77 1.29,-1.48 0.13,0.58 0.26,1.03 0.51,1.35 0.32,0.39 0.77,0.58 1.41,0.58l0 0 0.58 -0.06c0.19,0 0.45,-0.06 0.71,-0.06l0.13 0 0 -1.03 -0.58 0.13 -0.19 0 0 0.13zm-2.89 -6.23l0 2.06c0,1.41 -0.19,2.44 -0.64,3.02 -0.39,0.58 -1.09,0.9 -2.06,0.9 -0.71,0 -1.22,-0.19 -1.61,-0.58 -0.39,-0.39 -0.58,-0.96 -0.58,-1.61 0,-1.03 0.39,-1.8 1.16,-2.44 0.84,-0.58 2.06,-1.03 3.73,-1.35z"/><path class="fil2" d="M232.4 133.14l-1.16 -0.45c-0.64,-0.26 -1.09,-0.45 -1.41,-0.64 -0.32,-0.19 -0.64,-0.32 -0.84,-0.51l-0.39 -0.58c-0.06,-0.19 -0.06,-0.39 -0.06,-0.64 0,-0.64 0.26,-1.16 0.71,-1.54 0.45,-0.45 1.03,-0.64 1.74,-0.64 1.54,0 2.44,0.96 2.63,3.02l0 0.13 0.77 0 0 -4.31 -0.71 0 -0.32 0.9c-0.39,-0.26 -0.77,-0.39 -1.16,-0.51 -0.45,-0.13 -0.9,-0.19 -1.35,-0.19 -1.16,0 -2.12,0.32 -2.83,1.03 -0.71,0.71 -1.09,1.54 -1.09,2.63 0,0.39 0.06,0.77 0.13,1.09 0.06,0.32 0.26,0.58 0.45,0.84 0.26,0.26 0.51,0.45 0.84,0.71 0.32,0.19 0.77,0.39 1.29,0.64l1.29 0.51c0.58,0.26 1.09,0.51 1.48,0.71 0.39,0.19 0.64,0.32 0.84,0.45l0.39 0.58c0.06,0.19 0.06,0.39 0.06,0.64 0,0.64 -0.26,1.22 -0.77,1.74 -0.51,0.45 -1.16,0.71 -1.99,0.71 -0.9,0 -1.67,-0.26 -2.18,-0.77 -0.51,-0.51 -0.9,-1.41 -1.16,-2.57l0 -0.13 -0.84 0 0 4.56 0.64 0 0.58 -0.96c0.9,0.64 1.93,0.96 3.08,0.96 0.64,0 1.16,-0.06 1.74,-0.26 0.51,-0.19 0.96,-0.45 1.35,-0.84 0.39,-0.32 0.71,-0.77 0.9,-1.22 0.19,-0.45 0.32,-1.03 0.32,-1.54 0,-0.84 -0.19,-1.48 -0.64,-1.99 -0.51,-0.71 -1.22,-1.16 -2.31,-1.54z"/><path class="fil2" d="M241.72 139.37l-0.51 -0.19 -0.19 -0.32 -0.06 -0.58 0 -11.37 -0.19 0.06c-0.51,0.13 -1.09,0.26 -1.67,0.39 -0.51,0.06 -1.16,0.19 -1.86,0.26l-0.13 0 0 0.64 0.13 -0c0.45,0 0.77,0 0.96,0.06l0.51 0.19 0.19 0.39c0,0.19 0.06,0.39 0.06,0.71l0 8.74 -0.06 0.64 -0.26 0.32 -0.45 0.19c-0.26,0.06 -0.58,0.06 -0.96,0.06l-0.13 0 0 0.77 0.19 0c0.32,-0.06 0.64,-0.06 0.9,-0.06l0.64 -0.06 0.58 0 1.16 -0 0.58 0 0.71 0.06c0.26,0 0.58,0.06 0.9,0.06l0.19 0 0 -0.77 -0.13 0c-0.51,-0.13 -0.84,-0.19 -1.09,-0.19z"/><path class="fil2" d="M262.48 139.37l-0.58 -0.19 -0.39 -0.32 -0.39 -0.58 -3.79 -6.36 2.63 -2.7 0.51 -0.51 0.51 -0.32 0.58 -0.19c0.19,-0.06 0.45,-0.06 0.84,-0.13l0.13 0 0 -0.77 -0.19 0c-0.51,0.06 -0.96,0.06 -1.29,0.13 -0.32,0 -0.64,0 -1.03,0l-0.51 0 -1.03 -0.06c-0.19,0 -0.45,-0.06 -0.71,-0.06l-0.19 0 0 0.77 0.13 0c0.51,0 1.22,0.13 1.22,0.45l-0.06 0.19 -0.26 0.32 -4.37 4.5 0 -11.5 -0.19 0.06c-0.58,0.13 -1.09,0.26 -1.67,0.39 -0.51,0.06 -1.16,0.19 -1.86,0.26l-0.13 0 0 0.64 0.13 -0c0.39,0 0.71,0 0.96,0.06l0.51 0.19 0.19 0.32c0,0.19 0.06,0.39 0.06,0.71l0 13.69 -0.06 0.64 -0.19 0.32 -0.51 0.19c-0.26,0.06 -0.58,0.06 -0.9,0.06l-0.13 0 0 0.77 0.19 0c0.64,-0.06 1.16,-0.13 1.54,-0.13 0.39,0 0.77,0 1.16,0 0.39,0 0.77,0 1.16,0 0.39,0 0.9,0.06 1.54,0.13l0.19 0 0 -0.77 -0.13 0c-0.39,0 -0.71,-0.06 -0.9,-0.06l-0.51 -0.19 -0.26 -0.32 -0.06 -0.58 0 -3.34 1.74 -1.74 3.15 5.46 0.19 0.32 0.06 0.19 -0.19 0.26c-0.13,0 -0.32,0.06 -0.77,0.06l-0.13 0 0 0.77 0.19 0c0.26,-0.06 0.51,-0.06 0.71,-0.06l0.58 -0.06 0.58 0 0.58 0c0.39,0 0.77,0 1.09,0 0.32,0 0.77,0.06 1.35,0.13l0.19 0 0 -0.77 -0.13 0c-0.64,-0.19 -0.9,-0.26 -1.09,-0.26z"/><path class="fil2" d="M275.4 138.98l-0.51 -0.19 -0.19 -0.32c0,-0.13 -0.06,-0.39 -0.06,-0.64l0 -10.99 -0.19 0.06c-0.58,0.13 -1.09,0.26 -1.67,0.39 -0.51,0.06 -1.16,0.19 -1.86,0.26l-0.13 0 0 0.64 0.13 0c0.45,0 0.77,0 0.96,0.06l0.51 0.19 0.19 0.39c0,0.13 0.06,0.39 0.06,0.71l0 5.85c0,1.29 -0.26,2.18 -0.71,2.76 -0.45,0.58 -1.16,0.84 -2.12,0.84 -0.9,0 -1.48,-0.26 -1.86,-0.71 -0.39,-0.45 -0.58,-1.29 -0.58,-2.44l0 -8.87 -0.19 0.06c-0.51,0.13 -1.09,0.26 -1.67,0.39 -0.58,0.06 -1.16,0.19 -1.86,0.26l-0.13 0 0 0.64 0.13 -0c0.45,0 0.77,0 0.96,0.06l0.51 0.19 0.19 0.39c0,0.13 0.06,0.39 0.06,0.71l0 6.36c0,0.51 0,1.03 0.06,1.48 0.06,0.39 0.19,0.77 0.32,1.03 0.26,0.64 0.71,1.16 1.35,1.48 0.64,0.32 1.35,0.51 2.18,0.51 0.84,0 1.61,-0.19 2.12,-0.58 0.45,-0.32 0.9,-0.77 1.22,-1.41l0 0.64 0 0.45 0 0.26 0 0.26 0.06 0.45 0.19 -0.06c0.58,-0.13 1.03,-0.26 1.54,-0.39 0.45,-0.06 1.09,-0.19 1.8,-0.26l0.13 0 0 -0.64 -0.13 0c-0.26,-0.19 -0.64,-0.19 -0.84,-0.26z"/><path class="fil2" d="M284.33 127.03c-0.71,0 -1.41,0.26 -1.99,0.71 -0.39,0.32 -0.71,0.71 -0.96,1.22l-0.13 -1.54 -0.06 -0.58 -0.19 0.06c-0.51,0.13 -1.03,0.26 -1.48,0.39 -0.51,0.06 -1.03,0.19 -1.67,0.26l-0.13 0 0 0.64 0.51 -0c0.32,0 0.58,0.06 0.77,0.06l0.39 0.13 0.19 0.32c0,0.13 0.06,0.32 0.06,0.58l0 8.93 -0.06 0.64 -0.26 0.32 -0.45 0.19c-0.26,0.06 -0.58,0.06 -0.96,0.06l-0.13 0 0 0.77 0.19 0c0.32,-0.06 0.64,-0.06 0.9,-0.06l0.64 -0.06 0.58 0 1.16 0 1.22 0.06c0.26,0 0.58,0.06 0.9,0.06l0.19 0 0 -0.77 -0.13 0c-0.39,0 -0.71,-0.06 -0.9,-0.06l-0.51 -0.19 -0.19 -0.32 -0.06 -0.58 0 -5.33c0,-1.41 0.19,-2.51 0.64,-3.34 0.39,-0.77 0.9,-1.22 1.54,-1.22l0.51 0.13 0.19 0.39 0 0.13 -0.13 0.39 0 0.13 0.26 0.71 0.06 0.06c0.19,0.19 0.51,0.32 0.84,0.32 0.39,0 0.64,-0.13 0.84,-0.39 0.19,-0.26 0.32,-0.58 0.32,-1.03 0,-0.64 -0.26,-1.16 -0.71,-1.54 -0.58,-0.45 -1.16,-0.64 -1.8,-0.64z"/><path class="fil2" d="M298.59 138.98l-0.51 -0.19 -0.19 -0.32c0,-0.19 -0.06,-0.39 -0.06,-0.64l0 -10.99 -0.19 0.06c-0.58,0.13 -1.09,0.26 -1.67,0.39 -0.51,0.06 -1.16,0.19 -1.86,0.26l-0.13 0 0 0.64 0.13 0c0.45,0 0.77,0 0.96,0.06l0.51 0.19 0.19 0.32c0,0.19 0.06,0.39 0.06,0.71l0 5.85c0,1.29 -0.26,2.18 -0.71,2.76 -0.45,0.58 -1.16,0.84 -2.12,0.84 -0.9,0 -1.48,-0.26 -1.86,-0.71 -0.39,-0.45 -0.58,-1.29 -0.58,-2.44l0 -8.87 -0.19 0.06c-0.51,0.13 -1.09,0.26 -1.67,0.39 -0.58,0.06 -1.16,0.19 -1.86,0.26l-0.13 0 0 0.64 0.13 -0c0.45,0 0.77,0 0.96,0.06l0.51 0.19 0.19 0.32c0,0.19 0.06,0.39 0.06,0.71l0 6.36c0,0.58 0,1.03 0.06,1.48 0.06,0.39 0.19,0.77 0.32,1.03 0.26,0.64 0.71,1.16 1.35,1.48 0.64,0.32 1.35,0.51 2.18,0.51 0.84,0 1.54,-0.19 2.12,-0.58 0.45,-0.32 0.9,-0.77 1.22,-1.41l0 0.64 0 0.45 0 0.26 0 0.26 0.06 0.45 0.19 -0.06c0.58,-0.13 1.03,-0.26 1.54,-0.39 0.45,-0.06 1.09,-0.19 1.8,-0.26l0.13 0 0 -0.64 -0.13 0c-0.26,-0.06 -0.64,-0.06 -0.84,-0.13z"/><path class="fil2" d="M305.6 139.37l-0.51 -0.19 -0.19 -0.32 -0.06 -0.58 0 -16.26 -0.19 0.06c-0.58,0.13 -1.09,0.26 -1.67,0.39 -0.51,0.06 -1.09,0.19 -1.86,0.26l-0.13 0 0 0.64 0.13 -0c0.39,0 0.71,0 0.96,0.06l0.51 0.19 0.19 0.39c0,0.19 0.06,0.39 0.06,0.71l0 13.69 -0.06 0.64 -0.26 0.32 -0.45 0.19c-0.26,0.06 -0.58,0.06 -0.96,0.06l-0.13 0 0 0.77 0.19 0c0.32,-0.06 0.64,-0.06 0.9,-0.06l0.64 -0.06 0.58 0 1.16 0 1.22 0.06c0.26,0 0.58,0.06 0.9,0.06l0.19 0 0 -0.77 -0.13 0c-0.45,-0.19 -0.77,-0.26 -1.03,-0.26z"/><path class="fil2" d="M319.16 138.98l-0.51 -0.19 -0.19 -0.32c0,-0.19 -0.06,-0.39 -0.06,-0.64l0 -10.99 -0.19 0.06c-0.58,0.13 -1.09,0.26 -1.67,0.39 -0.51,0.06 -1.16,0.19 -1.86,0.26l-0.13 0 0 0.64 0.13 0c0.45,0 0.77,0 0.96,0.06l0.51 0.19 0.19 0.39c0,0.19 0.06,0.39 0.06,0.71l0 5.85c0,1.29 -0.26,2.18 -0.71,2.76 -0.45,0.58 -1.16,0.84 -2.12,0.84 -0.9,0 -1.48,-0.26 -1.86,-0.71 -0.39,-0.45 -0.58,-1.29 -0.58,-2.44l0 -8.87 -0.19 0.06c-0.58,0.13 -1.09,0.26 -1.67,0.39 -0.51,0.06 -1.16,0.19 -1.86,0.26l-0.13 0 0 0.64 0.13 -0c0.45,0 0.77,0 0.96,0.06l0.51 0.19 0.19 0.32c0,0.13 0.06,0.39 0.06,0.71l0 6.36c0,0.58 0,1.03 0.06,1.48 0.06,0.39 0.19,0.77 0.32,1.09 0.26,0.64 0.71,1.16 1.35,1.48 0.64,0.32 1.35,0.51 2.18,0.51 0.84,0 1.61,-0.19 2.12,-0.58 0.45,-0.32 0.84,-0.77 1.22,-1.41l0 1.09 0 0.26 0 0.26 0.06 0.45 0.19 -0.06c0.58,-0.13 1.03,-0.26 1.54,-0.39 0.51,-0.06 1.09,-0.19 1.8,-0.26l0.13 0 0 -0.64 -0.13 0c-0.26,-0.19 -0.64,-0.19 -0.84,-0.26z"/><path class="fil2" d="M327.83 133.14l-1.22 -0.45c-0.64,-0.26 -1.09,-0.45 -1.41,-0.64 -0.32,-0.19 -0.64,-0.32 -0.84,-0.51l-0.39 -0.58c-0.06,-0.19 -0.06,-0.39 -0.06,-0.64 0,-0.64 0.26,-1.16 0.71,-1.54 0.45,-0.45 1.03,-0.64 1.74,-0.64 1.54,0 2.44,0.96 2.63,3.02l0 0.13 0.77 0 0 -4.31 -0.71 0 -0.32 0.9c-0.39,-0.19 -0.77,-0.39 -1.16,-0.51 -0.45,-0.13 -0.9,-0.19 -1.35,-0.19 -1.16,0 -2.12,0.32 -2.83,1.03 -0.71,0.71 -1.09,1.54 -1.09,2.63 0,0.39 0.06,0.77 0.13,1.09 0.06,0.32 0.26,0.58 0.45,0.84 0.19,0.26 0.51,0.45 0.84,0.71 0.32,0.19 0.77,0.39 1.29,0.64l1.29 0.51c0.58,0.26 1.09,0.51 1.48,0.71 0.39,0.19 0.64,0.32 0.84,0.45l0.39 0.58c0.06,0.19 0.06,0.39 0.06,0.64 0,0.71 -0.26,1.22 -0.77,1.74 -0.51,0.45 -1.16,0.71 -1.99,0.71 -0.9,0 -1.67,-0.26 -2.18,-0.77 -0.51,-0.51 -0.9,-1.41 -1.16,-2.57l0 -0.13 -0.96 0 0 4.56 0.64 0 0.58 -0.96c0.39,0.26 0.77,0.45 1.16,0.58 0.39,0.13 0.77,0.26 1.22,0.26l-0.96 1.86 0.26 0c0.9,0.06 1.29,0.19 1.48,0.32 0.26,0.19 0.39,0.39 0.39,0.71 0,0.32 -0.13,0.58 -0.32,0.71 -0.19,0.19 -0.51,0.26 -0.96,0.26l-0.51 -0.06c-0.13,0 -0.39,-0.06 -0.77,-0.19l-0.19 -0.06 0 1.09 0.13 0.06c0.39,0.13 0.71,0.26 0.96,0.32 0.32,0.06 0.64,0.13 0.96,0.13 0.77,0 1.41,-0.19 1.86,-0.58 0.45,-0.39 0.71,-0.9 0.71,-1.54 0,-0.58 -0.19,-1.03 -0.58,-1.35 -0.32,-0.26 -0.84,-0.45 -1.54,-0.58l0.58 -1.22c1.03,-0.13 1.86,-0.51 2.57,-1.22 0.71,-0.71 1.03,-1.61 1.03,-2.63 0,-0.84 -0.19,-1.48 -0.64,-1.99 -0.45,-0.45 -1.16,-0.9 -2.18,-1.28z"/><path class="fil2" d="M343.83 138.98l-0.51 -0.19 -0.19 -0.32c0,-0.13 -0.06,-0.39 -0.06,-0.64l0 -10.99 -0.19 0.06c-0.58,0.13 -1.09,0.26 -1.67,0.39 -0.58,0.06 -1.16,0.19 -1.86,0.26l-0.13 0 0 0.64 0.13 0c0.45,0 0.77,0 0.96,0.06l0.51 0.19 0.19 0.39c0,0.13 0.06,0.39 0.06,0.71l0 5.85c0,1.29 -0.26,2.18 -0.71,2.76 -0.45,0.58 -1.16,0.84 -2.12,0.84 -0.9,0 -1.48,-0.26 -1.86,-0.71 -0.39,-0.45 -0.58,-1.29 -0.58,-2.44l0 -8.87 -0.19 0.06c-0.58,0.13 -1.09,0.26 -1.67,0.39 -0.51,0.06 -1.16,0.19 -1.86,0.26l-0.13 0 0 0.64 0.13 -0c0.45,0 0.77,0 0.96,0.06l0.51 0.19 0.19 0.39c0,0.13 0.06,0.39 0.06,0.71l0 6.36c0,0.51 0,1.03 0.06,1.48 0.06,0.39 0.19,0.77 0.32,1.03 0.26,0.64 0.71,1.16 1.35,1.48 0.64,0.32 1.35,0.51 2.18,0.51 0.84,0 1.61,-0.19 2.12,-0.58 0.45,-0.32 0.84,-0.77 1.22,-1.41l0 0.64 0 0.45 0 0.26 0 0.26 0.06 0.45 0.19 -0.06c0.51,-0.13 1.03,-0.26 1.54,-0.39 0.45,-0.06 1.09,-0.19 1.8,-0.26l0.13 0 0 -0.64 -0.13 0c-0.26,-0.19 -0.64,-0.19 -0.84,-0.26z"/><g><path class="fil2" d="M356.88 138.92l-0.32 -0.26 -0.19 -0.45c-0.06,-0.26 -0.06,-0.58 -0.06,-0.9l0 -15.42 -0.19 0.06c-0.58,0.13 -1.09,0.26 -1.67,0.39 -0.51,0.06 -1.09,0.19 -1.86,0.26l-0.13 0 0 0.64 0.13 -0c0.39,0 0.71,0 0.96,0.06l0.51 0.19 0.19 0.39c0,0.13 0.06,0.39 0.06,0.71l0 4.5c-0.39,-0.58 -0.77,-1.03 -1.16,-1.35 -0.51,-0.39 -1.16,-0.58 -1.93,-0.58 -0.71,0 -1.35,0.19 -1.99,0.51 -0.58,0.32 -1.09,0.77 -1.48,1.41 -0.39,0.58 -0.77,1.29 -0.96,2.06 -0.26,0.77 -0.32,1.67 -0.32,2.7 0,0.96 0.13,1.86 0.32,2.63 0.26,0.77 0.58,1.48 0.96,2.06 0.45,0.58 0.96,1.03 1.54,1.35 0.58,0.32 1.29,0.45 1.99,0.45 1.41,0 2.44,-0.64 3.21,-1.93 0,0.26 0.06,0.45 0.06,0.64 0.06,0.32 0.13,0.71 0.19,1.09l0.06 0.19 0.77 -0.26 0.51 -0.13 0.64 -0.13c0.19,0 0.39,-0.06 0.64,-0.06l0.84 -0.13 0 -0.64 -0.71 0c-0.32,-0 -0.51,-0 -0.64,-0.07l0 0zm-2.51 -5.01c0,1.74 -0.26,3.15 -0.77,4.05 -0.51,0.9 -1.16,1.35 -2.12,1.35 -0.96,0 -1.67,-0.45 -2.18,-1.41 -0.51,-0.96 -0.77,-2.38 -0.77,-4.18 0,-1.86 0.26,-3.28 0.77,-4.24 0.51,-0.9 1.16,-1.35 2.12,-1.35 0.96,0 1.67,0.45 2.18,1.48 0.51,0.96 0.77,2.44 0.77,4.31z"/></g><path class="fil2" d="M370.7 138.98l-0.51 -0.13 -0.19 -0.32c0,-0.19 -0.06,-0.39 -0.06,-0.64l0 -10.99 -0.19 0.06c-0.51,0.13 -1.09,0.26 -1.67,0.39 -0.51,0.06 -1.16,0.19 -1.86,0.26l-0.13 0 0 0.64 0.13 0c0.45,0 0.77,0 0.96,0.06l0.51 0.19 0.19 0.32c0,0.19 0.06,0.39 0.06,0.71l0 5.85c0,1.29 -0.26,2.18 -0.71,2.76 -0.45,0.58 -1.16,0.84 -2.12,0.84 -0.9,0 -1.48,-0.26 -1.86,-0.71 -0.39,-0.45 -0.58,-1.29 -0.58,-2.44l0 -8.87 -0.19 0.06c-0.58,0.13 -1.09,0.26 -1.67,0.39 -0.51,0.06 -1.16,0.19 -1.86,0.26l-0.13 0 0 0.64 0.13 -0c0.45,0 0.77,0 0.96,0.06l0.51 0.19 0.19 0.32c0,0.19 0.06,0.39 0.06,0.71l0 6.36c0,0.58 0,1.03 0.06,1.48 0.06,0.39 0.19,0.77 0.32,1.03 0.26,0.64 0.71,1.16 1.35,1.48 0.64,0.32 1.35,0.51 2.18,0.51 0.84,0 1.61,-0.19 2.12,-0.58 0.45,-0.32 0.84,-0.77 1.22,-1.41l0 0.64 0 0.45 0 0.26 0 0.26 0.06 0.45 0.19 -0.06c0.51,-0.13 1.03,-0.26 1.54,-0.39 0.51,-0.06 1.09,-0.19 1.8,-0.26l0.13 0 0 -0.64 -0.13 0c-0.26,-0.13 -0.64,-0.13 -0.84,-0.19z"/><path class="fil2" d="M379.63 127.03c-0.71,0 -1.41,0.26 -1.99,0.71 -0.39,0.32 -0.71,0.71 -0.9,1.22l-0.13 -1.54 -0.06 -0.58 -0.19 0.06c-0.51,0.13 -1.03,0.26 -1.48,0.39 -0.51,0.06 -1.03,0.19 -1.67,0.26l-0.13 0 0 0.64 0.51 -0c0.32,0 0.58,0.06 0.77,0.06l0.39 0.13 0.19 0.32c0,0.13 0.06,0.32 0.06,0.58l0 8.93 -0.06 0.64 -0.26 0.32 -0.45 0.19c-0.26,0.06 -0.58,0.06 -0.96,0.06l-0.13 0 0 0.77 0.19 0c0.32,-0.06 0.64,-0.06 0.9,-0.06l0.64 -0.06 0.58 0 1.16 0 1.22 0.06c0.26,0 0.58,0.06 0.9,0.06l0.19 0 0 -0.77 -0.13 0c-0.39,0 -0.71,-0.06 -0.9,-0.06l-0.51 -0.19 -0.19 -0.32 -0.06 -0.58 0 -5.33c0,-1.41 0.19,-2.51 0.64,-3.34 0.39,-0.77 0.9,-1.22 1.54,-1.22l0.51 0.13 0.19 0.39 0 0.13 -0.13 0.39 0 0.13 0.26 0.71 0.06 0.06c0.26,0.19 0.51,0.32 0.84,0.32 0.39,0 0.64,-0.13 0.84,-0.39 0.19,-0.26 0.32,-0.58 0.32,-1.03 0,-0.64 -0.26,-1.16 -0.71,-1.54 -0.64,-0.45 -1.22,-0.64 -1.86,-0.64z"/><path class="fil2" d="M385.73 137.89c-0.26,-0.32 -0.64,-0.45 -1.03,-0.45 -0.39,0 -0.71,0.13 -1.03,0.45 -0.26,0.26 -0.39,0.64 -0.39,1.03 0,0.39 0.13,0.71 0.45,1.03 0.32,0.26 0.64,0.39 1.03,0.39 0.39,0 0.71,-0.13 1.03,-0.39 0.26,-0.26 0.39,-0.64 0.39,-1.03 -0.06,-0.45 -0.19,-0.77 -0.45,-1.03z"/></g><rect class="fil3" x="0.05" y="102.91" width="37.95" height="52.43"/><g><path class="fil4" d="M16.41 111.15c0,-1.19 1.01,-2.2 2.2,-2.2 1.19,0 2.2,1.01 2.2,2.2 0,1.19 -1.01,2.2 -2.2,2.2 -1.19,0 -2.2,-1.01 -2.2,-2.2l0 0zm8.93 12.83l-0.57 0 -0.06 -0.44c-0.06,-0.31 -0.19,-0.88 -0.25,-1.13 -0.13,-0.38 -0.44,-1.19 -0.94,-1.82 -0.5,-0.63 -0.88,-1.07 -1.13,-1.26 -0.19,-0.13 -0.38,-0.38 -0.82,-0.57l0 -1.01 1.01 0.38c0,0 0.69,0.31 1.19,0.25 0.44,-0.06 0.69,-0.13 0.88,-0.44l0.25 -0.38 0.5 0 0 6.41 -0.06 0zm-11.63 18.48c-1.07,-0.25 -1.51,0 -1.76,0.19 -0.06,0.06 -0.13,0.06 -0.19,0.13 -0.25,0.19 -0.5,0.57 -0.5,0.57l-0.44 0 0 -6.85 0.57 0c0,0 0.13,0.44 0.19,0.75 0.63,1.82 1.89,3.14 1.89,3.14 3.71,3.46 7.8,2.2 7.8,2.2 3.46,-1.26 4.02,-4.09 3.14,-6.04 -0.88,-1.95 -3.08,-3.08 -3.08,-3.08l-0.75 -0.44 0 4.78c0,0.31 -0.13,1.26 0.94,1.51l0.5 0.13 0 0.57 -6.73 0 0 -0.57 0.57 -0.13c1.01,-0.25 0.88,-1.26 0.94,-1.51l0 -6.92c-0.25,-0.13 -0.5,-0.25 -0.63,-0.38 -1.13,-0.63 -1.82,-0.94 -2.77,-1.63 -1.82,-1.38 -3.02,-2.89 -3.02,-5.34 0,-3.27 2.51,-5.97 5.91,-6.41 0.13,0 0.31,-0.06 0.5,-0.06l0 -0.75c0,-0.31 0.13,-1.26 -0.94,-1.51l-0.5 -0.13 0 -0.57 6.79 0 0 0.57 -0.57 0.13c-1.01,0.25 -0.88,1.26 -0.94,1.51l0 10.94 -3.84 -2.07 0 -7.1c-0.19,0 -0.31,0 -0.31,0 -1.95,0.31 -3.58,1.63 -3.58,3.46 0,1.19 0.5,2.14 1.32,2.83 0,0 0.5,0.5 1.57,1.19 1.07,0.63 5.22,2.95 5.22,2.95 0,0 2.45,1.32 3.27,1.95 0.38,0.25 0.82,0.69 0.82,0.69 1.45,1.32 2.58,3.27 2.58,5.41 0,0.63 -0.06,1.26 -0.25,1.89 0,0 -0.88,3.52 -4.9,4.84 0,0 -1.13,0.5 -2.39,0.57 0,0 0,0 -0.19,0 0.57,0.38 0.94,1.07 0.94,1.82 0,0.57 -0.19,0.94 -0.5,1.32 -0.19,0.25 -0.57,0.88 -0.75,1.19 -0.5,0.69 -0.88,1.13 -0.88,1.13l-0.57 0c0,0 0.25,-1.01 0.19,-1.19 -0.06,-0.31 -0.13,-0.38 -0.44,-0.57 -0.82,-0.31 -1.38,-1.01 -1.38,-1.89 0,-0.88 0.5,-1.57 1.19,-1.95 -0.82,-0.13 -1.57,-0.44 -2.45,-0.82 0,0 -1.19,-0.44 -1.45,-0.5l-0.13 0.06z"/></g></g></g></svg>