<svg xmlns="http://www.w3.org/2000/svg" xmlns:xlink="http://www.w3.org/1999/xlink" id="Layer_1" x="0px" y="0px" viewBox="0 0 629 216.9" style="enable-background:new 0 0 629 216.9;" xml:space="preserve"><style type="text/css">	.st0{fill:#F18800;}	.st1{fill:#4A4B60;}	.st2{fill-rule:evenodd;clip-rule:evenodd;fill:#4A4B60;}	.st3{fill-rule:evenodd;clip-rule:evenodd;fill:#F18800;}	.st4{fill:#1D3A8B;}	.st5{fill:#1E3480;}	.st6{fill:#FFFFFF;}</style><g>	<path class="st0" d="M29.2,74.1c3,3,6.7,4.5,11.2,4.5c4.5,0,8.2-1.5,11-4.6c2.9-3.1,4.3-7,4.3-11.7c0-5.1-1.5-9.1-4.4-12.2  c-2.9-3.1-6.6-4.6-11-4.6c-4.6,0-8.3,1.6-11.2,4.7c-2.9,3.1-4.3,7.2-4.3,12.1C24.7,67.2,26.2,71.1,29.2,74.1 M9.4,116.3V32.1h16.1  V39h0.2c4.4-5.1,10.4-7.7,18-7.7c8.2,0,14.9,2.9,20.3,8.8c5.4,5.8,8,13.3,8,22.2c0,9.2-2.7,16.6-8.1,22.3  c-5.4,5.7-12.3,8.6-20.7,8.6c-7.4,0-13.2-2.6-17.5-7.8l-0.2,0.1v30.9H9.4z"></path>	<path class="st0" d="M80.1,92V32.1h16.1v8.7h0.2c4.7-6.4,10.7-9.6,18-9.6h1.2v17.5c-1.1-0.1-2.6-0.1-4.3-0.1  c-4.8,0-8.6,1.5-11.2,4.4c-2.7,2.9-4,6.7-4,11.3V92H80.1z"></path>	<path class="st1" d="M211,93.1c-9.4,0-17.5-2.9-24.3-8.8l7.7-11.2c5,4.6,10.5,6.9,16.7,6.9c2.3,0,4.1-0.4,5.3-1.3  c1.3-0.9,1.9-2.1,1.9-3.6c0-1.2-0.8-2.3-2.3-3.1c-1.5-0.9-4.4-2-8.5-3.4c-5.9-2-10.4-4.4-13.7-7.3c-3.2-2.9-4.8-7-4.8-12.3  c0-5.3,2-9.6,6.1-12.9c4.1-3.3,9.3-4.9,15.6-4.9c8.1,0,15.4,2.5,21.8,7.5l-7.8,11.9c-4.3-4.2-9.1-6.4-14.3-6.4  c-1.5,0-2.8,0.4-3.9,1.1s-1.7,1.8-1.7,3.3c0,2,2.9,4.2,8.8,6.4c3.3,1.2,5.7,2.1,7.2,2.8c1.6,0.6,3.4,1.5,5.5,2.7  c2.1,1.2,3.6,2.3,4.5,3.5c0.9,1.1,1.6,2.6,2.3,4.4c0.7,1.8,1,3.8,1,6.2c0,5.6-2,10-5.9,13.5C224.2,91.4,218.5,93.1,211,93.1"></path>	<path class="st1" d="M269.1,45.2c-3.3,0-6.1,0.9-8.5,2.8c-2.4,1.8-4.1,4.4-5,7.8H282C280.2,48.7,275.9,45.2,269.1,45.2 M297.9,61.5  c0,1.9-0.1,3.8-0.4,5.8h-42c1,3.6,2.9,6.4,5.6,8.5c2.8,2,6.2,3.1,10.2,3.1c6,0,10.9-2.2,14.6-6.7l10.4,9.7  c-5.9,7.6-14.6,11.4-26.1,11.4c-9.2,0-16.8-2.9-22.6-8.6c-5.8-5.7-8.8-13.2-8.8-22.5c0-9.1,2.8-16.5,8.5-22.2  c5.7-5.7,13-8.6,21.9-8.6c8.4,0,15.3,2.8,20.6,8.5C295.3,45.4,297.9,52.7,297.9,61.5z"></path>	<polygon class="st1" points="320.4,92 296.9,32.1 314.1,32.1 327.9,72.3 328,72.3 342.1,32.1 358.9,32.1 335.4,92  "></polygon>	<polygon class="st1" points="364.9,92 364.9,1.8 380.8,1.8 380.8,57.2 381.1,57.2 402.4,32.1 421.3,32.1 400.3,56.1 421.8,92   403.7,92 388.9,66.9 380.8,75.7 380.8,92  "></polygon>	<path class="st1" d="M427.4,92V32.1h16.1V92H427.4z M435.6,24c-2.9,0-5.4-1-7.3-2.9c-1.9-1.9-2.9-4.3-2.9-7c0-2.7,1-5,2.9-6.9  c1.9-1.9,4.4-2.9,7.3-2.9c2.9,0,5.3,1,7.2,2.9c2,1.9,2.9,4.2,2.9,6.9c0,2.8-1,5.1-2.9,7C440.9,23,438.4,24,435.6,24z"></path>	<polygon class="st1" points="463.4,116.3 474,88.3 450,32.1 467.2,32.1 481.8,68.9 482,68.9 495.6,32.1 511.9,32.1 479.7,116.3    "></polygon>	<path class="st1" d="M543.4,78.7c4.2,0,7.8-1.5,10.8-4.5c2.9-3,4.4-6.9,4.4-11.8c0-4.8-1.5-8.8-4.4-12c-2.9-3.2-6.5-4.8-10.8-4.8  c-4.4,0-8.1,1.5-11,4.6c-2.9,3.1-4.4,7.1-4.4,12.2c0,4.8,1.4,8.7,4.3,11.8C535.2,77.1,538.9,78.7,543.4,78.7 M540.3,93.1  c-8.3,0-15.2-2.9-20.5-8.6c-5.4-5.7-8-13.2-8-22.3c0-9,2.7-16.4,8-22.2c5.4-5.8,12.1-8.8,20.2-8.8c7.4,0,13.3,2.6,17.6,7.8l0.2-0.1  v-6.9h16.1V92h-15.3v-7.1l-0.2-0.1C554,90.3,548,93.1,540.3,93.1z"></path>	<path class="st1" d="M603.7,93.1c-5.3,0-9.5-1.7-12.5-5.1c-3-3.4-4.5-8.4-4.5-14.9V45.4h-7.1V32.1h7.1V12.6l16.1-1.7v21.2h16.2  v13.4h-16.2v25.4c0,2.7,0.4,4.7,1.2,5.9c0.8,1.2,2.1,1.8,4,1.8c2.3,0,4.8-0.7,7.6-2.1l4,12.9C614.9,91.9,609.6,93.1,603.7,93.1"></path>	<path class="st2" d="M163.5,59.5c-5.7-8.5-1.8-8.3-13.2-8.2c-0.6,0-1.1,0.5-1.1,1.1v19.5h4.5c0.4,2.3,2.4,4,4.8,4  c2.4,0,4.4-1.7,4.8-4c4.9-0.2,5.7-1.3,6.4-6C170.3,62.2,164.9,61.5,163.5,59.5z M152.5,61.2c-0.6,0-1.1-0.5-1.1-1.1v-5.1  c0-0.6,0.5-1.1,1.1-1.1h3.3c0.4,0,0.8,0.2,0.9,0.6l2.6,5.1c0.2,0.3,0.2,0.7,0,1c-0.2,0.3-0.5,0.5-0.9,0.5H152.5z M158.6,73.6  c-1.5,0-2.7-1.2-2.7-2.7c0-1.5,1.2-2.7,2.7-2.7c1.5,0,2.7,1.2,2.7,2.7C161.2,72.4,160,73.6,158.6,73.6z"></path>	<path class="st2" d="M114.2,60c0.1,0,0.1,0,0.2,0h4.1c0.1,0,0.1,0,0.2,0c0.1,0,0.3-0.1,0.4-0.1c0.7-0.3,1.1-1.1,0.9-1.8  c-0.1-0.6-0.6-1.1-1.1-1.2c-0.1,0-0.1,0-0.2,0c-0.1,0-0.1,0-0.2,0h-4.1c-0.2,0-0.2,0-0.4,0.1c-0.1,0-0.3,0.1-0.4,0.2  c-0.6,0.3-0.9,1.1-0.7,1.7C113,59.4,113.6,59.9,114.2,60z"></path>	<path class="st2" d="M146.7,62.4L146.7,62.4l-0.5-0.1h0h-9.5h-29.3c-0.2,0-0.2,0-0.4,0.1c-0.1,0-0.3,0.1-0.4,0.2  c-0.6,0.3-0.9,1.1-0.7,1.7c0.1,0.7,0.7,1.2,1.3,1.3c0.1,0,0.1,0,0.2,0h18c0.1,0,0.2,0,0.3,0c0.1,0,0.1,0,0.2,0  c0.6,0.2,1,0.6,1.1,1.2c0.1,0.7-0.2,1.5-0.9,1.8c-0.1,0.1-0.3,0.1-0.4,0.1c-0.1,0-0.1,0-0.2,0h-4c-0.2,0-0.2,0-0.4,0.1  c-0.1,0-0.3,0.1-0.4,0.2c-0.6,0.3-0.9,1.1-0.7,1.7c0.1,0.7,0.7,1.2,1.3,1.3c0.1,0,0.1,0,0.2,0h25.3v-6.4V62.4z"></path>	<path class="st2" d="M146.2,60h0.5v-0.1v-3.1v-2.6c0-5-3.7-10.2-10.8-10.2h-15.5c-0.2,0-0.2,0-0.4,0.1c-0.1,0-0.3,0.1-0.4,0.2  c-0.6,0.3-0.9,1.1-0.7,1.7c0.1,0.7,0.7,1.2,1.3,1.3c0.1,0,0.1,0,0.2,0h3.1c0.1,0,0.2,0,0.3,0c0.1,0,0.1,0,0.2,0  c0.6,0.2,1,0.6,1.1,1.2c0.1,0.7-0.2,1.5-0.9,1.8c-0.1,0.1-0.3,0.1-0.4,0.1c-0.1,0-0.1,0-0.2,0h-3.1c-0.2,0-0.2,0-0.4,0.1  c-0.1,0-0.3,0.1-0.4,0.2c-0.6,0.3-0.9,1.1-0.7,1.7c0.1,0.7,0.7,1.2,1.3,1.3c0.1,0,0.1,0,0.2,0h6.8c0.1,0,0.2,0,0.3,0  c0.1,0,0.1,0,0.2,0c0.6,0.2,1,0.6,1.1,1.2c0.1,0.7-0.2,1.5-0.9,1.8c-0.1,0.1-0.3,0.1-0.4,0.1c-0.1,0-0.1,0-0.2,0h-3.3  c-0.2,0-0.2,0-0.4,0.1c-0.1,0-0.3,0.1-0.4,0.2c-0.6,0.3-0.9,1.1-0.7,1.7c0.1,0.7,0.7,1.2,1.3,1.3c0.1,0,0.1,0,0.2,0h12.8H146.2  L146.2,60z"></path>	<path class="st3" d="M151.4,30.7c-9.6,0-18.1,4.3-23.9,11h8.7c4.2-3.2,9.5-5,15.2-5c5.7,0,11,1.9,15.2,5h0v0  c6.3,4.7,10.3,12.1,10.3,20.5c0,14.1-11.4,25.5-25.5,25.5c-9.7,0-18.1-5.4-22.4-13.3h-6.6c4.8,11.3,16,19.3,29,19.3  c17.4,0,31.5-14.1,31.5-31.5C182.9,44.8,168.8,30.7,151.4,30.7z"></path></g><g>	<path class="st4" d="M94.6,163.1l-1.2,6.3h1.3l0.1-0.2c0.3-1,0.6-1.8,0.9-2.4c0.3-0.6,0.5-1,0.8-1.3c0.3-0.3,0.7-0.5,1.1-0.6  c0.5-0.1,1-0.2,1.7-0.2h2.3v22.6c0,0.5,0,0.9-0.1,1.2l-0.4,0.7c-0.2,0.1-0.5,0.3-0.9,0.3c-0.4,0.1-1,0.1-1.7,0.2l-0.2,0v1.3l0.3,0  c0.6-0.1,1.2-0.1,1.6-0.1c0.5-0.1,0.9-0.1,1.2-0.1l1.9-0.1l1.9,0.1c0.4,0,0.7,0.1,1.2,0.1c0.5,0,1,0.1,1.6,0.1l0.3,0v-1.3l-0.2,0  c-0.8-0.1-1.3-0.1-1.7-0.2c-0.4-0.1-0.7-0.2-0.9-0.4l-0.4-0.7c0-0.3-0.1-0.7-0.1-1.2v-22.6h2.9c0.6,0,1.2,0.1,1.6,0.2  c0.4,0.1,0.8,0.3,1,0.6c0.3,0.3,0.6,0.7,0.8,1.3c0.3,0.6,0.5,1.4,0.8,2.3l0,0.2h1.3l-1.2-6.3H94.6z"></path>	<path class="st4" d="M120.8,167.6c0.6,0,1.1-0.2,1.5-0.6c0.4-0.4,0.6-1,0.6-1.6c0-0.6-0.2-1.1-0.6-1.6c-0.4-0.4-0.9-0.6-1.5-0.6  c-0.6,0-1.1,0.2-1.6,0.6c-0.4,0.4-0.6,1-0.6,1.6c0,0.6,0.2,1.1,0.6,1.6C119.7,167.4,120.2,167.6,120.8,167.6"></path>	<path class="st4" d="M127.9,167.6c0.6,0,1.1-0.2,1.6-0.6c0.4-0.4,0.7-1,0.7-1.6c0-0.6-0.2-1.1-0.6-1.6c-0.4-0.4-1-0.6-1.6-0.6  c-0.6,0-1.1,0.2-1.6,0.6c-0.4,0.4-0.6,1-0.6,1.6c0,0.6,0.2,1.1,0.6,1.6C126.8,167.4,127.3,167.6,127.9,167.6"></path>	<path class="st4" d="M132.5,189.2l-0.8-0.3l-0.3-0.5c0-0.3-0.1-0.6-0.1-1v-17.1l-0.3,0.1c-0.9,0.2-1.7,0.4-2.6,0.6  c-0.8,0.1-1.8,0.3-2.9,0.4l-0.2,0v1h0.2c0.7,0,1.2,0,1.5,0.1l0.8,0.3l0.3,0.6c0,0.3,0.1,0.6,0.1,1.1v9.1c0,2-0.4,3.4-1.1,4.3  c-0.7,0.9-1.8,1.3-3.3,1.3c-1.4,0-2.3-0.4-2.9-1.1c-0.6-0.7-0.9-2-0.9-3.8v-13.8l-0.3,0.1c-0.8,0.2-1.7,0.4-2.6,0.6  c-0.8,0.1-1.8,0.3-2.9,0.4l-0.2,0v1h0.2c0.7,0,1.2,0,1.5,0.1l0.8,0.3l0.3,0.5c0,0.3,0.1,0.6,0.1,1.1v9.9c0,0.9,0,1.6,0.1,2.3  c0.1,0.6,0.3,1.2,0.5,1.7c0.4,1,1.1,1.8,2.1,2.3c1,0.5,2.1,0.8,3.4,0.8c1.3,0,2.5-0.3,3.3-0.9c0.7-0.5,1.4-1.2,2-2.2l0.1,3.2  l0.3-0.1c0.8-0.2,1.6-0.4,2.4-0.6c0.7-0.1,1.7-0.3,2.8-0.4l0.2,0v-1h-0.2C133.4,189.3,132.9,189.3,132.5,189.2"></path>	<path class="st4" d="M146.4,170.6c-1.1,0-2.2,0.4-3.1,1.1c-0.6,0.5-1.1,1.1-1.4,1.9l-0.2-2.4l-0.1-0.9l-0.3,0.1  c-0.8,0.2-1.6,0.4-2.3,0.6c-0.8,0.1-1.6,0.3-2.6,0.4l-0.2,0v1h0.8c0.5,0,0.9,0.1,1.2,0.1l0.6,0.2l0.3,0.5c0,0.2,0.1,0.5,0.1,0.9  l0,13.9l-0.1,1l-0.4,0.5l-0.7,0.3c-0.4,0.1-0.9,0.1-1.5,0.1l-0.2,0v1.2l0.3,0c0.5-0.1,1-0.1,1.4-0.1l1-0.1l0.9,0h1.8l0.9,0l1.1,0.1  c0.4,0,0.9,0.1,1.4,0.1l0.3,0v-1.2l-0.2,0c-0.6,0-1.1-0.1-1.4-0.1l-0.8-0.3l-0.3-0.5l-0.1-0.9v-8.3c0-2.2,0.3-3.9,1-5.2  c0.6-1.2,1.4-1.9,2.4-1.9l0.8,0.2l0.3,0.6v0.2l-0.1,0.4l-0.1,0.2v0.2l0.4,1.1l0.1,0.1c0.3,0.3,0.8,0.5,1.3,0.5c0.6,0,1-0.2,1.3-0.6  c0.3-0.4,0.5-0.9,0.5-1.6c0-1-0.4-1.8-1.1-2.4C148.3,170.9,147.5,170.6,146.4,170.6"></path>	<path class="st4" d="M169.4,189.8l-0.9-0.3l-0.6-0.5l-0.6-0.9l-5.9-9.9l4.1-4.2l0.8-0.8l0.8-0.5l1-0.3c0.3-0.1,0.7-0.1,1.3-0.2  l0.2,0v-1.2l-0.3,0c-0.8,0.1-1.5,0.1-2,0.2c-0.5,0-1,0-1.6,0h-0.8l-1.6-0.1c-0.3,0-0.7-0.1-1.1-0.1l-0.3,0v1.2l0.2,0  c0.8,0,1.9,0.2,1.9,0.7l-0.1,0.3l-0.4,0.5l-6.8,7v-17.9l-0.3,0.1c-0.9,0.2-1.7,0.4-2.6,0.6c-0.8,0.1-1.8,0.3-2.9,0.4l-0.2,0v1h0.2  c0.6,0,1.2,0,1.5,0.1l0.8,0.3l0.3,0.5c0,0.3,0.1,0.6,0.1,1.1l0,21.3l-0.1,1l-0.3,0.5l-0.8,0.3c-0.4,0.1-0.9,0.1-1.5,0.1l-0.2,0v1.2  l0.3,0c1-0.1,1.8-0.2,2.4-0.2c1.1,0,2.5,0,3.6,0c0.6,0,1.4,0.1,2.4,0.2l0.3,0v-1.2l-0.2,0c-0.6,0-1.1-0.1-1.4-0.1l-0.8-0.3  l-0.4-0.5l-0.1-0.9v-5.2l2.7-2.7l4.9,8.5l0.3,0.5l0.1,0.3l-0.3,0.4c-0.2,0-0.5,0.1-1.2,0.1l-0.2,0v1.2l0.3,0  c0.4-0.1,0.8-0.1,1.1-0.1l0.9-0.1l0.9,0h0.9c0.6,0,1.2,0,1.7,0c0.5,0,1.2,0.1,2.1,0.2l0.3,0v-1.2l-0.2,0  C170.2,189.9,169.7,189.8,169.4,189.8"></path>	<path class="st4" d="M179.1,189.8l-0.8-0.3L178,189l-0.1-0.9v-17.7l-0.3,0.1c-0.9,0.2-1.7,0.4-2.6,0.6c-0.8,0.1-1.8,0.3-2.9,0.4  l-0.2,0v1h0.2c0.7,0,1.2,0,1.5,0.1l0.8,0.3l0.3,0.6c0,0.3,0.1,0.6,0.1,1.1l0,13.6l-0.1,1l-0.4,0.5l-0.7,0.3  c-0.4,0.1-0.9,0.1-1.5,0.1l-0.2,0v1.2l0.3,0c0.5-0.1,1-0.1,1.4-0.1l1-0.1l0.9,0h1.8l1.9,0.1c0.4,0,0.9,0.1,1.4,0.1l0.3,0v-1.2  l-0.2,0C180,189.9,179.5,189.8,179.1,189.8"></path>	<path class="st4" d="M176.5,167.7c0.6,0,1.1-0.2,1.5-0.6c0.4-0.4,0.6-1,0.6-1.6c0-0.6-0.2-1.1-0.6-1.5c-0.4-0.4-0.9-0.6-1.5-0.6  c-0.6,0-1.1,0.2-1.6,0.6c-0.4,0.4-0.6,0.9-0.6,1.5c0,0.6,0.2,1.1,0.6,1.6C175.3,167.5,175.9,167.7,176.5,167.7"></path>	<path class="st4" d="M197.9,171.1l-1.5,0l-1.7-0.2v1.2l0.2,0c0.8,0,1.4,0.1,1.7,0.2l0.4,0.6l0,0.2l-4.7,12.6l-4.4-12.1l-0.2-0.6  l-0.1-0.3l0.4-0.4c0.3-0.1,0.8-0.2,1.6-0.3l0.2,0v-1.2l-0.3,0c-0.9,0.1-1.6,0.1-2.1,0.2c-0.5,0-1.1,0-1.7,0c-0.7,0-1.2,0-1.7,0  c-0.5,0-1.2-0.1-2.1-0.2l-0.3,0v1.2l0.2,0c0.6,0,1,0.1,1.3,0.1l0.8,0.2l0.4,0.4l0.3,0.7l6,16.4l-1.1,2.9c-0.5,1.3-1.1,2.2-1.9,2.7  c-0.7,0.5-1.7,0.8-3,0.8l-0.2,0v2.4h0.4c1.6,0,2.9-0.4,3.8-1.1c0.9-0.7,1.7-1.9,2.4-3.6l7.6-20.6l0.3-0.7l0.5-0.4l0.8-0.3  c0.3-0.1,0.8-0.1,1.3-0.2l0.2,0V171l-2.2,0.1C199.1,171.1,198.5,171.1,197.9,171.1"></path>	<path class="st4" d="M216.5,184.3c-0.5,3.6-2.1,5.3-5,5.3c-1.8,0-3.2-0.7-4-2.2c-0.9-1.5-1.3-3.8-1.3-6.8h12.4V180  c0-3-0.6-5.3-1.9-6.9c-1.3-1.6-3.1-2.5-5.5-2.5c-2.5,0-4.5,1-5.9,2.8c-1.4,1.9-2.1,4.5-2.1,7.7c0,3.3,0.7,5.8,2.1,7.5  c1.4,1.7,3.5,2.6,6.2,2.6c2,0,3.7-0.6,4.9-1.8c1.3-1.2,2-3,2.2-5.2l0-0.3h-2.1L216.5,184.3z M206.3,178.6c0.3-2.1,0.8-3.7,1.6-4.8  c0.8-1.1,1.8-1.7,3.2-1.7c2.7,0,4.2,2.1,4.5,6.5H206.3z"></path>	<path class="st4" d="M239.5,163.2l-0.1,0c-0.4,0-0.7,0-1.1,0.1l-0.9,0h-1.9l-1,0c-0.3,0-0.7-0.1-1.2-0.1c-0.4-0.1-1-0.1-1.6-0.2  l-0.3,0v1.3l0.2,0c0.7,0.1,1.3,0.1,1.7,0.2c0.4,0.1,0.7,0.2,0.9,0.3l0.4,0.7c0.1,0.3,0.1,0.7,0.1,1.2v20.7c0,0.5,0,0.9-0.1,1.2  l-0.4,0.7c-0.2,0.1-0.5,0.3-0.9,0.3c-0.4,0.1-1,0.1-1.7,0.2l-0.2,0v1.3l0.3,0c0.6-0.1,1.2-0.1,1.6-0.1c0.5-0.1,0.9-0.1,1.2-0.1  l1.9-0.1l1.9,0.1c0.4,0,0.7,0.1,1.2,0.1c0.5,0,1,0.1,1.6,0.1l0.3,0v-1.3l-0.2,0c-0.8-0.1-1.3-0.1-1.7-0.2c-0.4-0.1-0.7-0.2-0.9-0.4  l-0.4-0.7c-0.1-0.3-0.1-0.8-0.1-1.2v-20.7c0-0.5,0-0.9,0.1-1.2l0.4-0.7c0.2-0.2,0.5-0.3,0.9-0.3c0.4-0.1,1-0.2,1.7-0.2l0.2,0V163  l-0.3,0C240.5,163.1,240,163.1,239.5,163.2"></path>	<path class="st4" d="M236.5,160.4c0.6,0,1.1-0.2,1.5-0.6c0.4-0.4,0.6-1,0.6-1.6c0-0.6-0.2-1.1-0.6-1.6c-0.4-0.4-0.9-0.7-1.5-0.7  c-0.6,0-1.1,0.2-1.6,0.6c-0.4,0.4-0.6,1-0.6,1.6c0,0.6,0.2,1.1,0.7,1.6C235.4,160.2,235.9,160.4,236.5,160.4"></path>	<path class="st4" d="M253.5,180.1l-1.8-0.7c-1-0.4-1.7-0.7-2.2-1c-0.5-0.3-1-0.5-1.3-0.8l-0.6-0.9c-0.1-0.3-0.1-0.6-0.1-1  c0-1,0.4-1.8,1.1-2.4c0.7-0.7,1.6-1,2.7-1c2.4,0,3.8,1.5,4.1,4.7l0,0.2h1.2v-6.7h-1.1l-0.5,1.4c-0.7-0.4-1.3-0.6-1.8-0.8  c-0.7-0.2-1.4-0.3-2.1-0.3c-1.8,0-3.3,0.5-4.4,1.6c-1.1,1.1-1.7,2.4-1.7,4.1c0,0.6,0.1,1.2,0.2,1.7c0.2,0.5,0.4,0.9,0.7,1.3  c0.3,0.4,0.8,0.7,1.3,1.1c0.6,0.3,1.2,0.6,2,1l2,0.8c0.9,0.4,1.7,0.8,2.3,1.1c0.6,0.3,1,0.5,1.3,0.7l0.6,0.9c0.1,0.3,0.1,0.6,0.1,1  c0,1.1-0.4,1.9-1.2,2.7c-0.8,0.7-1.8,1.1-3.1,1.1c-1.4,0-2.6-0.4-3.4-1.2c-0.8-0.8-1.4-2.2-1.8-4l0-0.2h-1.3l0,7.1h1l0.9-1.5  c0.6,0.4,1.2,0.7,1.8,0.9c0.6,0.2,1.2,0.4,1.9,0.4l-1.5,2.9l0.4,0c1.1,0,1.9,0.2,2.3,0.5c0.4,0.3,0.6,0.6,0.6,1.1  c0,0.5-0.2,0.8-0.5,1.1c-0.3,0.3-0.8,0.4-1.5,0.4l-0.8-0.1c-0.2,0-0.6-0.1-1.2-0.3l-0.3-0.1v1.7l0.2,0.1c0.6,0.2,1.1,0.4,1.5,0.5  c0.5,0.1,1,0.2,1.5,0.2c1.2,0,2.2-0.3,2.9-0.9c0.7-0.6,1.1-1.4,1.1-2.4c0-0.9-0.3-1.6-0.9-2.1c-0.5-0.4-1.3-0.7-2.4-0.9l0.9-1.9  c1.6-0.2,2.9-0.8,4-1.9c1.1-1.1,1.6-2.4,1.6-4.1c0-1.3-0.3-2.3-1-3.1C256.2,181.4,255.1,180.7,253.5,180.1"></path>	<path class="st4" d="M288.4,177.3c-0.5-0.4-0.9-0.6-1.4-0.8c-0.3-0.1-0.7-0.2-1.2-0.4c2.6-1.3,3.9-3.3,3.9-6.1c0-1.1-0.2-2.1-0.6-3  c-0.4-0.9-1-1.7-1.7-2.3c-0.7-0.6-1.5-1-2.4-1.2c-0.9-0.3-2-0.4-3.3-0.4h-10.6v1.3l0.2,0c0.7,0.1,1.3,0.1,1.7,0.2  c0.4,0.1,0.7,0.2,0.9,0.3l0.4,0.7c0.1,0.3,0.1,0.7,0.1,1.2v20.4c0,0.5,0,0.9-0.1,1.2l-0.4,0.7c-0.2,0.2-0.5,0.3-0.9,0.3  c-0.5,0.1-1.1,0.2-1.8,0.2l-0.2,0v1.2h10.3c0.8,0,1.5,0,2.1-0.1c0.6-0.1,1.2-0.1,1.7-0.3c0.5-0.1,1-0.3,1.4-0.5  c0.5-0.2,0.9-0.5,1.3-0.8c0.9-0.7,1.7-1.7,2.3-2.8c0.6-1.1,0.8-2.4,0.8-3.6c0-1.1-0.2-2.2-0.7-3.1  C289.9,178.7,289.2,177.9,288.4,177.3 M277.7,177.2h4c1.1,0,2,0.1,2.6,0.3c0.7,0.2,1.2,0.5,1.7,1c0.5,0.5,0.8,1.1,1.1,1.9  c0.3,0.8,0.4,1.7,0.4,2.6c0,2-0.5,3.5-1.6,4.6c-1,1.1-2.4,1.6-4.3,1.6h-1.5c-0.6,0-1.1,0-1.4-0.1l-0.7-0.3l-0.3-0.6  c0-0.3-0.1-0.6-0.1-1.1V177.2z M284.9,174.2c-0.5,0.5-1,0.9-1.6,1c-0.6,0.2-1.6,0.3-2.8,0.3h-2.8v-10.9h3.6c1.7,0,3,0.4,3.8,1.3  c0.8,0.8,1.2,2.2,1.2,4.1C286.3,171.8,285.8,173.2,284.9,174.2z"></path>	<path class="st4" d="M309.5,189.6c-0.5,0-0.9-0.2-1.1-0.7c-0.2-0.5-0.4-1.6-0.4-3.1v-8.9c0-0.7,0-1.3-0.1-1.7  c-0.1-0.5-0.2-1-0.4-1.4c-0.4-0.9-1.1-1.7-2.2-2.3c-1-0.6-2.2-0.8-3.5-0.8c-0.9,0-1.7,0.1-2.5,0.4c-0.8,0.3-1.5,0.6-2.1,1.1  c-0.6,0.4-1.1,1-1.5,1.6c-0.4,0.6-0.6,1.3-0.6,1.9c0,0.9,0.5,1.4,1.4,1.4c0.6,0,1.1-0.2,1.3-0.5c0.2-0.3,0.4-0.9,0.4-1.6v-0.4  c0-0.8,0.3-1.3,0.9-1.8c0.6-0.5,1.5-0.7,2.6-0.7c1.2,0,2,0.3,2.5,0.9c0.5,0.6,0.8,1.7,0.8,3.1v2.1c-1.1,0.1-2.1,0.3-3,0.6  c-0.9,0.2-1.9,0.6-2.8,1c-1.6,0.7-2.9,1.5-3.7,2.4c-0.8,0.9-1.2,2.1-1.2,3.4c0,0.8,0.1,1.6,0.4,2.2c0.3,0.7,0.7,1.2,1.2,1.7  c0.5,0.5,1.2,0.9,1.9,1.2c0.7,0.3,1.5,0.4,2.3,0.4c1.4,0,2.5-0.3,3.3-0.8c0.7-0.5,1.4-1.2,2-2.3c0.2,0.9,0.4,1.6,0.8,2.1  c0.5,0.6,1.2,0.9,2.2,0.9h0l0.9-0.1c0.3,0,0.7-0.1,1.1-0.1l0.2,0v-1.6l-0.9,0.2H309.5z M305,179.9v3.2c0,2.2-0.3,3.8-1,4.7  c-0.6,0.9-1.7,1.4-3.2,1.4c-1.1,0-1.9-0.3-2.5-0.9c-0.6-0.6-0.9-1.4-0.9-2.5c0-1.6,0.6-2.8,1.8-3.8  C300.5,181.1,302.5,180.4,305,179.9z"></path>	<path class="st4" d="M330.8,189.8l-0.8-0.3l-0.3-0.5l-0.1-0.9v-10c0-1.6-0.2-2.9-0.6-3.8c-0.4-1-1.2-1.9-2.2-2.5  c-1-0.7-2.1-1-3.4-1c-1.2,0-2.2,0.3-3.2,0.8c-0.7,0.4-1.4,1.1-2,1.9l-0.1-1.6c0-0.4-0.1-0.9-0.2-1.3l0-0.3l-0.3,0.1  c-0.8,0.3-1.6,0.6-2.3,0.7c-0.7,0.2-1.5,0.3-2.6,0.5l-0.2,0v1h0.8c0.7,0,1.2,0.1,1.4,0.1l0.5,0.2l0.2,0.3c0,0.1,0.1,0.4,0.1,1  l0,13.8l-0.1,1l-0.4,0.5l-0.7,0.3c-0.4,0.1-0.9,0.1-1.5,0.1l-0.2,0v1.2l0.3,0c0.5-0.1,1-0.1,1.4-0.1l1-0.1l0.9,0h1.8l1.9,0.1  c0.4,0,0.9,0.1,1.4,0.1l0.3,0v-1.2l-0.2,0c-0.6,0-1.1-0.1-1.5-0.1l-0.8-0.3l-0.3-0.5l-0.1-0.9v-9.8c0-1.7,0.4-3.1,1.1-4  c0.7-0.9,1.8-1.3,3.3-1.3c1.3,0,2.2,0.4,2.8,1.1c0.6,0.8,0.9,2.1,0.9,4l0,9.9l-0.1,1l-0.4,0.5l-0.8,0.3c-0.4,0.1-0.9,0.1-1.5,0.1  l-0.2,0v1.2l0.3,0c1-0.1,1.8-0.2,2.4-0.2c1.1,0,2.4-0.1,3.6,0c0.6,0,1.4,0.1,2.5,0.2l0.3,0v-1.2l-0.2,0  C331.7,189.9,331.2,189.8,330.8,189.8"></path>	<path class="st4" d="M352.7,189.8l-0.9-0.3l-0.6-0.5l-0.6-0.9l-5.9-9.9l4.1-4.2l0.8-0.8l0.8-0.5l0.9-0.3c0.3-0.1,0.7-0.1,1.3-0.2  l0.2,0v-1.2l-0.3,0c-0.8,0.1-1.5,0.1-2,0.2c-0.5,0-1,0-1.6,0H348l-1.6-0.1c-0.3,0-0.7-0.1-1.1-0.1l-0.3,0v1.2l0.2,0  c0.9,0,1.9,0.2,1.9,0.7l-0.1,0.3l-0.4,0.5l-6.8,7v-17.9l-0.3,0.1c-0.9,0.2-1.8,0.4-2.6,0.6c-0.8,0.1-1.8,0.3-2.9,0.4l-0.2,0v1h0.2  c0.6,0,1.1,0,1.5,0.1l0.8,0.3l0.3,0.5c0,0.3,0.1,0.6,0.1,1.1l0,21.3l-0.1,1l-0.3,0.5l-0.8,0.3c-0.4,0.1-0.8,0.1-1.5,0.1l-0.2,0v1.2  l0.3,0c1-0.1,1.8-0.2,2.4-0.2c1.1,0,2.5,0,3.6,0c0.6,0,1.4,0.1,2.4,0.2l0.3,0v-1.2l-0.2,0c-0.6,0-1.1-0.1-1.4-0.1l-0.8-0.3L340,189  l-0.1-0.9v-5.2l2.7-2.7l4.9,8.5l0.3,0.5l0.1,0.3l-0.3,0.4c-0.2,0-0.5,0.1-1.2,0.1l-0.2,0v1.2l0.3,0c0.4-0.1,0.8-0.1,1.1-0.1  l0.9-0.1l0.8,0h0.9c0.6,0,1.2,0,1.7,0c0.5,0,1.2,0.1,2.1,0.2l0.3,0v-1.2l-0.2,0C353.5,189.9,353,189.8,352.7,189.8"></path>	<path class="st4" d="M370.8,189.6c-0.5,0-0.9-0.2-1.1-0.7c-0.2-0.5-0.3-1.6-0.3-3.1v-8.9c0-0.7,0-1.3-0.1-1.7  c-0.1-0.5-0.2-1-0.4-1.4c-0.4-0.9-1.1-1.7-2.2-2.3c-1.1-0.6-2.2-0.8-3.5-0.8c-0.9,0-1.7,0.1-2.5,0.4c-0.8,0.3-1.5,0.6-2.1,1.1  c-0.6,0.5-1.1,1-1.5,1.6c-0.4,0.6-0.6,1.3-0.6,1.9c0,0.9,0.5,1.4,1.4,1.4c0.6,0,1.1-0.2,1.3-0.5c0.3-0.3,0.4-0.9,0.4-1.6v-0.4  c0-0.7,0.3-1.3,0.9-1.8c0.6-0.5,1.5-0.7,2.6-0.7c1.2,0,2,0.3,2.5,0.9c0.5,0.6,0.8,1.7,0.8,3.1v2.1c-1.1,0.1-2.1,0.3-3,0.6  c-0.9,0.2-1.9,0.6-2.8,1c-1.6,0.7-2.9,1.5-3.7,2.4c-0.8,0.9-1.2,2.1-1.2,3.4c0,0.8,0.1,1.5,0.4,2.2c0.3,0.7,0.7,1.2,1.2,1.7  c0.5,0.5,1.2,0.9,1.9,1.2c0.7,0.3,1.5,0.4,2.3,0.4c1.4,0,2.4-0.3,3.3-0.8c0.7-0.5,1.4-1.2,2-2.3c0.2,0.9,0.4,1.6,0.8,2.1  c0.5,0.6,1.2,0.9,2.2,0.9h0l0.9-0.1c0.3,0,0.7-0.1,1.1-0.1l0.2,0v-1.6l-0.9,0.2H370.8z M366.3,179.9v3.2c0,2.2-0.3,3.8-1,4.7  c-0.6,0.9-1.7,1.4-3.2,1.4c-1.1,0-1.9-0.3-2.5-0.9c-0.6-0.6-0.9-1.5-0.9-2.5c0-1.6,0.6-2.8,1.8-3.8  C361.8,181.1,363.7,180.4,366.3,179.9z"></path>	<path class="st4" d="M383.6,180.1l-1.8-0.7c-1-0.4-1.7-0.7-2.2-1c-0.5-0.3-1-0.5-1.3-0.8l-0.6-0.9c-0.1-0.3-0.1-0.6-0.1-1  c0-1,0.4-1.8,1.1-2.4c0.7-0.7,1.6-1,2.7-1c2.4,0,3.8,1.5,4.1,4.7l0,0.2h1.2v-6.7h-1.1l-0.5,1.4c-0.6-0.4-1.2-0.6-1.8-0.8  c-0.7-0.2-1.4-0.3-2.1-0.3c-1.8,0-3.3,0.5-4.4,1.6c-1.1,1.1-1.7,2.4-1.7,4.1c0,0.6,0.1,1.2,0.2,1.7c0.1,0.5,0.4,0.9,0.7,1.3  c0.4,0.4,0.8,0.7,1.3,1.1c0.5,0.3,1.2,0.6,2,1l2,0.8c0.9,0.4,1.7,0.8,2.3,1.1c0.6,0.3,1,0.5,1.3,0.7l0.6,0.9c0.1,0.3,0.1,0.6,0.1,1  c0,1-0.4,1.9-1.2,2.7c-0.8,0.7-1.8,1.1-3.1,1.1c-1.4,0-2.6-0.4-3.4-1.2c-0.8-0.8-1.4-2.2-1.8-4l0-0.2h-1.3l0,7.1h1l0.9-1.5  c1.4,1,3,1.5,4.8,1.5c1,0,1.8-0.1,2.7-0.4c0.8-0.3,1.5-0.7,2.1-1.3c0.6-0.5,1.1-1.2,1.4-1.9c0.3-0.7,0.5-1.6,0.5-2.4  c0-1.3-0.3-2.3-1-3.1C386.4,181.4,385.3,180.7,383.6,180.1"></path>	<path class="st4" d="M398.1,189.8l-0.8-0.3l-0.3-0.5l-0.1-0.9v-17.7l-0.3,0.1c-0.8,0.2-1.7,0.4-2.6,0.6c-0.8,0.1-1.8,0.3-2.9,0.4  l-0.2,0v1h0.2c0.7,0,1.2,0,1.5,0.1l0.8,0.3l0.3,0.6c0,0.3,0.1,0.6,0.1,1.1l0,13.6l-0.1,1l-0.4,0.5l-0.7,0.3  c-0.4,0.1-0.9,0.1-1.5,0.1l-0.2,0v1.2l0.3,0c0.5-0.1,1-0.1,1.4-0.1l1-0.1l0.9,0h1.8l0.9,0l1.1,0.1c0.4,0,0.9,0.1,1.4,0.1l0.3,0  v-1.2l-0.2,0C399,189.9,398.5,189.8,398.1,189.8"></path>	<path class="st4" d="M430.4,189.8l-0.9-0.3l-0.6-0.5l-0.6-0.9l-5.9-9.9l4.1-4.2l0.8-0.8l0.8-0.5l0.9-0.3c0.3-0.1,0.7-0.1,1.3-0.2  l0.2,0v-1.2l-0.3,0c-0.8,0.1-1.5,0.1-2,0.2c-0.5,0-1,0-1.6,0h-0.8l-1.6-0.1c-0.3,0-0.7-0.1-1.1-0.1l-0.3,0v1.2l0.2,0  c0.8,0,1.9,0.2,1.9,0.7l-0.1,0.3l-0.4,0.5l-6.8,7v-17.9l-0.3,0.1c-0.9,0.2-1.7,0.4-2.6,0.6c-0.8,0.1-1.8,0.3-2.9,0.4l-0.2,0v1h0.2  c0.6,0,1.1,0,1.5,0.1l0.8,0.3l0.3,0.5c0,0.3,0.1,0.6,0.1,1.1l0,21.3l-0.1,1l-0.3,0.5l-0.8,0.3c-0.4,0.1-0.9,0.1-1.4,0.1l-0.2,0v1.2  l0.3,0c1-0.1,1.8-0.2,2.4-0.2c0.6,0,1.2,0,1.8,0c0.6,0,1.2,0,1.8,0c0.6,0,1.4,0.1,2.4,0.2l0.3,0v-1.2l-0.2,0  c-0.6,0-1.1-0.1-1.4-0.1l-0.8-0.3l-0.4-0.5l-0.1-0.9v-5.2l2.7-2.7l4.9,8.5l0.3,0.5l0.1,0.3l-0.3,0.4c-0.2,0-0.5,0.1-1.2,0.1l-0.2,0  v1.2l0.3,0c0.4-0.1,0.8-0.1,1.1-0.1l0.9-0.1l0.9,0h0.9c0.6,0,1.2,0,1.7,0c0.5,0,1.2,0.1,2.1,0.2l0.3,0v-1.2l-0.2,0  C431.1,189.9,430.7,189.8,430.4,189.8"></path>	<path class="st4" d="M450.5,189.2l-0.8-0.3l-0.3-0.5c0-0.2-0.1-0.6-0.1-1v-17.1l-0.3,0.1c-0.9,0.2-1.7,0.4-2.6,0.6  c-0.8,0.1-1.8,0.3-2.9,0.4l-0.2,0v1h0.2c0.7,0,1.2,0,1.5,0.1l0.8,0.3l0.3,0.6c0,0.2,0.1,0.6,0.1,1.1v9.1c0,2-0.4,3.4-1.1,4.3  c-0.7,0.9-1.8,1.3-3.3,1.3c-1.4,0-2.3-0.4-2.9-1.1c-0.6-0.7-0.9-2-0.9-3.8v-13.8l-0.3,0.1c-0.8,0.2-1.7,0.4-2.6,0.6  c-0.9,0.1-1.8,0.3-2.9,0.4l-0.2,0v1h0.2c0.7,0,1.2,0,1.5,0.1l0.8,0.3l0.3,0.6c0,0.2,0.1,0.6,0.1,1.1v9.9c0,0.8,0,1.6,0.1,2.3  c0.1,0.6,0.3,1.2,0.5,1.6c0.4,1,1.1,1.8,2.1,2.3c1,0.5,2.1,0.8,3.4,0.8c1.3,0,2.5-0.3,3.3-0.9c0.7-0.5,1.4-1.2,1.9-2.2l0,1v0.7  l0,0.4l0,0.4l0.1,0.7l0.3-0.1c0.9-0.2,1.6-0.4,2.4-0.6c0.7-0.1,1.7-0.3,2.8-0.4l0.2,0v-1h-0.2C451.4,189.3,450.8,189.3,450.5,189.2  "></path>	<path class="st4" d="M464.4,170.6c-1.1,0-2.2,0.4-3.1,1.1c-0.6,0.5-1.1,1.1-1.5,1.9l-0.2-2.4l-0.1-0.9l-0.3,0.1  c-0.8,0.2-1.6,0.4-2.3,0.6c-0.8,0.1-1.6,0.3-2.6,0.4l-0.2,0v1h0.8c0.5,0,0.9,0.1,1.2,0.1l0.6,0.2l0.3,0.5c0,0.2,0.1,0.5,0.1,0.9  l0,13.9l-0.1,1l-0.4,0.5l-0.7,0.3c-0.4,0.1-0.9,0.1-1.5,0.1l-0.2,0v1.2l0.3,0c0.5-0.1,1-0.1,1.4-0.1l1-0.1l0.9,0h1.8l1.9,0.1  c0.4,0,0.9,0.1,1.4,0.1l0.3,0v-1.2l-0.2,0c-0.6,0-1.1-0.1-1.4-0.1l-0.8-0.3l-0.3-0.5l-0.1-0.9v-8.3c0-2.2,0.3-3.9,1-5.2  c0.6-1.2,1.4-1.9,2.4-1.9l0.8,0.2l0.3,0.6v0.2l-0.2,0.6v0.2l0.4,1.1l0.1,0.1c0.3,0.3,0.8,0.5,1.3,0.5c0.6,0,1-0.2,1.3-0.6  c0.3-0.4,0.5-0.9,0.5-1.6c0-1-0.4-1.8-1.1-2.4C466.3,170.9,465.4,170.6,464.4,170.6"></path>	<path class="st4" d="M486.6,189.2l-0.8-0.3l-0.3-0.5c0-0.3-0.1-0.6-0.1-1v-17.1l-0.3,0.1c-0.9,0.2-1.7,0.4-2.6,0.6  c-0.8,0.1-1.8,0.3-2.9,0.4l-0.2,0v1h0.2c0.7,0,1.2,0,1.5,0.1l0.8,0.3l0.3,0.5c0,0.3,0.1,0.6,0.1,1.1v9.1c0,2-0.4,3.4-1.1,4.3  c-0.7,0.9-1.8,1.3-3.3,1.3c-1.4,0-2.3-0.4-2.9-1.1c-0.6-0.7-0.9-2-0.9-3.8v-13.8l-0.3,0.1c-0.8,0.2-1.7,0.4-2.6,0.6  c-0.9,0.1-1.8,0.3-2.9,0.4l-0.2,0v1h0.2c0.7,0,1.2,0,1.5,0.1l0.8,0.3l0.3,0.5c0,0.3,0.1,0.6,0.1,1.1v9.9c0,0.9,0,1.6,0.1,2.3  c0.1,0.6,0.3,1.2,0.5,1.6c0.4,1,1.1,1.8,2.1,2.3c1,0.5,2.1,0.8,3.4,0.8c1.3,0,2.4-0.3,3.3-0.9c0.7-0.5,1.4-1.2,1.9-2.2l0,1l0,0.7  l0,0.4l0,0.4l0.1,0.7l0.3-0.1c0.9-0.2,1.6-0.4,2.4-0.6c0.7-0.1,1.7-0.3,2.8-0.4l0.2,0v-1h-0.2C487.5,189.3,486.9,189.3,486.6,189.2  "></path>	<path class="st4" d="M497.5,189.8l-0.8-0.3l-0.3-0.5l-0.1-0.9v-25.3l-0.3,0.1c-0.9,0.2-1.7,0.4-2.6,0.6c-0.8,0.1-1.7,0.3-2.9,0.4  l-0.2,0v1h0.2c0.6,0,1.1,0,1.5,0.1l0.8,0.3l0.3,0.6c0,0.3,0.1,0.6,0.1,1.1l0,21.3l-0.1,1l-0.4,0.5l-0.7,0.3  c-0.4,0.1-0.9,0.1-1.5,0.1l-0.2,0v1.2l0.3,0c0.5-0.1,1-0.1,1.4-0.1l1-0.1l0.9,0h1.8l1.9,0.1c0.4,0,0.9,0.1,1.4,0.1l0.3,0v-1.2  l-0.2,0C498.4,189.9,497.9,189.8,497.5,189.8"></path>	<path class="st4" d="M518.6,189.2l-0.8-0.3l-0.3-0.5c0-0.3-0.1-0.6-0.1-1v-17.1l-0.3,0.1c-0.9,0.2-1.7,0.4-2.6,0.6  c-0.8,0.1-1.8,0.3-2.9,0.4l-0.2,0v1h0.2c0.7,0,1.2,0,1.5,0.1l0.8,0.3l0.3,0.6c0,0.3,0.1,0.6,0.1,1.1v9.1c0,2-0.4,3.4-1.1,4.3  c-0.7,0.9-1.8,1.3-3.3,1.3c-1.4,0-2.3-0.4-2.9-1.1c-0.6-0.7-0.9-2-0.9-3.8v-13.8l-0.3,0.1c-0.9,0.2-1.7,0.4-2.6,0.6  c-0.8,0.1-1.8,0.3-2.9,0.4l-0.2,0v1h0.2c0.7,0,1.2,0,1.5,0.1l0.8,0.3l0.3,0.5c0,0.2,0.1,0.6,0.1,1.1v9.9c0,0.9,0,1.6,0.1,2.3  c0.1,0.6,0.3,1.2,0.5,1.7c0.4,1,1.1,1.8,2.1,2.3c1,0.5,2.1,0.8,3.4,0.8c1.3,0,2.5-0.3,3.3-0.9c0.7-0.5,1.3-1.2,1.9-2.2l0,1.7l0,0.4  l0,0.4l0.1,0.7l0.3-0.1c0.9-0.2,1.6-0.4,2.4-0.6c0.8-0.1,1.7-0.3,2.8-0.4l0.2,0v-1h-0.2C519.5,189.3,518.9,189.3,518.6,189.2"></path>	<path class="st4" d="M532.1,180.1l-1.9-0.7c-1-0.4-1.7-0.7-2.2-1c-0.5-0.3-1-0.5-1.3-0.8l-0.6-0.9c-0.1-0.3-0.1-0.6-0.1-1  c0-1,0.4-1.8,1.1-2.4c0.7-0.7,1.6-1,2.7-1c2.4,0,3.8,1.5,4.1,4.7l0,0.2h1.2v-6.7H534l-0.5,1.4c-0.6-0.3-1.2-0.6-1.8-0.8  c-0.7-0.2-1.4-0.3-2.1-0.3c-1.8,0-3.3,0.5-4.4,1.6c-1.1,1.1-1.7,2.4-1.7,4.1c0,0.6,0.1,1.2,0.2,1.7c0.1,0.5,0.4,0.9,0.7,1.3  c0.3,0.4,0.8,0.7,1.3,1.1c0.5,0.3,1.2,0.6,2,1l2,0.8c0.9,0.4,1.7,0.8,2.3,1.1c0.6,0.3,1,0.5,1.3,0.7l0.6,0.9c0.1,0.3,0.1,0.6,0.1,1  c0,1.1-0.4,1.9-1.2,2.7c-0.8,0.7-1.8,1.1-3.1,1.1c-1.4,0-2.6-0.4-3.4-1.2c-0.8-0.8-1.4-2.2-1.8-4l0-0.2H523l0,7.1h1l0.9-1.5  c0.6,0.4,1.2,0.7,1.8,0.9c0.6,0.2,1.2,0.4,1.9,0.4l-1.5,2.9l0.4,0c1.4,0.1,2,0.3,2.3,0.5c0.4,0.3,0.6,0.6,0.6,1.1  c0,0.5-0.2,0.9-0.5,1.1c-0.3,0.3-0.8,0.4-1.5,0.4l-0.8-0.1c-0.2,0-0.6-0.1-1.2-0.3l-0.3-0.1v1.7l0.2,0.1c0.6,0.2,1.1,0.4,1.5,0.5  c0.5,0.1,1,0.2,1.5,0.2c1.2,0,2.2-0.3,2.9-0.9c0.7-0.6,1.1-1.4,1.1-2.4c0-0.9-0.3-1.6-0.9-2.1c-0.5-0.4-1.3-0.7-2.4-0.9l0.9-1.9  c1.6-0.2,2.9-0.8,4-1.9c1.1-1.1,1.6-2.5,1.6-4.1c0-1.3-0.3-2.3-1-3.1C534.8,181.4,533.7,180.7,532.1,180.1"></path>	<path class="st4" d="M557,189.2l-0.8-0.3l-0.3-0.5c0-0.2-0.1-0.6-0.1-1v-17.1l-0.3,0.1c-0.9,0.2-1.7,0.4-2.6,0.6  c-0.9,0.1-1.8,0.3-2.9,0.4l-0.2,0v1h0.2c0.7,0,1.2,0,1.5,0.1l0.8,0.3l0.3,0.6c0,0.2,0.1,0.6,0.1,1.1v9.1c0,2-0.4,3.4-1.1,4.3  c-0.7,0.9-1.8,1.3-3.3,1.3c-1.4,0-2.3-0.4-2.9-1.1c-0.6-0.7-0.9-2-0.9-3.8v-13.8l-0.3,0.1c-0.9,0.2-1.7,0.4-2.6,0.6  c-0.8,0.1-1.8,0.3-2.9,0.4l-0.2,0v1h0.2c0.7,0,1.2,0,1.5,0.1l0.8,0.3l0.3,0.6c0,0.2,0.1,0.6,0.1,1.1v9.9c0,0.8,0,1.6,0.1,2.3  c0.1,0.6,0.3,1.2,0.5,1.6c0.4,1,1.1,1.8,2.1,2.3c1,0.5,2.1,0.8,3.4,0.8c1.3,0,2.5-0.3,3.3-0.9c0.7-0.5,1.3-1.2,1.9-2.2l0,1l0,0.7  l0,0.4l0,0.4l0.1,0.7l0.3-0.1c0.8-0.2,1.6-0.4,2.4-0.6c0.7-0.1,1.7-0.3,2.8-0.4l0.2,0v-1h-0.2C557.9,189.3,557.3,189.3,557,189.2"></path>	<path class="st4" d="M577.3,189.1l-0.5-0.4l-0.3-0.7c-0.1-0.4-0.1-0.9-0.1-1.4v-24l-0.3,0.1c-0.9,0.2-1.7,0.4-2.6,0.6  c-0.8,0.1-1.7,0.3-2.9,0.4l-0.2,0v1h0.2c0.6,0,1.1,0,1.5,0.1l0.8,0.3l0.3,0.6c0,0.2,0.1,0.6,0.1,1.1v7c-0.6-0.9-1.2-1.6-1.8-2.1  c-0.8-0.6-1.8-0.9-3-0.9c-1.1,0-2.1,0.3-3.1,0.8c-0.9,0.5-1.7,1.2-2.3,2.2c-0.6,0.9-1.2,2-1.5,3.2c-0.4,1.2-0.5,2.6-0.5,4.2  c0,1.5,0.2,2.9,0.5,4.1c0.4,1.2,0.9,2.3,1.5,3.2c0.7,0.9,1.5,1.6,2.4,2.1c0.9,0.5,2,0.7,3.1,0.7c2.2,0,3.8-1,5-3  c0,0.4,0.1,0.7,0.1,1c0.1,0.5,0.2,1.1,0.3,1.7l0.1,0.3l1.2-0.4l0.8-0.2l1-0.2c0.3,0,0.6-0.1,1-0.1l1.3-0.2v-1l-1.1,0  C577.8,189.2,577.5,189.2,577.3,189.1 M573.4,181.3c0,2.7-0.4,4.9-1.2,6.3c-0.8,1.4-1.8,2.1-3.3,2.1c-1.5,0-2.6-0.7-3.4-2.2  c-0.8-1.5-1.2-3.7-1.2-6.5c0-2.9,0.4-5.1,1.2-6.6c0.8-1.4,1.8-2.1,3.3-2.1c1.5,0,2.6,0.7,3.4,2.3  C573,176.1,573.4,178.4,573.4,181.3z"></path>	<path class="st4" d="M598.8,189.2L598,189l-0.3-0.5c0-0.3-0.1-0.6-0.1-1v-17.1l-0.3,0.1c-0.8,0.2-1.7,0.4-2.6,0.6  c-0.8,0.1-1.8,0.3-2.9,0.4l-0.2,0v1h0.2c0.7,0,1.2,0,1.5,0.1l0.8,0.3l0.3,0.5c0,0.3,0.1,0.6,0.1,1.1v9.1c0,2-0.4,3.4-1.1,4.3  c-0.7,0.9-1.8,1.3-3.3,1.3c-1.4,0-2.3-0.4-2.9-1.1c-0.6-0.7-0.9-2-0.9-3.8v-13.8l-0.3,0.1c-0.9,0.2-1.7,0.4-2.6,0.6  c-0.8,0.1-1.8,0.3-2.9,0.4l-0.2,0v1h0.2c0.7,0,1.2,0,1.5,0.1l0.8,0.3l0.3,0.5c0,0.3,0.1,0.6,0.1,1.1v9.9c0,0.9,0,1.6,0.1,2.3  c0.1,0.6,0.3,1.2,0.5,1.6c0.4,1,1.1,1.8,2.1,2.3c1,0.5,2.1,0.8,3.4,0.8c1.3,0,2.5-0.3,3.3-0.9c0.7-0.5,1.3-1.2,1.9-2.2l0,1v0.7  l0,0.4l0,0.4l0.1,0.7l0.3-0.1c0.8-0.2,1.6-0.4,2.4-0.6c0.8-0.1,1.7-0.3,2.8-0.4l0.2,0v-1h-0.2C599.7,189.3,599.1,189.3,598.8,189.2  "></path>	<path class="st4" d="M612.7,170.6c-1.1,0-2.2,0.4-3.1,1.1c-0.6,0.5-1.1,1.1-1.4,1.9l-0.2-2.4l-0.1-0.9l-0.3,0.1  c-0.8,0.2-1.6,0.4-2.3,0.6c-0.8,0.1-1.6,0.3-2.6,0.4l-0.2,0v1h0.8c0.5,0,0.9,0.1,1.2,0.1l0.6,0.2l0.3,0.5c0,0.2,0.1,0.5,0.1,0.9  l0,13.9l-0.1,1l-0.4,0.5l-0.7,0.3c-0.4,0.1-0.9,0.1-1.5,0.1l-0.2,0v1.2l0.3,0c0.5-0.1,1-0.1,1.4-0.1l1-0.1l0.9,0h1.8l1.9,0.1  c0.4,0,0.9,0.1,1.4,0.1l0.3,0v-1.2l-0.2,0c-0.6,0-1.1-0.1-1.4-0.1l-0.8-0.3l-0.3-0.5l-0.1-0.9v-8.3c0-2.2,0.3-3.9,1-5.2  c0.6-1.2,1.4-1.9,2.4-1.9l0.8,0.2l0.3,0.6v0.2l-0.2,0.6v0.2l0.4,1.1l0.1,0.1c0.4,0.3,0.8,0.5,1.3,0.5c0.6,0,1-0.2,1.3-0.6  c0.3-0.4,0.5-0.9,0.5-1.6c0-1-0.4-1.8-1.1-2.4C614.6,170.9,613.7,170.6,612.7,170.6"></path>	<path class="st4" d="M622.2,187.5c-0.4-0.5-1-0.7-1.6-0.7c-0.6,0-1.1,0.2-1.6,0.7c-0.4,0.4-0.6,1-0.6,1.6c0,0.6,0.2,1.1,0.7,1.6  c0.5,0.4,1,0.6,1.6,0.6c0.6,0,1.1-0.2,1.6-0.6c0.4-0.4,0.6-1,0.6-1.6C622.8,188.4,622.6,187.9,622.2,187.5"></path>	<path class="st4" d="M94.6,163.1l-1.2,6.3h1.3l0.1-0.2c0.3-1,0.6-1.8,0.9-2.4c0.3-0.6,0.5-1,0.8-1.3c0.3-0.3,0.7-0.5,1.1-0.6  c0.5-0.1,1-0.2,1.7-0.2h2.3v22.6c0,0.5,0,0.9-0.1,1.2l-0.4,0.7c-0.2,0.1-0.5,0.3-0.9,0.3c-0.4,0.1-1,0.1-1.7,0.2l-0.2,0v1.3l0.3,0  c0.6-0.1,1.2-0.1,1.6-0.1c0.5-0.1,0.9-0.1,1.2-0.1l1.9-0.1l1.9,0.1c0.4,0,0.7,0.1,1.2,0.1c0.5,0,1,0.1,1.6,0.1l0.3,0v-1.3l-0.2,0  c-0.8-0.1-1.3-0.1-1.7-0.2c-0.4-0.1-0.7-0.2-0.9-0.4l-0.4-0.7c0-0.3-0.1-0.7-0.1-1.2v-22.6h2.9c0.6,0,1.2,0.1,1.6,0.2  c0.4,0.1,0.8,0.3,1,0.6c0.3,0.3,0.6,0.7,0.8,1.3c0.3,0.6,0.5,1.4,0.8,2.3l0,0.2h1.3l-1.2-6.3H94.6z"></path>	<path class="st4" d="M120.8,167.6c0.6,0,1.1-0.2,1.5-0.6c0.4-0.4,0.6-1,0.6-1.6c0-0.6-0.2-1.1-0.6-1.6c-0.4-0.4-0.9-0.6-1.5-0.6  c-0.6,0-1.1,0.2-1.6,0.6c-0.4,0.4-0.6,1-0.6,1.6c0,0.6,0.2,1.1,0.6,1.6C119.7,167.4,120.2,167.6,120.8,167.6"></path>	<path class="st4" d="M127.9,167.6c0.6,0,1.1-0.2,1.6-0.6c0.4-0.4,0.7-1,0.7-1.6c0-0.6-0.2-1.1-0.6-1.6c-0.4-0.4-1-0.6-1.6-0.6  c-0.6,0-1.1,0.2-1.6,0.6c-0.4,0.4-0.6,1-0.6,1.6c0,0.6,0.2,1.1,0.6,1.6C126.8,167.4,127.3,167.6,127.9,167.6"></path>	<path class="st4" d="M132.5,189.2l-0.8-0.3l-0.3-0.5c0-0.3-0.1-0.6-0.1-1v-17.1l-0.3,0.1c-0.9,0.2-1.7,0.4-2.6,0.6  c-0.8,0.1-1.8,0.3-2.9,0.4l-0.2,0v1h0.2c0.7,0,1.2,0,1.5,0.1l0.8,0.3l0.3,0.6c0,0.3,0.1,0.6,0.1,1.1v9.1c0,2-0.4,3.4-1.1,4.3  c-0.7,0.9-1.8,1.3-3.3,1.3c-1.4,0-2.3-0.4-2.9-1.1c-0.6-0.7-0.9-2-0.9-3.8v-13.8l-0.3,0.1c-0.8,0.2-1.7,0.4-2.6,0.6  c-0.8,0.1-1.8,0.3-2.9,0.4l-0.2,0v1h0.2c0.7,0,1.2,0,1.5,0.1l0.8,0.3l0.3,0.5c0,0.3,0.1,0.6,0.1,1.1v9.9c0,0.9,0,1.6,0.1,2.3  c0.1,0.6,0.3,1.2,0.5,1.7c0.4,1,1.1,1.8,2.1,2.3c1,0.5,2.1,0.8,3.4,0.8c1.3,0,2.5-0.3,3.3-0.9c0.7-0.5,1.4-1.2,2-2.2l0.1,3.2  l0.3-0.1c0.8-0.2,1.6-0.4,2.4-0.6c0.7-0.1,1.7-0.3,2.8-0.4l0.2,0v-1h-0.2C133.4,189.3,132.9,189.3,132.5,189.2"></path>	<path class="st4" d="M146.4,170.6c-1.1,0-2.2,0.4-3.1,1.1c-0.6,0.5-1.1,1.1-1.4,1.9l-0.2-2.4l-0.1-0.9l-0.3,0.1  c-0.8,0.2-1.6,0.4-2.3,0.6c-0.8,0.1-1.6,0.3-2.6,0.4l-0.2,0v1h0.8c0.5,0,0.9,0.1,1.2,0.1l0.6,0.2l0.3,0.5c0,0.2,0.1,0.5,0.1,0.9  l0,13.9l-0.1,1l-0.4,0.5l-0.7,0.3c-0.4,0.1-0.9,0.1-1.5,0.1l-0.2,0v1.2l0.3,0c0.5-0.1,1-0.1,1.4-0.1l1-0.1l0.9,0h1.8l0.9,0l1.1,0.1  c0.4,0,0.9,0.1,1.4,0.1l0.3,0v-1.2l-0.2,0c-0.6,0-1.1-0.1-1.4-0.1l-0.8-0.3l-0.3-0.5l-0.1-0.9v-8.3c0-2.2,0.3-3.9,1-5.2  c0.6-1.2,1.4-1.9,2.4-1.9l0.8,0.2l0.3,0.6v0.2l-0.1,0.4l-0.1,0.2v0.2l0.4,1.1l0.1,0.1c0.3,0.3,0.8,0.5,1.3,0.5c0.6,0,1-0.2,1.3-0.6  c0.3-0.4,0.5-0.9,0.5-1.6c0-1-0.4-1.8-1.1-2.4C148.3,170.9,147.5,170.6,146.4,170.6"></path>	<path class="st4" d="M169.4,189.8l-0.9-0.3l-0.6-0.5l-0.6-0.9l-5.9-9.9l4.1-4.2l0.8-0.8l0.8-0.5l1-0.3c0.3-0.1,0.7-0.1,1.3-0.2  l0.2,0v-1.2l-0.3,0c-0.8,0.1-1.5,0.1-2,0.2c-0.5,0-1,0-1.6,0h-0.8l-1.6-0.1c-0.3,0-0.7-0.1-1.1-0.1l-0.3,0v1.2l0.2,0  c0.8,0,1.9,0.2,1.9,0.7l-0.1,0.3l-0.4,0.5l-6.8,7v-17.9l-0.3,0.1c-0.9,0.2-1.7,0.4-2.6,0.6c-0.8,0.1-1.8,0.3-2.9,0.4l-0.2,0v1h0.2  c0.6,0,1.2,0,1.5,0.1l0.8,0.3l0.3,0.5c0,0.3,0.1,0.6,0.1,1.1l0,21.3l-0.1,1l-0.3,0.5l-0.8,0.3c-0.4,0.1-0.9,0.1-1.5,0.1l-0.2,0v1.2  l0.3,0c1-0.1,1.8-0.2,2.4-0.2c1.1,0,2.5,0,3.6,0c0.6,0,1.4,0.1,2.4,0.2l0.3,0v-1.2l-0.2,0c-0.6,0-1.1-0.1-1.4-0.1l-0.8-0.3  l-0.4-0.5l-0.1-0.9v-5.2l2.7-2.7l4.9,8.5l0.3,0.5l0.1,0.3l-0.3,0.4c-0.2,0-0.5,0.1-1.2,0.1l-0.2,0v1.2l0.3,0  c0.4-0.1,0.8-0.1,1.1-0.1l0.9-0.1l0.9,0h0.9c0.6,0,1.2,0,1.7,0c0.5,0,1.2,0.1,2.1,0.2l0.3,0v-1.2l-0.2,0  C170.2,189.9,169.7,189.8,169.4,189.8"></path>	<path class="st4" d="M179.1,189.8l-0.8-0.3L178,189l-0.1-0.9v-17.7l-0.3,0.1c-0.9,0.2-1.7,0.4-2.6,0.6c-0.8,0.1-1.8,0.3-2.9,0.4  l-0.2,0v1h0.2c0.7,0,1.2,0,1.5,0.1l0.8,0.3l0.3,0.6c0,0.3,0.1,0.6,0.1,1.1l0,13.6l-0.1,1l-0.4,0.5l-0.7,0.3  c-0.4,0.1-0.9,0.1-1.5,0.1l-0.2,0v1.2l0.3,0c0.5-0.1,1-0.1,1.4-0.1l1-0.1l0.9,0h1.8l1.9,0.1c0.4,0,0.9,0.1,1.4,0.1l0.3,0v-1.2  l-0.2,0C180,189.9,179.5,189.8,179.1,189.8"></path>	<path class="st4" d="M176.5,167.7c0.6,0,1.1-0.2,1.5-0.6c0.4-0.4,0.6-1,0.6-1.6c0-0.6-0.2-1.1-0.6-1.5c-0.4-0.4-0.9-0.6-1.5-0.6  c-0.6,0-1.1,0.2-1.6,0.6c-0.4,0.4-0.6,0.9-0.6,1.5c0,0.6,0.2,1.1,0.6,1.6C175.3,167.5,175.9,167.7,176.5,167.7"></path>	<path class="st4" d="M197.9,171.1l-1.5,0l-1.7-0.2v1.2l0.2,0c0.8,0,1.4,0.1,1.7,0.2l0.4,0.6l0,0.2l-4.7,12.6l-4.4-12.1l-0.2-0.6  l-0.1-0.3l0.4-0.4c0.3-0.1,0.8-0.2,1.6-0.3l0.2,0v-1.2l-0.3,0c-0.9,0.1-1.6,0.1-2.1,0.2c-0.5,0-1.1,0-1.7,0c-0.7,0-1.2,0-1.7,0  c-0.5,0-1.2-0.1-2.1-0.2l-0.3,0v1.2l0.2,0c0.6,0,1,0.1,1.3,0.1l0.8,0.2l0.4,0.4l0.3,0.7l6,16.4l-1.1,2.9c-0.5,1.3-1.1,2.2-1.9,2.7  c-0.7,0.5-1.7,0.8-3,0.8l-0.2,0v2.4h0.4c1.6,0,2.9-0.4,3.8-1.1c0.9-0.7,1.7-1.9,2.4-3.6l7.6-20.6l0.3-0.7l0.5-0.4l0.8-0.3  c0.3-0.1,0.8-0.1,1.3-0.2l0.2,0V171l-2.2,0.1C199.1,171.1,198.5,171.1,197.9,171.1"></path>	<path class="st4" d="M216.5,184.3c-0.5,3.6-2.1,5.3-5,5.3c-1.8,0-3.2-0.7-4-2.2c-0.9-1.5-1.3-3.8-1.3-6.8h12.4V180  c0-3-0.6-5.3-1.9-6.9c-1.3-1.6-3.1-2.5-5.5-2.5c-2.5,0-4.5,1-5.9,2.8c-1.4,1.9-2.1,4.5-2.1,7.7c0,3.3,0.7,5.8,2.1,7.5  c1.4,1.7,3.5,2.6,6.2,2.6c2,0,3.7-0.6,4.9-1.8c1.3-1.2,2-3,2.2-5.2l0-0.3h-2.1L216.5,184.3z M206.3,178.6c0.3-2.1,0.8-3.7,1.6-4.8  c0.8-1.1,1.8-1.7,3.2-1.7c2.7,0,4.2,2.1,4.5,6.5H206.3z"></path>	<path class="st4" d="M239.5,163.2l-0.1,0c-0.4,0-0.7,0-1.1,0.1l-0.9,0h-1.9l-1,0c-0.3,0-0.7-0.1-1.2-0.1c-0.4-0.1-1-0.1-1.6-0.2  l-0.3,0v1.3l0.2,0c0.7,0.1,1.3,0.1,1.7,0.2c0.4,0.1,0.7,0.2,0.9,0.3l0.4,0.7c0.1,0.3,0.1,0.7,0.1,1.2v20.7c0,0.5,0,0.9-0.1,1.2  l-0.4,0.7c-0.2,0.1-0.5,0.3-0.9,0.3c-0.4,0.1-1,0.1-1.7,0.2l-0.2,0v1.3l0.3,0c0.6-0.1,1.2-0.1,1.6-0.1c0.5-0.1,0.9-0.1,1.2-0.1  l1.9-0.1l1.9,0.1c0.4,0,0.7,0.1,1.2,0.1c0.5,0,1,0.1,1.6,0.1l0.3,0v-1.3l-0.2,0c-0.8-0.1-1.3-0.1-1.7-0.2c-0.4-0.1-0.7-0.2-0.9-0.4  l-0.4-0.7c-0.1-0.3-0.1-0.8-0.1-1.2v-20.7c0-0.5,0-0.9,0.1-1.2l0.4-0.7c0.2-0.2,0.5-0.3,0.9-0.3c0.4-0.1,1-0.2,1.7-0.2l0.2,0V163  l-0.3,0C240.5,163.1,240,163.1,239.5,163.2"></path>	<path class="st4" d="M236.5,160.4c0.6,0,1.1-0.2,1.5-0.6c0.4-0.4,0.6-1,0.6-1.6c0-0.6-0.2-1.1-0.6-1.6c-0.4-0.4-0.9-0.7-1.5-0.7  c-0.6,0-1.1,0.2-1.6,0.6c-0.4,0.4-0.6,1-0.6,1.6c0,0.6,0.2,1.1,0.7,1.6C235.4,160.2,235.9,160.4,236.5,160.4"></path>	<path class="st4" d="M253.5,180.1l-1.8-0.7c-1-0.4-1.7-0.7-2.2-1c-0.5-0.3-1-0.5-1.3-0.8l-0.6-0.9c-0.1-0.3-0.1-0.6-0.1-1  c0-1,0.4-1.8,1.1-2.4c0.7-0.7,1.6-1,2.7-1c2.4,0,3.8,1.5,4.1,4.7l0,0.2h1.2v-6.7h-1.1l-0.5,1.4c-0.7-0.4-1.3-0.6-1.8-0.8  c-0.7-0.2-1.4-0.3-2.1-0.3c-1.8,0-3.3,0.5-4.4,1.6c-1.1,1.1-1.7,2.4-1.7,4.1c0,0.6,0.1,1.2,0.2,1.7c0.2,0.5,0.4,0.9,0.7,1.3  c0.3,0.4,0.8,0.7,1.3,1.1c0.6,0.3,1.2,0.6,2,1l2,0.8c0.9,0.4,1.7,0.8,2.3,1.1c0.6,0.3,1,0.5,1.3,0.7l0.6,0.9c0.1,0.3,0.1,0.6,0.1,1  c0,1.1-0.4,1.9-1.2,2.7c-0.8,0.7-1.8,1.1-3.1,1.1c-1.4,0-2.6-0.4-3.4-1.2c-0.8-0.8-1.4-2.2-1.8-4l0-0.2h-1.3l0,7.1h1l0.9-1.5  c0.6,0.4,1.2,0.7,1.8,0.9c0.6,0.2,1.2,0.4,1.9,0.4l-1.5,2.9l0.4,0c1.1,0,1.9,0.2,2.3,0.5c0.4,0.3,0.6,0.6,0.6,1.1  c0,0.5-0.2,0.8-0.5,1.1c-0.3,0.3-0.8,0.4-1.5,0.4l-0.8-0.1c-0.2,0-0.6-0.1-1.2-0.3l-0.3-0.1v1.7l0.2,0.1c0.6,0.2,1.1,0.4,1.5,0.5  c0.5,0.1,1,0.2,1.5,0.2c1.2,0,2.2-0.3,2.9-0.9c0.7-0.6,1.1-1.4,1.1-2.4c0-0.9-0.3-1.6-0.9-2.1c-0.5-0.4-1.3-0.7-2.4-0.9l0.9-1.9  c1.6-0.2,2.9-0.8,4-1.9c1.1-1.1,1.6-2.4,1.6-4.1c0-1.3-0.3-2.3-1-3.1C256.2,181.4,255.1,180.7,253.5,180.1"></path>	<path class="st4" d="M288.4,177.3c-0.5-0.4-0.9-0.6-1.4-0.8c-0.3-0.1-0.7-0.2-1.2-0.4c2.6-1.3,3.9-3.3,3.9-6.1c0-1.1-0.2-2.1-0.6-3  c-0.4-0.9-1-1.7-1.7-2.3c-0.7-0.6-1.5-1-2.4-1.2c-0.9-0.3-2-0.4-3.3-0.4h-10.6v1.3l0.2,0c0.7,0.1,1.3,0.1,1.7,0.2  c0.4,0.1,0.7,0.2,0.9,0.3l0.4,0.7c0.1,0.3,0.1,0.7,0.1,1.2v20.4c0,0.5,0,0.9-0.1,1.2l-0.4,0.7c-0.2,0.2-0.5,0.3-0.9,0.3  c-0.5,0.1-1.1,0.2-1.8,0.2l-0.2,0v1.2h10.3c0.8,0,1.5,0,2.1-0.1c0.6-0.1,1.2-0.1,1.7-0.3c0.5-0.1,1-0.3,1.4-0.5  c0.5-0.2,0.9-0.5,1.3-0.8c0.9-0.7,1.7-1.7,2.3-2.8c0.6-1.1,0.8-2.4,0.8-3.6c0-1.1-0.2-2.2-0.7-3.1  C289.9,178.7,289.2,177.9,288.4,177.3 M277.7,177.2h4c1.1,0,2,0.1,2.6,0.3c0.7,0.2,1.2,0.5,1.7,1c0.5,0.5,0.8,1.1,1.1,1.9  c0.3,0.8,0.4,1.7,0.4,2.6c0,2-0.5,3.5-1.6,4.6c-1,1.1-2.4,1.6-4.3,1.6h-1.5c-0.6,0-1.1,0-1.4-0.1l-0.7-0.3l-0.3-0.6  c0-0.3-0.1-0.6-0.1-1.1V177.2z M284.9,174.2c-0.5,0.5-1,0.9-1.6,1c-0.6,0.2-1.6,0.3-2.8,0.3h-2.8v-10.9h3.6c1.7,0,3,0.4,3.8,1.3  c0.8,0.8,1.2,2.2,1.2,4.1C286.3,171.8,285.8,173.2,284.9,174.2z"></path>	<path class="st4" d="M309.5,189.6c-0.5,0-0.9-0.2-1.1-0.7c-0.2-0.5-0.4-1.6-0.4-3.1v-8.9c0-0.7,0-1.3-0.1-1.7  c-0.1-0.5-0.2-1-0.4-1.4c-0.4-0.9-1.1-1.7-2.2-2.3c-1-0.6-2.2-0.8-3.5-0.8c-0.9,0-1.7,0.1-2.5,0.4c-0.8,0.3-1.5,0.6-2.1,1.1  c-0.6,0.4-1.1,1-1.5,1.6c-0.4,0.6-0.6,1.3-0.6,1.9c0,0.9,0.5,1.4,1.4,1.4c0.6,0,1.1-0.2,1.3-0.5c0.2-0.3,0.4-0.9,0.4-1.6v-0.4  c0-0.8,0.3-1.3,0.9-1.8c0.6-0.5,1.5-0.7,2.6-0.7c1.2,0,2,0.3,2.5,0.9c0.5,0.6,0.8,1.7,0.8,3.1v2.1c-1.1,0.1-2.1,0.3-3,0.6  c-0.9,0.2-1.9,0.6-2.8,1c-1.6,0.7-2.9,1.5-3.7,2.4c-0.8,0.9-1.2,2.1-1.2,3.4c0,0.8,0.1,1.6,0.4,2.2c0.3,0.7,0.7,1.2,1.2,1.7  c0.5,0.5,1.2,0.9,1.9,1.2c0.7,0.3,1.5,0.4,2.3,0.4c1.4,0,2.5-0.3,3.3-0.8c0.7-0.5,1.4-1.2,2-2.3c0.2,0.9,0.4,1.6,0.8,2.1  c0.5,0.6,1.2,0.9,2.2,0.9h0l0.9-0.1c0.3,0,0.7-0.1,1.1-0.1l0.2,0v-1.6l-0.9,0.2H309.5z M305,179.9v3.2c0,2.2-0.3,3.8-1,4.7  c-0.6,0.9-1.7,1.4-3.2,1.4c-1.1,0-1.9-0.3-2.5-0.9c-0.6-0.6-0.9-1.4-0.9-2.5c0-1.6,0.6-2.8,1.8-3.8  C300.5,181.1,302.5,180.4,305,179.9z"></path>	<path class="st4" d="M330.8,189.8l-0.8-0.3l-0.3-0.5l-0.1-0.9v-10c0-1.6-0.2-2.9-0.6-3.8c-0.4-1-1.2-1.9-2.2-2.5  c-1-0.7-2.1-1-3.4-1c-1.2,0-2.2,0.3-3.2,0.8c-0.7,0.4-1.4,1.1-2,1.9l-0.1-1.6c0-0.4-0.1-0.9-0.2-1.3l0-0.3l-0.3,0.1  c-0.8,0.3-1.6,0.6-2.3,0.7c-0.7,0.2-1.5,0.3-2.6,0.5l-0.2,0v1h0.8c0.7,0,1.2,0.1,1.4,0.1l0.5,0.2l0.2,0.3c0,0.1,0.1,0.4,0.1,1  l0,13.8l-0.1,1l-0.4,0.5l-0.7,0.3c-0.4,0.1-0.9,0.1-1.5,0.1l-0.2,0v1.2l0.3,0c0.5-0.1,1-0.1,1.4-0.1l1-0.1l0.9,0h1.8l1.9,0.1  c0.4,0,0.9,0.1,1.4,0.1l0.3,0v-1.2l-0.2,0c-0.6,0-1.1-0.1-1.5-0.1l-0.8-0.3l-0.3-0.5l-0.1-0.9v-9.8c0-1.7,0.4-3.1,1.1-4  c0.7-0.9,1.8-1.3,3.3-1.3c1.3,0,2.2,0.4,2.8,1.1c0.6,0.8,0.9,2.1,0.9,4l0,9.9l-0.1,1l-0.4,0.5l-0.8,0.3c-0.4,0.1-0.9,0.1-1.5,0.1  l-0.2,0v1.2l0.3,0c1-0.1,1.8-0.2,2.4-0.2c1.1,0,2.4-0.1,3.6,0c0.6,0,1.4,0.1,2.5,0.2l0.3,0v-1.2l-0.2,0  C331.7,189.9,331.2,189.8,330.8,189.8"></path>	<path class="st4" d="M352.7,189.8l-0.9-0.3l-0.6-0.5l-0.6-0.9l-5.9-9.9l4.1-4.2l0.8-0.8l0.8-0.5l0.9-0.3c0.3-0.1,0.7-0.1,1.3-0.2  l0.2,0v-1.2l-0.3,0c-0.8,0.1-1.5,0.1-2,0.2c-0.5,0-1,0-1.6,0H348l-1.6-0.1c-0.3,0-0.7-0.1-1.1-0.1l-0.3,0v1.2l0.2,0  c0.9,0,1.9,0.2,1.9,0.7l-0.1,0.3l-0.4,0.5l-6.8,7v-17.9l-0.3,0.1c-0.9,0.2-1.8,0.4-2.6,0.6c-0.8,0.1-1.8,0.3-2.9,0.4l-0.2,0v1h0.2  c0.6,0,1.1,0,1.5,0.1l0.8,0.3l0.3,0.5c0,0.3,0.1,0.6,0.1,1.1l0,21.3l-0.1,1l-0.3,0.5l-0.8,0.3c-0.4,0.1-0.8,0.1-1.5,0.1l-0.2,0v1.2  l0.3,0c1-0.1,1.8-0.2,2.4-0.2c1.1,0,2.5,0,3.6,0c0.6,0,1.4,0.1,2.4,0.2l0.3,0v-1.2l-0.2,0c-0.6,0-1.1-0.1-1.4-0.1l-0.8-0.3L340,189  l-0.1-0.9v-5.2l2.7-2.7l4.9,8.5l0.3,0.5l0.1,0.3l-0.3,0.4c-0.2,0-0.5,0.1-1.2,0.1l-0.2,0v1.2l0.3,0c0.4-0.1,0.8-0.1,1.1-0.1  l0.9-0.1l0.8,0h0.9c0.6,0,1.2,0,1.7,0c0.5,0,1.2,0.1,2.1,0.2l0.3,0v-1.2l-0.2,0C353.5,189.9,353,189.8,352.7,189.8"></path>	<path class="st4" d="M370.8,189.6c-0.5,0-0.9-0.2-1.1-0.7c-0.2-0.5-0.3-1.6-0.3-3.1v-8.9c0-0.7,0-1.3-0.1-1.7  c-0.1-0.5-0.2-1-0.4-1.4c-0.4-0.9-1.1-1.7-2.2-2.3c-1.1-0.6-2.2-0.8-3.5-0.8c-0.9,0-1.7,0.1-2.5,0.4c-0.8,0.3-1.5,0.6-2.1,1.1  c-0.6,0.5-1.1,1-1.5,1.6c-0.4,0.6-0.6,1.3-0.6,1.9c0,0.9,0.5,1.4,1.4,1.4c0.6,0,1.1-0.2,1.3-0.5c0.3-0.3,0.4-0.9,0.4-1.6v-0.4  c0-0.7,0.3-1.3,0.9-1.8c0.6-0.5,1.5-0.7,2.6-0.7c1.2,0,2,0.3,2.5,0.9c0.5,0.6,0.8,1.7,0.8,3.1v2.1c-1.1,0.1-2.1,0.3-3,0.6  c-0.9,0.2-1.9,0.6-2.8,1c-1.6,0.7-2.9,1.5-3.7,2.4c-0.8,0.9-1.2,2.1-1.2,3.4c0,0.8,0.1,1.5,0.4,2.2c0.3,0.7,0.7,1.2,1.2,1.7  c0.5,0.5,1.2,0.9,1.9,1.2c0.7,0.3,1.5,0.4,2.3,0.4c1.4,0,2.4-0.3,3.3-0.8c0.7-0.5,1.4-1.2,2-2.3c0.2,0.9,0.4,1.6,0.8,2.1  c0.5,0.6,1.2,0.9,2.2,0.9h0l0.9-0.1c0.3,0,0.7-0.1,1.1-0.1l0.2,0v-1.6l-0.9,0.2H370.8z M366.3,179.9v3.2c0,2.2-0.3,3.8-1,4.7  c-0.6,0.9-1.7,1.4-3.2,1.4c-1.1,0-1.9-0.3-2.5-0.9c-0.6-0.6-0.9-1.5-0.9-2.5c0-1.6,0.6-2.8,1.8-3.8  C361.8,181.1,363.7,180.4,366.3,179.9z"></path>	<path class="st4" d="M383.6,180.1l-1.8-0.7c-1-0.4-1.7-0.7-2.2-1c-0.5-0.3-1-0.5-1.3-0.8l-0.6-0.9c-0.1-0.3-0.1-0.6-0.1-1  c0-1,0.4-1.8,1.1-2.4c0.7-0.7,1.6-1,2.7-1c2.4,0,3.8,1.5,4.1,4.7l0,0.2h1.2v-6.7h-1.1l-0.5,1.4c-0.6-0.4-1.2-0.6-1.8-0.8  c-0.7-0.2-1.4-0.3-2.1-0.3c-1.8,0-3.3,0.5-4.4,1.6c-1.1,1.1-1.7,2.4-1.7,4.1c0,0.6,0.1,1.2,0.2,1.7c0.1,0.5,0.4,0.9,0.7,1.3  c0.4,0.4,0.8,0.7,1.3,1.1c0.5,0.3,1.2,0.6,2,1l2,0.8c0.9,0.4,1.7,0.8,2.3,1.1c0.6,0.3,1,0.5,1.3,0.7l0.6,0.9c0.1,0.3,0.1,0.6,0.1,1  c0,1-0.4,1.9-1.2,2.7c-0.8,0.7-1.8,1.1-3.1,1.1c-1.4,0-2.6-0.4-3.4-1.2c-0.8-0.8-1.4-2.2-1.8-4l0-0.2h-1.3l0,7.1h1l0.9-1.5  c1.4,1,3,1.5,4.8,1.5c1,0,1.8-0.1,2.7-0.4c0.8-0.3,1.5-0.7,2.1-1.3c0.6-0.5,1.1-1.2,1.4-1.9c0.3-0.7,0.5-1.6,0.5-2.4  c0-1.3-0.3-2.3-1-3.1C386.4,181.4,385.3,180.7,383.6,180.1"></path>	<path class="st4" d="M398.1,189.8l-0.8-0.3l-0.3-0.5l-0.1-0.9v-17.7l-0.3,0.1c-0.8,0.2-1.7,0.4-2.6,0.6c-0.8,0.1-1.8,0.3-2.9,0.4  l-0.2,0v1h0.2c0.7,0,1.2,0,1.5,0.1l0.8,0.3l0.3,0.6c0,0.3,0.1,0.6,0.1,1.1l0,13.6l-0.1,1l-0.4,0.5l-0.7,0.3  c-0.4,0.1-0.9,0.1-1.5,0.1l-0.2,0v1.2l0.3,0c0.5-0.1,1-0.1,1.4-0.1l1-0.1l0.9,0h1.8l0.9,0l1.1,0.1c0.4,0,0.9,0.1,1.4,0.1l0.3,0  v-1.2l-0.2,0C399,189.9,398.5,189.8,398.1,189.8"></path>	<path class="st4" d="M430.4,189.8l-0.9-0.3l-0.6-0.5l-0.6-0.9l-5.9-9.9l4.1-4.2l0.8-0.8l0.8-0.5l0.9-0.3c0.3-0.1,0.7-0.1,1.3-0.2  l0.2,0v-1.2l-0.3,0c-0.8,0.1-1.5,0.1-2,0.2c-0.5,0-1,0-1.6,0h-0.8l-1.6-0.1c-0.3,0-0.7-0.1-1.1-0.1l-0.3,0v1.2l0.2,0  c0.8,0,1.9,0.2,1.9,0.7l-0.1,0.3l-0.4,0.5l-6.8,7v-17.9l-0.3,0.1c-0.9,0.2-1.7,0.4-2.6,0.6c-0.8,0.1-1.8,0.3-2.9,0.4l-0.2,0v1h0.2  c0.6,0,1.1,0,1.5,0.1l0.8,0.3l0.3,0.5c0,0.3,0.1,0.6,0.1,1.1l0,21.3l-0.1,1l-0.3,0.5l-0.8,0.3c-0.4,0.1-0.9,0.1-1.4,0.1l-0.2,0v1.2  l0.3,0c1-0.1,1.8-0.2,2.4-0.2c0.6,0,1.2,0,1.8,0c0.6,0,1.2,0,1.8,0c0.6,0,1.4,0.1,2.4,0.2l0.3,0v-1.2l-0.2,0  c-0.6,0-1.1-0.1-1.4-0.1l-0.8-0.3l-0.4-0.5l-0.1-0.9v-5.2l2.7-2.7l4.9,8.5l0.3,0.5l0.1,0.3l-0.3,0.4c-0.2,0-0.5,0.1-1.2,0.1l-0.2,0  v1.2l0.3,0c0.4-0.1,0.8-0.1,1.1-0.1l0.9-0.1l0.9,0h0.9c0.6,0,1.2,0,1.7,0c0.5,0,1.2,0.1,2.1,0.2l0.3,0v-1.2l-0.2,0  C431.1,189.9,430.7,189.8,430.4,189.8"></path>	<path class="st4" d="M450.5,189.2l-0.8-0.3l-0.3-0.5c0-0.2-0.1-0.6-0.1-1v-17.1l-0.3,0.1c-0.9,0.2-1.7,0.4-2.6,0.6  c-0.8,0.1-1.8,0.3-2.9,0.4l-0.2,0v1h0.2c0.7,0,1.2,0,1.5,0.1l0.8,0.3l0.3,0.6c0,0.2,0.1,0.6,0.1,1.1v9.1c0,2-0.4,3.4-1.1,4.3  c-0.7,0.9-1.8,1.3-3.3,1.3c-1.4,0-2.3-0.4-2.9-1.1c-0.6-0.7-0.9-2-0.9-3.8v-13.8l-0.3,0.1c-0.8,0.2-1.7,0.4-2.6,0.6  c-0.9,0.1-1.8,0.3-2.9,0.4l-0.2,0v1h0.2c0.7,0,1.2,0,1.5,0.1l0.8,0.3l0.3,0.6c0,0.2,0.1,0.6,0.1,1.1v9.9c0,0.8,0,1.6,0.1,2.3  c0.1,0.6,0.3,1.2,0.5,1.6c0.4,1,1.1,1.8,2.1,2.3c1,0.5,2.1,0.8,3.4,0.8c1.3,0,2.5-0.3,3.3-0.9c0.7-0.5,1.4-1.2,1.9-2.2l0,1v0.7  l0,0.4l0,0.4l0.1,0.7l0.3-0.1c0.9-0.2,1.6-0.4,2.4-0.6c0.7-0.1,1.7-0.3,2.8-0.4l0.2,0v-1h-0.2C451.4,189.3,450.8,189.3,450.5,189.2  "></path>	<path class="st4" d="M464.4,170.6c-1.1,0-2.2,0.4-3.1,1.1c-0.6,0.5-1.1,1.1-1.5,1.9l-0.2-2.4l-0.1-0.9l-0.3,0.1  c-0.8,0.2-1.6,0.4-2.3,0.6c-0.8,0.1-1.6,0.3-2.6,0.4l-0.2,0v1h0.8c0.5,0,0.9,0.1,1.2,0.1l0.6,0.2l0.3,0.5c0,0.2,0.1,0.5,0.1,0.9  l0,13.9l-0.1,1l-0.4,0.5l-0.7,0.3c-0.4,0.1-0.9,0.1-1.5,0.1l-0.2,0v1.2l0.3,0c0.5-0.1,1-0.1,1.4-0.1l1-0.1l0.9,0h1.8l1.9,0.1  c0.4,0,0.9,0.1,1.4,0.1l0.3,0v-1.2l-0.2,0c-0.6,0-1.1-0.1-1.4-0.1l-0.8-0.3l-0.3-0.5l-0.1-0.9v-8.3c0-2.2,0.3-3.9,1-5.2  c0.6-1.2,1.4-1.9,2.4-1.9l0.8,0.2l0.3,0.6v0.2l-0.2,0.6v0.2l0.4,1.1l0.1,0.1c0.3,0.3,0.8,0.5,1.3,0.5c0.6,0,1-0.2,1.3-0.6  c0.3-0.4,0.5-0.9,0.5-1.6c0-1-0.4-1.8-1.1-2.4C466.3,170.9,465.4,170.6,464.4,170.6"></path>	<path class="st4" d="M486.6,189.2l-0.8-0.3l-0.3-0.5c0-0.3-0.1-0.6-0.1-1v-17.1l-0.3,0.1c-0.9,0.2-1.7,0.4-2.6,0.6  c-0.8,0.1-1.8,0.3-2.9,0.4l-0.2,0v1h0.2c0.7,0,1.2,0,1.5,0.1l0.8,0.3l0.3,0.5c0,0.3,0.1,0.6,0.1,1.1v9.1c0,2-0.4,3.4-1.1,4.3  c-0.7,0.9-1.8,1.3-3.3,1.3c-1.4,0-2.3-0.4-2.9-1.1c-0.6-0.7-0.9-2-0.9-3.8v-13.8l-0.3,0.1c-0.8,0.2-1.7,0.4-2.6,0.6  c-0.9,0.1-1.8,0.3-2.9,0.4l-0.2,0v1h0.2c0.7,0,1.2,0,1.5,0.1l0.8,0.3l0.3,0.5c0,0.3,0.1,0.6,0.1,1.1v9.9c0,0.9,0,1.6,0.1,2.3  c0.1,0.6,0.3,1.2,0.5,1.6c0.4,1,1.1,1.8,2.1,2.3c1,0.5,2.1,0.8,3.4,0.8c1.3,0,2.4-0.3,3.3-0.9c0.7-0.5,1.4-1.2,1.9-2.2l0,1l0,0.7  l0,0.4l0,0.4l0.1,0.7l0.3-0.1c0.9-0.2,1.6-0.4,2.4-0.6c0.7-0.1,1.7-0.3,2.8-0.4l0.2,0v-1h-0.2C487.5,189.3,486.9,189.3,486.6,189.2  "></path>	<path class="st4" d="M497.5,189.8l-0.8-0.3l-0.3-0.5l-0.1-0.9v-25.3l-0.3,0.1c-0.9,0.2-1.7,0.4-2.6,0.6c-0.8,0.1-1.7,0.3-2.9,0.4  l-0.2,0v1h0.2c0.6,0,1.1,0,1.5,0.1l0.8,0.3l0.3,0.6c0,0.3,0.1,0.6,0.1,1.1l0,21.3l-0.1,1l-0.4,0.5l-0.7,0.3  c-0.4,0.1-0.9,0.1-1.5,0.1l-0.2,0v1.2l0.3,0c0.5-0.1,1-0.1,1.4-0.1l1-0.1l0.9,0h1.8l1.9,0.1c0.4,0,0.9,0.1,1.4,0.1l0.3,0v-1.2  l-0.2,0C498.4,189.9,497.9,189.8,497.5,189.8"></path>	<path class="st4" d="M518.6,189.2l-0.8-0.3l-0.3-0.5c0-0.3-0.1-0.6-0.1-1v-17.1l-0.3,0.1c-0.9,0.2-1.7,0.4-2.6,0.6  c-0.8,0.1-1.8,0.3-2.9,0.4l-0.2,0v1h0.2c0.7,0,1.2,0,1.5,0.1l0.8,0.3l0.3,0.6c0,0.3,0.1,0.6,0.1,1.1v9.1c0,2-0.4,3.4-1.1,4.3  c-0.7,0.9-1.8,1.3-3.3,1.3c-1.4,0-2.3-0.4-2.9-1.1c-0.6-0.7-0.9-2-0.9-3.8v-13.8l-0.3,0.1c-0.9,0.2-1.7,0.4-2.6,0.6  c-0.8,0.1-1.8,0.3-2.9,0.4l-0.2,0v1h0.2c0.7,0,1.2,0,1.5,0.1l0.8,0.3l0.3,0.5c0,0.2,0.1,0.6,0.1,1.1v9.9c0,0.9,0,1.6,0.1,2.3  c0.1,0.6,0.3,1.2,0.5,1.7c0.4,1,1.1,1.8,2.1,2.3c1,0.5,2.1,0.8,3.4,0.8c1.3,0,2.5-0.3,3.3-0.9c0.7-0.5,1.3-1.2,1.9-2.2l0,1.7l0,0.4  l0,0.4l0.1,0.7l0.3-0.1c0.9-0.2,1.6-0.4,2.4-0.6c0.8-0.1,1.7-0.3,2.8-0.4l0.2,0v-1h-0.2C519.5,189.3,518.9,189.3,518.6,189.2"></path>	<path class="st4" d="M532.1,180.1l-1.9-0.7c-1-0.4-1.7-0.7-2.2-1c-0.5-0.3-1-0.5-1.3-0.8l-0.6-0.9c-0.1-0.3-0.1-0.6-0.1-1  c0-1,0.4-1.8,1.1-2.4c0.7-0.7,1.6-1,2.7-1c2.4,0,3.8,1.5,4.1,4.7l0,0.2h1.2v-6.7H534l-0.5,1.4c-0.6-0.3-1.2-0.6-1.8-0.8  c-0.7-0.2-1.4-0.3-2.1-0.3c-1.8,0-3.3,0.5-4.4,1.6c-1.1,1.1-1.7,2.4-1.7,4.1c0,0.6,0.1,1.2,0.2,1.7c0.1,0.5,0.4,0.9,0.7,1.3  c0.3,0.4,0.8,0.7,1.3,1.1c0.5,0.3,1.2,0.6,2,1l2,0.8c0.9,0.4,1.7,0.8,2.3,1.1c0.6,0.3,1,0.5,1.3,0.7l0.6,0.9c0.1,0.3,0.1,0.6,0.1,1  c0,1.1-0.4,1.9-1.2,2.7c-0.8,0.7-1.8,1.1-3.1,1.1c-1.4,0-2.6-0.4-3.4-1.2c-0.8-0.8-1.4-2.2-1.8-4l0-0.2H523l0,7.1h1l0.9-1.5  c0.6,0.4,1.2,0.7,1.8,0.9c0.6,0.2,1.2,0.4,1.9,0.4l-1.5,2.9l0.4,0c1.4,0.1,2,0.3,2.3,0.5c0.4,0.3,0.6,0.6,0.6,1.1  c0,0.5-0.2,0.9-0.5,1.1c-0.3,0.3-0.8,0.4-1.5,0.4l-0.8-0.1c-0.2,0-0.6-0.1-1.2-0.3l-0.3-0.1v1.7l0.2,0.1c0.6,0.2,1.1,0.4,1.5,0.5  c0.5,0.1,1,0.2,1.5,0.2c1.2,0,2.2-0.3,2.9-0.9c0.7-0.6,1.1-1.4,1.1-2.4c0-0.9-0.3-1.6-0.9-2.1c-0.5-0.4-1.3-0.7-2.4-0.9l0.9-1.9  c1.6-0.2,2.9-0.8,4-1.9c1.1-1.1,1.6-2.5,1.6-4.1c0-1.3-0.3-2.3-1-3.1C534.8,181.4,533.7,180.7,532.1,180.1"></path>	<path class="st4" d="M557,189.2l-0.8-0.3l-0.3-0.5c0-0.2-0.1-0.6-0.1-1v-17.1l-0.3,0.1c-0.9,0.2-1.7,0.4-2.6,0.6  c-0.9,0.1-1.8,0.3-2.9,0.4l-0.2,0v1h0.2c0.7,0,1.2,0,1.5,0.1l0.8,0.3l0.3,0.6c0,0.2,0.1,0.6,0.1,1.1v9.1c0,2-0.4,3.4-1.1,4.3  c-0.7,0.9-1.8,1.3-3.3,1.3c-1.4,0-2.3-0.4-2.9-1.1c-0.6-0.7-0.9-2-0.9-3.8v-13.8l-0.3,0.1c-0.9,0.2-1.7,0.4-2.6,0.6  c-0.8,0.1-1.8,0.3-2.9,0.4l-0.2,0v1h0.2c0.7,0,1.2,0,1.5,0.1l0.8,0.3l0.3,0.6c0,0.2,0.1,0.6,0.1,1.1v9.9c0,0.8,0,1.6,0.1,2.3  c0.1,0.6,0.3,1.2,0.5,1.6c0.4,1,1.1,1.8,2.1,2.3c1,0.5,2.1,0.8,3.4,0.8c1.3,0,2.5-0.3,3.3-0.9c0.7-0.5,1.3-1.2,1.9-2.2l0,1l0,0.7  l0,0.4l0,0.4l0.1,0.7l0.3-0.1c0.8-0.2,1.6-0.4,2.4-0.6c0.7-0.1,1.7-0.3,2.8-0.4l0.2,0v-1h-0.2C557.9,189.3,557.3,189.3,557,189.2"></path>	<path class="st4" d="M577.3,189.1l-0.5-0.4l-0.3-0.7c-0.1-0.4-0.1-0.9-0.1-1.4v-24l-0.3,0.1c-0.9,0.2-1.7,0.4-2.6,0.6  c-0.8,0.1-1.7,0.3-2.9,0.4l-0.2,0v1h0.2c0.6,0,1.1,0,1.5,0.1l0.8,0.3l0.3,0.6c0,0.2,0.1,0.6,0.1,1.1v7c-0.6-0.9-1.2-1.6-1.8-2.1  c-0.8-0.6-1.8-0.9-3-0.9c-1.1,0-2.1,0.3-3.1,0.8c-0.9,0.5-1.7,1.2-2.3,2.2c-0.6,0.9-1.2,2-1.5,3.2c-0.4,1.2-0.5,2.6-0.5,4.2  c0,1.5,0.2,2.9,0.5,4.1c0.4,1.2,0.9,2.3,1.5,3.2c0.7,0.9,1.5,1.6,2.4,2.1c0.9,0.5,2,0.7,3.1,0.7c2.2,0,3.8-1,5-3  c0,0.4,0.1,0.7,0.1,1c0.1,0.5,0.2,1.1,0.3,1.7l0.1,0.3l1.2-0.4l0.8-0.2l1-0.2c0.3,0,0.6-0.1,1-0.1l1.3-0.2v-1l-1.1,0  C577.8,189.2,577.5,189.2,577.3,189.1 M573.4,181.3c0,2.7-0.4,4.9-1.2,6.3c-0.8,1.4-1.8,2.1-3.3,2.1c-1.5,0-2.6-0.7-3.4-2.2  c-0.8-1.5-1.2-3.7-1.2-6.5c0-2.9,0.4-5.1,1.2-6.6c0.8-1.4,1.8-2.1,3.3-2.1c1.5,0,2.6,0.7,3.4,2.3  C573,176.1,573.4,178.4,573.4,181.3z"></path>	<path class="st4" d="M598.8,189.2L598,189l-0.3-0.5c0-0.3-0.1-0.6-0.1-1v-17.1l-0.3,0.1c-0.8,0.2-1.7,0.4-2.6,0.6  c-0.8,0.1-1.8,0.3-2.9,0.4l-0.2,0v1h0.2c0.7,0,1.2,0,1.5,0.1l0.8,0.3l0.3,0.5c0,0.3,0.1,0.6,0.1,1.1v9.1c0,2-0.4,3.4-1.1,4.3  c-0.7,0.9-1.8,1.3-3.3,1.3c-1.4,0-2.3-0.4-2.9-1.1c-0.6-0.7-0.9-2-0.9-3.8v-13.8l-0.3,0.1c-0.9,0.2-1.7,0.4-2.6,0.6  c-0.8,0.1-1.8,0.3-2.9,0.4l-0.2,0v1h0.2c0.7,0,1.2,0,1.5,0.1l0.8,0.3l0.3,0.5c0,0.3,0.1,0.6,0.1,1.1v9.9c0,0.9,0,1.6,0.1,2.3  c0.1,0.6,0.3,1.2,0.5,1.6c0.4,1,1.1,1.8,2.1,2.3c1,0.5,2.1,0.8,3.4,0.8c1.3,0,2.5-0.3,3.3-0.9c0.7-0.5,1.3-1.2,1.9-2.2l0,1v0.7  l0,0.4l0,0.4l0.1,0.7l0.3-0.1c0.8-0.2,1.6-0.4,2.4-0.6c0.8-0.1,1.7-0.3,2.8-0.4l0.2,0v-1h-0.2C599.7,189.3,599.1,189.3,598.8,189.2  "></path>	<path class="st4" d="M612.7,170.6c-1.1,0-2.2,0.4-3.1,1.1c-0.6,0.5-1.1,1.1-1.4,1.9l-0.2-2.4l-0.1-0.9l-0.3,0.1  c-0.8,0.2-1.6,0.4-2.3,0.6c-0.8,0.1-1.6,0.3-2.6,0.4l-0.2,0v1h0.8c0.5,0,0.9,0.1,1.2,0.1l0.6,0.2l0.3,0.5c0,0.2,0.1,0.5,0.1,0.9  l0,13.9l-0.1,1l-0.4,0.5l-0.7,0.3c-0.4,0.1-0.9,0.1-1.5,0.1l-0.2,0v1.2l0.3,0c0.5-0.1,1-0.1,1.4-0.1l1-0.1l0.9,0h1.8l1.9,0.1  c0.4,0,0.9,0.1,1.4,0.1l0.3,0v-1.2l-0.2,0c-0.6,0-1.1-0.1-1.4-0.1l-0.8-0.3l-0.3-0.5l-0.1-0.9v-8.3c0-2.2,0.3-3.9,1-5.2  c0.6-1.2,1.4-1.9,2.4-1.9l0.8,0.2l0.3,0.6v0.2l-0.2,0.6v0.2l0.4,1.1l0.1,0.1c0.4,0.3,0.8,0.5,1.3,0.5c0.6,0,1-0.2,1.3-0.6  c0.3-0.4,0.5-0.9,0.5-1.6c0-1-0.4-1.8-1.1-2.4C614.6,170.9,613.7,170.6,612.7,170.6"></path>	<path class="st4" d="M622.2,187.5c-0.4-0.5-1-0.7-1.6-0.7c-0.6,0-1.1,0.2-1.6,0.7c-0.4,0.4-0.6,1-0.6,1.6c0,0.6,0.2,1.1,0.7,1.6  c0.5,0.4,1,0.6,1.6,0.6c0.6,0,1.1-0.2,1.6-0.6c0.4-0.4,0.6-1,0.6-1.6C622.8,188.4,622.6,187.9,622.2,187.5"></path></g><rect x="8.7" y="131.6" class="st5" width="72.3" height="83.4"></rect><path class="st6" d="M40.7,144.7c0-1.9,1.6-3.5,3.5-3.5c1.9,0,3.5,1.6,3.5,3.5c0,1.9-1.6,3.5-3.5,3.5 C42.3,148.2,40.7,146.6,40.7,144.7 M54.9,165.1H54l-0.1-0.7c-0.1-0.5-0.3-1.4-0.4-1.8c-0.2-0.6-0.7-1.9-1.5-2.9 c-0.8-1-1.4-1.7-1.8-2c-0.3-0.2-0.6-0.6-1.3-0.9v-1.6l1.6,0.6c0,0,1.1,0.5,1.9,0.4c0.7-0.1,1.1-0.2,1.4-0.7l0.4-0.6h0.8V165.1z  M36.4,194.5c-1.7-0.4-2.4,0-2.8,0.3c-0.1,0.1-0.2,0.1-0.3,0.2c-0.4,0.3-0.8,0.9-0.8,0.9h-0.7V185h0.9c0,0,0.2,0.7,0.3,1.2 c1,2.9,3,5,3,5c5.9,5.5,12.4,3.5,12.4,3.5c5.5-2,6.4-6.5,5-9.6c-1.4-3.1-4.9-4.9-4.9-4.9l-1.2-0.7l0,7.6c0,0.5-0.2,2,1.5,2.4 l0.8,0.2v0.9H38.9v-0.9l0.9-0.2c1.6-0.4,1.4-2,1.5-2.4l0-11c-0.4-0.2-0.8-0.4-1-0.6c-1.8-1-2.9-1.5-4.4-2.6 c-2.9-2.2-4.8-4.6-4.8-8.5c0-5.2,4-9.5,9.4-10.2c0.2,0,0.5-0.1,0.8-0.1v-1.2c0-0.5,0.2-2-1.5-2.4l-0.8-0.2v-0.9h10.8v0.9l-0.9,0.2 c-1.6,0.4-1.4,2-1.5,2.4l0,17.4l-6.1-3.3v-11.3c-0.3,0-0.5,0-0.5,0c-3.1,0.5-5.7,2.6-5.7,5.5c0,1.9,0.8,3.4,2.1,4.5 c0,0,0.8,0.8,2.5,1.9c1.7,1,8.3,4.7,8.3,4.7s3.9,2.1,5.2,3.1c0.6,0.4,1.3,1.1,1.3,1.1c2.3,2.1,4.1,5.2,4.1,8.6c0,1-0.1,2-0.4,3 c0,0-1.4,5.6-7.8,7.7c0,0-1.8,0.8-3.8,0.9c0,0,0,0-0.3,0c0.9,0.6,1.5,1.7,1.5,2.9c0,0.9-0.3,1.5-0.8,2.1c-0.3,0.4-0.9,1.4-1.2,1.9 c-0.8,1.1-1.4,1.8-1.4,1.8h-0.9c0,0,0.4-1.6,0.3-1.9c-0.1-0.5-0.2-0.6-0.7-0.9c-1.3-0.5-2.2-1.6-2.2-3c0-1.4,0.8-2.5,1.9-3.1 c-1.3-0.2-2.5-0.7-3.9-1.3c0,0-1.9-0.7-2.3-0.8L36.4,194.5z"></path></svg>