<?xml version="1.0" encoding="UTF-8"?>
<svg xmlns="http://www.w3.org/2000/svg" xmlns:xlink="http://www.w3.org/1999/xlink" width="129px" height="28px" viewBox="0 0 130 28" version="1.1">
<g id="surface1">
<path style=" stroke:none;fill-rule:nonzero;fill:rgb(7.450981%,5.882353%,14.901961%);fill-opacity:1;" d="M 4.863281 10.242188 L 13.238281 10.242188 L 13.238281 14.457031 L 4.863281 14.457031 L 4.863281 21.339844 L 0.0273438 21.339844 L 0.0273438 1.839844 L 14.582031 1.839844 L 14.582031 6.113281 L 4.871094 6.113281 Z M 4.863281 10.242188 "/>
<path style=" stroke:none;fill-rule:nonzero;fill:rgb(7.450981%,5.882353%,14.901961%);fill-opacity:1;" d="M 15.695312 2.636719 C 15.695312 1.121094 16.902344 0 18.421875 0 C 19.941406 0 21.140625 1.121094 21.140625 2.636719 C 21.140625 4.152344 19.910156 5.253906 18.421875 5.253906 C 16.933594 5.253906 15.695312 4.128906 15.695312 2.636719 Z M 20.773438 21.347656 L 16.132812 21.347656 L 16.132812 7.429688 L 20.773438 7.429688 Z M 20.773438 21.347656 "/>
<path style=" stroke:none;fill-rule:nonzero;fill:rgb(7.450981%,5.882353%,14.901961%);fill-opacity:1;" d="M 37.679688 21.117188 C 37.679688 25.476562 34.613281 28 30.257812 28 C 25.902344 28 22.953125 25.59375 22.722656 21.972656 L 27.339844 21.972656 C 27.539062 23.261719 28.515625 24.0625 30.234375 24.0625 C 31.839844 24.0625 33.039062 23.085938 33.039062 21.195312 L 33.039062 19.878906 C 32.007812 20.488281 30.773438 20.855469 29.261719 20.855469 C 25.480469 20.855469 22.355469 17.839844 22.355469 14.089844 C 22.355469 9.84375 25.480469 6.945312 29.261719 6.945312 C 30.78125 6.945312 32.007812 7.34375 33.039062 7.976562 L 33.039062 7.429688 L 37.679688 7.429688 Z M 33.03125 15.863281 L 33.03125 12.019531 C 32.171875 11.042969 31.171875 10.726562 30.167969 10.726562 C 28.277344 10.726562 26.871094 12.074219 26.871094 14.082031 C 26.871094 15.601562 28.277344 17.148438 30.167969 17.148438 C 31.171875 17.15625 32.171875 16.839844 33.03125 15.863281 Z M 33.03125 15.863281 "/>
<path style=" stroke:none;fill-rule:nonzero;fill:rgb(7.450981%,5.882353%,14.901961%);fill-opacity:1;" d="M 85.824219 14.371094 C 85.824219 18.503906 82.667969 21.632812 78.917969 21.632812 C 77.398438 21.632812 76.167969 21.234375 75.140625 20.601562 L 75.140625 27.800781 L 70.460938 27.800781 L 70.460938 7.4375 L 75.132812 7.4375 L 75.132812 8.152344 C 76.160156 7.519531 77.398438 7.121094 78.910156 7.121094 C 82.675781 7.121094 85.824219 10.21875 85.824219 14.371094 Z M 81.269531 14.371094 C 81.269531 12.449219 79.894531 10.898438 78.003906 10.898438 C 76.996094 10.898438 76 11.210938 75.140625 12.1875 L 75.140625 16.550781 C 76 17.527344 76.996094 17.808594 78.003906 17.808594 C 79.894531 17.816406 81.269531 16.296875 81.269531 14.371094 Z M 81.269531 14.371094 "/>
<path style=" stroke:none;fill-rule:nonzero;fill:rgb(7.450981%,5.882353%,14.901961%);fill-opacity:1;" d="M 102.5 21.347656 L 97.859375 21.347656 L 97.859375 20.570312 C 96.832031 21.234375 95.59375 21.632812 94.050781 21.632812 C 90.292969 21.632812 87.144531 18.503906 87.144531 14.371094 C 87.144531 10.242188 90.300781 7.113281 94.050781 7.113281 C 95.601562 7.113281 96.832031 7.511719 97.859375 8.175781 L 97.859375 7.429688 L 102.5 7.429688 Z M 97.859375 16.527344 L 97.859375 12.195312 C 96.96875 11.21875 96 10.90625 94.996094 10.90625 C 93.105469 10.90625 91.699219 12.457031 91.699219 14.378906 C 91.699219 16.304688 93.105469 17.824219 94.996094 17.824219 C 95.992188 17.816406 96.96875 17.535156 97.859375 16.527344 Z M 97.859375 16.527344 "/>
<path style=" stroke:none;fill-rule:nonzero;fill:rgb(7.450981%,5.882353%,14.901961%);fill-opacity:1;" d="M 113.960938 11.621094 C 111.699219 11.703125 110.265625 12.3125 109.175781 13.375 L 109.175781 21.347656 L 104.503906 21.347656 L 104.503906 7.429688 L 109.175781 7.429688 L 109.175781 8.921875 C 110.402344 7.859375 111.894531 7.199219 113.960938 7.199219 Z M 113.960938 11.621094 "/>
<path style=" stroke:none;fill-rule:nonzero;fill:rgb(7.450981%,5.882353%,14.901961%);fill-opacity:1;" d="M 129.972656 21.347656 L 125.335938 21.347656 L 125.335938 20.570312 C 124.304688 21.234375 123.078125 21.632812 121.523438 21.632812 C 117.769531 21.632812 114.621094 18.503906 114.621094 14.371094 C 114.621094 10.242188 117.777344 7.113281 121.523438 7.113281 C 123.078125 7.113281 124.304688 7.511719 125.335938 8.175781 L 125.335938 7.429688 L 129.972656 7.429688 Z M 125.335938 16.527344 L 125.335938 12.195312 C 124.445312 11.21875 123.476562 10.90625 122.46875 10.90625 C 120.582031 10.90625 119.175781 12.457031 119.175781 14.378906 C 119.175781 16.304688 120.582031 17.824219 122.46875 17.824219 C 123.476562 17.816406 124.445312 17.535156 125.335938 16.527344 Z M 125.335938 16.527344 "/>
<path style=" stroke:none;fill-rule:nonzero;fill:rgb(100%,35.294119%,35.294119%);fill-opacity:1;" d="M 66.484375 13.242188 L 61.667969 8.421875 C 60.867188 7.621094 59.5625 7.542969 58.722656 8.3125 C 57.839844 9.128906 57.816406 10.503906 58.65625 11.351562 L 60.859375 13.558594 C 61.550781 14.25 61.550781 15.378906 60.859375 16.082031 L 58.710938 18.234375 C 57.910156 19.035156 57.832031 20.339844 58.59375 21.179688 C 59.40625 22.0625 60.78125 22.085938 61.628906 21.246094 L 66.488281 16.378906 C 66.921875 15.949219 67.121094 15.378906 67.097656 14.820312 C 67.113281 14.242188 66.914062 13.671875 66.484375 13.242188 Z M 66.484375 13.242188 "/>
<path style=" stroke:none;fill-rule:nonzero;fill:rgb(7.450981%,5.882353%,14.901961%);fill-opacity:1;" d="M 52.394531 9.027344 C 53.917969 10.414062 54.675781 12.1875 54.675781 14.34375 C 54.675781 16.496094 53.917969 18.265625 52.394531 19.640625 C 50.875 21.015625 49.03125 21.703125 46.847656 21.703125 C 44.667969 21.703125 42.824219 21.015625 41.304688 19.640625 C 39.78125 18.265625 39.023438 16.503906 39.023438 14.34375 C 39.023438 12.179688 39.78125 10.414062 41.304688 9.027344 C 42.824219 7.644531 44.667969 6.953125 46.847656 6.953125 C 49.03125 6.953125 50.875 7.644531 52.394531 9.027344 Z M 48.855469 16.535156 C 49.414062 15.941406 49.699219 15.21875 49.699219 14.351562 C 49.699219 13.480469 49.421875 12.75 48.871094 12.164062 C 48.316406 11.574219 47.648438 11.28125 46.847656 11.28125 C 46.050781 11.28125 45.382812 11.574219 44.828125 12.164062 C 44.277344 12.757812 44 13.480469 44 14.351562 C 44 15.21875 44.285156 15.949219 44.84375 16.535156 C 45.40625 17.125 46.074219 17.417969 46.847656 17.417969 C 47.625 17.417969 48.292969 17.117188 48.855469 16.535156 Z M 48.855469 16.535156 "/>
</g>
</svg>
