<svg xmlns="http://www.w3.org/2000/svg" xmlns:xlink="http://www.w3.org/1999/xlink" width="908" height="189" viewBox="0 0 908 189"><defs><path id="a" d="M.92 189h121.693V.153H.92V189z"/><path id="c" d="M0 189.847h907.613V1H0z"/></defs><g fill="none" fill-rule="evenodd" transform="translate(0 -1)"><path fill="#1B438B" d="M8.517 55.803A8.516 8.516 0 0 1 0 47.286a8.516 8.516 0 0 1 8.517-8.516 8.517 8.517 0 0 1 0 17.033z"/><g transform="translate(785 .847)"><mask id="b" fill="#fff"><use xlink:href="#a"/></mask><path fill="#1B438B" d="M89.837 125.845s-3.047 11.794-16.41 16.338c0 0-3.902 1.603-8.09 1.853 1.373 1.336 2.656 3.564 2.656 6.076 0 1.835-.731 3.118-1.657 4.455-.677.925-1.835 2.993-2.565 4.026-1.711 2.37-2.958 3.884-2.958 3.884h-1.854s.838-3.278.57-4.098c-.302-.944-.427-1.318-1.497-1.852-2.69-.945-4.596-3.35-4.596-6.415 0-2.85 1.657-5.328 4.045-6.52-2.78-.5-5.274-1.409-8.268-2.674 0 0-4.08-1.389-4.882-1.586-3.83-.873-5.274-.089-6.29.517-1.335 1.07-2.262 2.405-2.262 2.405h-1.532v-22.967h1.8s.392 1.497.729 2.46c2.122 6.04 6.415 10.547 6.415 10.547 12.437 11.671 26.174 7.395 26.174 7.395 11.545-4.152 13.434-13.63 10.53-20.223-.605-1.39-1.408-2.638-2.316-3.76-3.386-4.222-8.054-6.485-8.054-6.485l-2.495-1.407v16.072c.108.961-.338 4.24 3.19 5.13l1.8.481v1.818H49.267v-1.818l1.888-.499c3.439-.926 2.994-4.17 3.1-5.113v-23.198l-2.12-1.177c-3.865-2.119-6.04-3.153-9.247-5.559-6.164-4.632-10.013-9.728-10.013-17.853 0-10.94 8.339-19.973 19.795-21.594.499-.09 1.05-.143 1.586-.179v-2.44c-.107-.962.356-4.24-3.207-5.132l-1.782-.48v-1.818H72.02v1.817l-1.87.516c-3.458.91-3.012 4.135-3.12 5.097V88.57l-12.774-7.055V57.782l-1.087.09c-6.521 1.086-12.116 5.416-12.116 11.616 0 3.973 1.746 7.127 4.454 9.425 0 0 1.64 1.73 5.168 3.938 3.527 2.21 17.532 9.818 17.532 9.818s8.32 4.436 10.922 6.45c1.247.926 2.797 2.405 2.797 2.405 4.027 3.634 7.287 8.606 8.356 14.182.25 1.266.375 2.567.375 3.884 0 2.156-.286 4.26-.82 6.255zM60.652 26.673c4.098 0 7.413 3.332 7.413 7.43a7.408 7.408 0 0 1-7.413 7.412 7.41 7.41 0 0 1-7.43-7.412 7.425 7.425 0 0 1 7.43-7.43zm16.927 31.751c1.55-.16 2.244-.517 3.046-1.533l.873-1.337h1.64V77.15h-1.96l-.232-1.409c-.178-1.05-.57-2.868-.838-3.723-.391-1.176-1.584-3.956-3.207-6.147-1.621-2.174-3.01-3.527-3.901-4.187-.695-.517-1.337-1.176-2.797-1.978v-3.385l3.349 1.336s2.264.962 4.027.767zM.919 189h121.694V.153H.92V189z" mask="url(#b)"/></g><mask id="d" fill="#fff"><use xlink:href="#c"/></mask><path fill="#1B438B" d="M1.276 130.853h15.127V62.809H1.276v68.044zm56.463.963c14.825 0 25.23-7.573 25.23-21.096v-.196c0-11.849-7.858-16.802-21.791-20.401-11.884-3.011-14.842-4.472-14.842-8.945v-.195c0-3.314 3.047-5.934 8.838-5.934 5.808 0 11.794 2.53 17.871 6.718l7.857-11.279c-6.967-5.541-15.519-8.659-25.533-8.659-14.04 0-24.052 8.16-24.052 20.508v.196c0 13.506 8.943 17.301 22.788 20.81 11.491 2.905 13.843 4.847 13.843 8.642v.196c0 3.992-3.742 6.414-9.924 6.414-7.857 0-14.326-3.207-20.525-8.267l-8.928 10.601c8.25 7.287 18.763 10.887 29.168 10.887zm67.831-.963h15.127v-26.351h32.802V90.889h-32.802V76.422h37.221V62.809H125.57v68.044zm52.722 0h15.411l6.29-15.269h29.06l6.29 15.269h15.804L221.696 62.31h-13.952l-29.452 68.543zm27.1-28.49l9.123-22.057 9.14 22.057h-18.263zm55.715 28.49h15.11v-20.81l7.963-8.16 21.292 28.97h18.175L294.39 91.674l27.973-28.865h-18.262l-27.884 29.737V62.809h-15.11v68.044zm89.64 0h15.127V76.6h20.918V62.809h-56.945V76.6h20.9v54.253zm78.503 1.158c21.203 0 36.633-15.838 36.633-35.188v-.196c0-19.332-15.234-34.994-36.437-34.994-21.203 0-36.615 15.857-36.615 35.19v.195c0 19.35 15.217 34.993 36.419 34.993zm.196-13.808c-12.169 0-20.81-9.71-20.81-21.38v-.196c0-11.653 8.445-21.185 20.614-21.185s20.81 9.71 20.81 21.381v.195c0 11.671-8.445 21.185-20.614 21.185zm49.782 12.65h15.127v-21.772h11.884l14.717 21.772h17.676l-16.784-24.303c8.747-3.207 14.735-10.12 14.735-21.095v-.196c0-6.414-2.067-11.76-5.898-15.555-4.508-4.472-11.296-6.895-20.027-6.895h-31.43v68.044zm15.127-34.993V76.315h15.021c7.376 0 11.883 3.314 11.883 9.728v.195c0 5.72-4.222 9.622-11.582 9.622h-15.322zm56.534 34.993h15.127V62.809h-15.127v68.044zm32.268 0h14.932v-43.26l33.282 43.26h12.864V62.809h-14.932v41.889l-32.195-41.889h-13.951v68.044zm110.735 1.158c12.562 0 22.29-4.863 29.346-10.796V91.674h-29.844v12.934h15.216v9.711c-3.831 2.726-8.731 4.08-14.236 4.08-12.169 0-20.812-9.14-20.812-21.576v-.196c0-11.564 8.731-21.185 19.742-21.185 7.947 0 12.668 2.529 17.96 6.895l9.533-11.368c-7.18-6.022-14.628-9.336-27.012-9.336-20.81 0-36.027 15.857-36.027 35.19v.195c0 20.116 14.718 34.993 36.134 34.993zM558.087 55.803a8.517 8.517 0 0 0 0-17.033 8.517 8.517 0 1 0 0 17.033M56.61 152.073a8.516 8.516 0 0 0 8.515-8.517 8.516 8.516 0 0 0-8.516-8.517 8.516 8.516 0 0 0-8.517 8.517 8.516 8.516 0 0 0 8.517 8.517" mask="url(#d)"/></g></svg>