<?xml version="1.0" encoding="utf-8"?>
<!-- Generator: Adobe Illustrator 21.0.0, SVG Export Plug-In . SVG Version: 6.00 Build 0)  -->
<svg version="1.1" id="Layer_1" xmlns="http://www.w3.org/2000/svg" xmlns:xlink="http://www.w3.org/1999/xlink" x="0px" y="0px"
	 viewBox="0 0 325.9 85" style="enable-background:new 0 0 325.9 85;" xml:space="preserve">
<style type="text/css">
	.st0{fill:#0033A0;}
</style>
<g>
	<path class="st0" d="M310.7,54.3c0,1-0.1,2-0.4,3c0,0-1.4,5.6-7.8,7.7c0,0-1.8,0.8-3.8,0.9c0.7,0.6,1.3,1.7,1.3,2.9
		c0,0.9-0.3,1.5-0.8,2.1c-0.3,0.4-0.9,1.4-1.2,1.9c-0.8,1.1-1.4,1.8-1.4,1.8h-0.9c0,0,0.4-1.6,0.3-1.9c-0.1-0.5-0.2-0.6-0.7-0.9
		c-1.3-0.5-2.2-1.6-2.2-3c0-1.3,0.8-2.5,1.9-3.1c-1.3-0.2-2.5-0.7-3.9-1.3c0,0-1.9-0.7-2.3-0.8c-1.8-0.4-2.5,0-3,0.2
		c-0.6,0.5-1.1,1.1-1.1,1.1H284V54.2h0.9c0,0,0.2,0.7,0.3,1.2c1,2.9,3,5,3,5c5.9,5.5,12.4,3.5,12.4,3.5c5.5-2,6.4-6.5,5-9.6
		c-0.3-0.7-0.7-1.3-1.1-1.8c-1.6-2-3.8-3.1-3.8-3.1l-1.2-0.7v3.7l0,3.9c0.1,0.5-0.2,2,1.5,2.4l0.9,0.2v0.9h-10.8V59l0.9-0.2
		c1.6-0.4,1.4-2,1.5-2.4l0-3.9v-7.1l-1-0.6c-1.8-1-2.9-1.5-4.4-2.6c-2.9-2.2-4.7-4.6-4.7-8.5c0-5.2,4-9.5,9.4-10.2
		c0.2,0,0.5-0.1,0.8-0.1v-1.2c-0.1-0.5,0.2-2-1.5-2.4l-0.8-0.2v-0.9h10.8v0.9l-0.9,0.2c-1.6,0.4-1.4,2-1.5,2.4v17.4l-6.1-3.3V25.1
		l-0.5,0c-3.1,0.5-5.7,2.6-5.7,5.5c0,1.9,0.8,3.4,2.1,4.5c0,0,0.8,0.8,2.5,1.9c1.7,1,8.3,4.6,8.3,4.6s3.9,2.1,5.2,3.1
		c0.6,0.4,1.3,1.1,1.3,1.1c1.9,1.7,3.5,4.1,4,6.7C310.7,53.1,310.7,53.7,310.7,54.3 M307.2,34.2h-0.9l-0.1-0.7
		c-0.1-0.5-0.3-1.4-0.4-1.8c-0.2-0.6-0.8-1.9-1.5-2.9c-0.8-1-1.4-1.7-1.8-2c-0.3-0.2-0.6-0.6-1.3-0.9v-1.6l1.6,0.6
		c0,0,1.1,0.5,1.9,0.4c0.7-0.1,1.1-0.2,1.4-0.7l0.4-0.6h0.8v0.5V34.2z M300.1,13.8c0,1.9-1.6,3.5-3.5,3.5c-1.9,0-3.5-1.6-3.5-3.5
		c0-1.9,1.6-3.5,3.5-3.5C298.5,10.3,300.1,11.9,300.1,13.8 M325.9,0h-57.6v85h57.6V0z"/>
	<path class="st0" d="M28.4,39.8c-5.5-1.4-6.6-2.1-6.6-3.9v-0.1c0-1.5,1.5-2.5,3.8-2.5c2.5,0,5.1,1,8.1,3c0.1,0.1,0.2,0,0.3-0.1
		l3.6-5.2c0.1-0.1,0-0.2,0-0.3c-3.4-2.7-7.4-4-11.9-4c-6.6,0-11.3,4-11.3,9.7v0.1c0,6.6,4.6,8.3,10.6,9.8c5.3,1.4,6.2,2.2,6.2,3.8
		v0.1c0,1.7-1.6,2.7-4.3,2.7c-3.2,0-6.2-1.2-9.3-3.7c-0.1-0.1-0.2-0.1-0.3,0L13.2,54c-0.1,0.1-0.1,0.2,0,0.3
		c3.7,3.3,8.5,5.1,13.5,5.1c7.3,0,11.8-3.8,11.8-9.9v-0.1C38.6,43.6,34.5,41.4,28.4,39.8"/>
	<path class="st0" d="M86.1,27.4c0-0.1-0.1-0.1-0.2-0.1H78c-0.1,0-0.2,0-0.2,0.1l-7.5,12.2L63,27.4c0-0.1-0.1-0.1-0.2-0.1h-8.1
		c-0.1,0-0.2,0-0.2,0.1c0,0.1,0,0.2,0,0.2l12.1,18.9v12.3c0,0.1,0.1,0.2,0.2,0.2h6.9c0.1,0,0.2-0.1,0.2-0.2V46.3l12.1-18.7
		C86.1,27.5,86.1,27.4,86.1,27.4"/>
	<path class="st0" d="M4.1,16.2c-2.3,0-4.1,1.9-4.1,4.1s1.9,4.1,4.1,4.1s4.1-1.9,4.1-4.1S6.4,16.2,4.1,16.2"/>
	<path class="st0" d="M7.8,27.3H0.8c-0.1,0-0.2,0.1-0.2,0.2v31.3c0,0.1,0.1,0.2,0.2,0.2h6.9C7.9,59,8,58.9,8,58.7V27.5
		C8,27.4,7.9,27.3,7.8,27.3"/>
	<path class="st0" d="M180.3,38.2L180.3,38.2c0,2.7-2,4.3-5.1,4.3h-6.8v-8.5h6.7C178.4,33.9,180.3,35.4,180.3,38.2 M181.1,47.7
		c4.3-1.7,6.6-5.1,6.6-9.8v-0.1c0-3-1-5.5-2.8-7.3c-2.1-2.1-5.4-3.2-9.4-3.2h-14.4c-0.1,0-0.2,0.1-0.2,0.2v31.3
		c0,0.1,0.1,0.2,0.2,0.2h6.9c0.1,0,0.2-0.1,0.2-0.2V49h5.1l6.7,9.9c0,0.1,0.1,0.1,0.2,0.1h8.1c0.1,0,0.2,0,0.2-0.1
		c0-0.1,0-0.2,0-0.2L181.1,47.7z"/>
	<path class="st0" d="M103.8,45.4h-7.7l3.9-9.3L103.8,45.4z M103.4,27.2c0-0.1-0.1-0.1-0.2-0.1h-6.4c-0.1,0-0.2,0.1-0.2,0.1
		L83.1,58.6c0,0.1,0,0.2,0,0.2c0,0.1,0.1,0.1,0.2,0.1h7.1c0.1,0,0.2-0.1,0.2-0.1l2.8-6.9h13l2.8,6.9c0,0.1,0.1,0.1,0.2,0.1h7.3
		c0.1,0,0.1,0,0.2-0.1c0-0.1,0.1-0.1,0-0.2L103.4,27.2z"/>
	<path class="st0" d="M240.5,27.3H233c-0.1,0-0.2,0-0.2,0.1l-8.1,12.9l-8.1-12.9c0-0.1-0.1-0.1-0.2-0.1h-7.5c-0.1,0-0.2,0.1-0.2,0.2
		v31.3c0,0.1,0.1,0.2,0.2,0.2h6.8c0.1,0,0.2-0.1,0.2-0.2V39.2l8.4,12.6c0,0.1,0.1,0.1,0.2,0.1h0.2c0.1,0,0.1,0,0.2-0.1l8.5-12.7
		v19.6c0,0.1,0.1,0.2,0.2,0.2h6.9c0.1,0,0.2-0.1,0.2-0.2V27.5C240.7,27.4,240.6,27.3,240.5,27.3"/>
	<path class="st0" d="M201.1,27.3h-6.9c-0.1,0-0.2,0.1-0.2,0.2v31.3c0,0.1,0.1,0.2,0.2,0.2h6.9c0.1,0,0.2-0.1,0.2-0.2V27.5
		C201.3,27.4,201.2,27.3,201.1,27.3"/>
	<path class="st0" d="M141.4,27.3h-26.2c-0.1,0-0.2,0.1-0.2,0.2v6.3c0,0.1,0.1,0.2,0.2,0.2h9.4v24.7c0,0.1,0.1,0.2,0.2,0.2h6.9
		c0.1,0,0.2-0.1,0.2-0.2V34.1h9.4c0.1,0,0.2-0.1,0.2-0.2v-6.3C141.7,27.4,141.6,27.3,141.4,27.3"/>
	<path class="st0" d="M153.3,27.3h-6.9c-0.1,0-0.2,0.1-0.2,0.2v31.3c0,0.1,0.1,0.2,0.2,0.2h6.9c0.1,0,0.2-0.1,0.2-0.2V27.5
		C153.5,27.4,153.4,27.3,153.3,27.3"/>
	<path class="st0" d="M26.2,61.7c-2.3,0-4.1,1.8-4.1,4.1c0,2.3,1.8,4.1,4.1,4.1c2.3,0,4.1-1.8,4.1-4.1
		C30.3,63.5,28.5,61.7,26.2,61.7"/>
</g>
</svg>
